<svg width="178" height="165" viewBox="0 0 178 165" fill="none" xmlns="http://www.w3.org/2000/svg">
<rect width="60.5002" height="22.0001" transform="translate(21.9995 22)" fill="white"/>
<path d="M41.5359 41.3413C41.5432 41.3413 41.5505 41.3305 41.5505 41.3305C41.609 41.2873 41.6674 41.2334 41.7185 41.1687C41.7112 41.1687 41.7039 41.1687 41.6966 41.1579C41.6455 41.2119 41.5871 41.2766 41.5359 41.3413Z" fill="#000091"/>
<path d="M49.6269 38.6153L49.4991 38.7253C49.5721 38.707 49.6269 38.6886 49.6269 38.6153Z" fill="#000091"/>
<path fill-rule="evenodd" clip-rule="evenodd" d="M47.011 41.3999C47.2454 41.1642 47.4797 40.9142 47.7141 40.657H47.707C48.1472 40.157 48.5733 39.6785 49.0846 39.2428C49.2409 39.0999 49.39 38.9785 49.532 38.8785C49.5529 38.8575 49.5635 38.8262 49.574 38.7956C49.5849 38.7637 49.5955 38.7324 49.6173 38.7142C49.516 38.7528 49.4354 38.8139 49.3542 38.8753C49.2703 38.9389 49.1859 39.0028 49.0775 39.0428C49.0349 39.0428 48.9923 38.9999 49.0349 38.9571C49.1841 38.8499 49.3332 38.7356 49.4752 38.6213H49.4468C49.4042 38.6213 49.4042 38.5785 49.4042 38.5356C48.8755 38.4517 48.4695 38.8132 48.106 39.1369L48.0833 39.1571C48.0268 39.1855 47.9733 39.1573 47.9313 39.1351C47.91 39.1239 47.8917 39.1142 47.8774 39.1142C47.5558 39.222 47.2785 39.4208 46.9993 39.6209C46.7421 39.8052 46.4835 39.9906 46.1872 40.107V40.0213C46.0866 40.056 45.9872 40.1012 45.8876 40.1466C45.7409 40.2132 45.5938 40.2802 45.4416 40.3142C45.1636 40.3787 44.9058 40.3704 44.656 40.3623C44.5739 40.3597 44.4926 40.357 44.4119 40.357C43.957 40.4022 43.508 40.4996 43.0595 40.5969L42.9134 40.6285C42.9063 40.632 42.8992 40.6338 42.8921 40.6356C42.885 40.6374 42.8779 40.6392 42.8708 40.6428C42.601 40.7142 42.3524 40.8142 42.1039 40.957L42.0755 40.9713C42.0657 40.9844 42.0559 40.996 42.0469 41.0068C42.0361 41.0195 42.0263 41.0312 42.0187 41.0428C41.9334 41.1428 41.8553 41.2285 41.7346 41.2928C41.5563 41.3824 41.4022 41.5207 41.2506 41.6568C41.1849 41.7157 41.1194 41.7745 41.0528 41.8285C41.0386 41.8428 41.0102 41.8499 40.9889 41.8499C40.7688 42.0642 40.5486 42.2785 40.3214 42.4856C40.3072 42.4999 40.2433 42.507 40.1936 42.4999C40.1936 42.4999 40.2007 42.4999 40.2007 42.4928L40.222 42.4499L40.3285 42.2785C40.3498 42.2463 40.3693 42.2142 40.3889 42.182C40.4084 42.1499 40.4279 42.1178 40.4492 42.0856C40.506 42 40.5629 41.9141 40.6268 41.8356C40.641 41.8142 40.641 41.7928 40.6268 41.7785C40.6126 41.7642 40.5912 41.757 40.5699 41.757C40.7759 41.557 41.0173 41.3856 41.2659 41.2356V41.2285C41.2375 41.2356 41.1949 41.2142 41.2162 41.1856C41.237 41.1594 41.254 41.1294 41.27 41.1011L41.2872 41.0713C41.2907 41.0642 41.2925 41.0588 41.2943 41.0535C41.2961 41.0481 41.2978 41.0428 41.3014 41.0356C41.2978 41.0285 41.2925 41.0231 41.2872 41.0178C41.2819 41.0124 41.2765 41.007 41.273 40.9999L41.2299 41.0283C41.1785 41.062 41.1255 41.0966 41.0813 41.1356C41.0499 41.1627 41.0207 41.1996 40.9906 41.2376C40.9255 41.32 40.8567 41.407 40.7546 41.407C40.7475 41.407 40.712 41.407 40.6907 41.3999C40.6694 41.3999 40.6552 41.3928 40.6481 41.3856C40.6481 41.3821 40.6481 41.3803 40.6489 41.3794C40.6498 41.3785 40.6516 41.3785 40.6552 41.3785C40.6552 41.3785 40.6623 41.3713 40.6623 41.3642C40.6623 41.3642 40.6623 41.357 40.6694 41.357C40.6729 41.3499 40.6765 41.3445 40.68 41.3392C40.6836 41.3338 40.6871 41.3285 40.6907 41.3213C40.6942 41.3142 40.6978 41.3088 40.7013 41.3035C40.7049 41.2981 40.7084 41.2928 40.712 41.2856C40.7155 41.282 40.7173 41.2767 40.7191 41.2713C40.7209 41.266 40.7226 41.2606 40.7262 41.257L40.7342 41.2423C40.7412 41.2298 40.7496 41.2148 40.7546 41.1999C40.7581 41.1928 40.7617 41.1874 40.7652 41.182C40.7688 41.1767 40.7723 41.1713 40.7759 41.1642C40.7865 41.1499 40.7954 41.1338 40.8043 41.1178C40.8132 41.1017 40.822 41.0856 40.8327 41.0713C40.8398 41.057 40.8469 41.0428 40.8611 41.0285C40.8682 41.0142 40.8753 41.0017 40.8824 40.9892C40.8895 40.9767 40.8966 40.9642 40.9037 40.9499C40.925 40.9142 40.9037 40.8856 40.8753 40.8785C40.9534 40.7785 41.0457 40.6928 41.1594 40.6285H41.1452C41.2432 40.5792 41.344 40.5214 41.4442 40.4641C41.5033 40.4302 41.5631 40.3959 41.621 40.3642C41.6423 40.3428 41.6636 40.3213 41.692 40.307C41.4576 40.3856 41.2446 40.4928 41.0386 40.6356C41.0386 40.6356 40.9818 40.657 40.9676 40.6713C40.9676 40.6713 40.925 40.6856 40.8682 40.6356C40.8611 40.6285 40.8611 40.6213 40.8611 40.607C40.8858 40.5574 40.9367 40.5245 40.9917 40.489C41.0317 40.4632 41.0738 40.436 41.1097 40.3999C41.1523 40.3999 41.1878 40.3999 41.1878 40.4428C42.0057 39.8015 43.0141 39.6531 44.0261 39.5042C44.6484 39.4127 45.272 39.3209 45.8535 39.1142C45.9138 39.0713 45.976 39.0303 46.0381 38.9892C46.1002 38.9481 46.1624 38.9071 46.2227 38.8642C46.3263 38.8211 46.4191 38.7473 46.5174 38.6691C46.6145 38.5918 46.717 38.5103 46.8406 38.4499C47.1672 38.1999 47.4158 37.9142 47.5436 37.4928C47.5436 37.4499 47.501 37.4071 47.501 37.4071C46.9613 37.9856 46.3435 38.4428 45.683 38.7785C45.0533 39.1108 44.3785 39.16 43.7105 39.2088C43.4595 39.2271 43.2095 39.2453 42.9632 39.2785C43.0058 39.1928 43.091 39.1928 43.1691 39.1928C43.1691 39.0913 43.2177 39.0477 43.2801 38.9917C43.2967 38.9767 43.3144 38.9609 43.3324 38.9428H43.4532C43.4745 38.9428 43.4851 38.9213 43.4958 38.8999C43.5064 38.8785 43.5171 38.8571 43.5384 38.8571C43.6236 38.8571 43.7443 38.8142 43.7017 38.8142C43.6366 38.7305 43.5419 38.7636 43.4375 38.8002C43.337 38.8354 43.2275 38.8737 43.1265 38.8142C43.164 38.773 43.1753 38.7235 43.1856 38.6785C43.1967 38.6299 43.2066 38.5865 43.2472 38.5642H43.4105C43.4105 38.4785 43.4958 38.3999 43.4958 38.3999C43.8661 38.1773 44.2237 37.9828 44.5747 37.792C44.8091 37.6646 45.0408 37.5386 45.2711 37.4071C45.2245 37.4071 45.1832 37.4262 45.1431 37.4448C45.0793 37.4744 45.0186 37.5026 44.9445 37.4499C44.9871 37.4499 44.9871 37.4196 44.9871 37.3892C44.9871 37.3588 44.9871 37.3285 45.0297 37.3285C45.2961 37.2573 45.5332 37.142 45.7754 37.0241C45.9464 36.941 46.1199 36.8566 46.308 36.7856C46.2521 36.7856 46.2005 36.8007 46.1501 36.8153C46.0531 36.8435 45.961 36.8703 45.8535 36.7856C45.8817 36.7714 45.9045 36.7533 45.9269 36.7355C45.9723 36.6994 46.0165 36.6642 46.102 36.6642V36.5428C46.102 36.4999 46.1446 36.4999 46.1872 36.4999C46.1446 36.4999 46.102 36.4571 46.102 36.4571C46.1246 36.4117 46.169 36.4023 46.2185 36.3919C46.2625 36.3827 46.3105 36.3726 46.3506 36.3356C46.308 36.3356 46.2298 36.3356 46.2298 36.2928C46.3506 36.1285 46.5565 36.0856 46.7625 36.0428C46.7412 35.9999 46.7003 35.9999 46.6648 35.9999C46.6293 35.9999 46.5991 35.9999 46.5991 35.9571C46.5991 35.9142 46.6417 35.9142 46.6843 35.9142H46.5991C46.5322 35.8806 46.5441 35.8206 46.5523 35.779C46.5545 35.7676 46.5565 35.7576 46.5565 35.7499C46.7233 35.5534 46.7782 35.3214 46.8327 35.0908C46.8595 34.9778 46.8861 34.8651 46.9258 34.7571C46.8832 34.7571 46.8406 34.7571 46.8406 34.7142C46.4413 35.1574 45.8084 35.3253 45.2071 35.4849L45.1504 35.4999H44.9445C44.7385 35.5856 44.4474 35.5856 44.2414 35.4571C44.1435 35.4057 44.0736 35.3415 43.9982 35.2721C43.9478 35.2258 43.8949 35.1771 43.8295 35.1285C43.4958 34.9214 43.1691 34.7571 42.7998 34.6285C41.7701 34.2999 40.6978 34.1285 39.6254 34.1714C39.9249 34.0067 40.2428 33.9412 40.5651 33.8748C40.7319 33.8404 40.8999 33.8058 41.067 33.7571C41.1725 33.726 41.277 33.694 41.3809 33.6621C41.9699 33.4816 42.5413 33.3064 43.1691 33.3428C43.0869 33.3136 42.9817 33.3242 42.8848 33.3339C42.8394 33.3384 42.7958 33.3428 42.7572 33.3428C42.2825 33.3074 41.803 33.4131 41.3027 33.5234C41.1967 33.5468 41.0898 33.5703 40.9818 33.5928C40.7859 33.6336 40.5996 33.6921 40.413 33.7508C40.2073 33.8154 40.0013 33.8802 39.7817 33.9214C39.6864 33.9542 39.6099 34.0102 39.5354 34.0647C39.4155 34.1523 39.3008 34.2362 39.1212 34.2142V34.0857C39.5331 33.5857 40.0302 33.0928 40.6907 33.0499C41.3291 32.946 41.931 33.02 42.559 33.0973C42.6644 33.1103 42.7707 33.1233 42.8779 33.1357C43.3927 33.1771 43.8743 33.2919 44.3933 33.4156L44.4474 33.4285C44.561 33.4285 44.6249 33.5285 44.6868 33.6254C44.7371 33.7041 44.786 33.7807 44.8593 33.7999C44.9604 33.8348 45.0615 33.8413 45.1626 33.8478C45.31 33.8573 45.4575 33.8668 45.6049 33.9642C45.6049 33.9354 45.6001 33.9074 45.5953 33.8796C45.5859 33.8248 45.5766 33.7711 45.6049 33.7142C45.6965 33.6221 45.8016 33.6468 45.905 33.6711C45.9859 33.6902 46.0658 33.709 46.1375 33.6714C46.3627 33.5316 46.1515 33.3171 45.9401 33.1023C45.8381 32.9988 45.7362 32.8952 45.683 32.7999C45.683 32.7571 45.7256 32.7142 45.7256 32.7142C45.8189 32.7978 45.9058 32.8844 45.9919 32.9701C46.2075 33.1848 46.4184 33.3948 46.7127 33.5428C46.9187 33.6285 47.4158 33.7499 47.3306 33.4999C47.1847 33.1762 46.9355 32.8954 46.684 32.6119C46.5804 32.4952 46.4763 32.3779 46.379 32.2571V32.0928C46.3142 32.0928 46.2987 32.0681 46.2794 32.0374C46.2733 32.0277 46.2668 32.0174 46.2582 32.0071V31.8428C46.1541 31.7882 46.1308 31.7016 46.1074 31.6146C46.094 31.5651 46.0806 31.5154 46.0523 31.4714C45.9811 31.356 45.976 31.2141 45.9707 31.0678C45.9665 30.9514 45.9622 30.8322 45.9245 30.7214C45.8393 30.4714 45.8038 30.2642 45.7611 30.0142C45.7149 29.7585 45.664 29.5139 45.6142 29.2745C45.5263 28.852 45.4417 28.4454 45.3919 28.0214C45.3261 27.4154 45.6322 26.9028 45.9451 26.3789C46.0378 26.2235 46.1312 26.0672 46.2156 25.9071C46.5068 25.4071 46.8335 24.9143 47.3732 24.5786C47.4909 24.0909 47.8113 23.6848 48.1302 23.2807L48.1544 23.25C48.469 22.8578 48.9945 22.6181 49.3818 22.4414L49.4255 22.4214C50.0007 22.1643 50.5192 22 50.5263 22H21.9995V43.9927H42.2388C42.7801 43.6004 43.318 43.3528 43.9584 43.0581C44.2506 42.9236 44.5641 42.7794 44.909 42.607C44.982 42.5703 45.0688 42.5276 45.1651 42.4802C45.7431 42.1958 46.6641 41.7427 47.011 41.3999ZM40.5889 38.4327C40.5086 38.4408 40.4234 38.4493 40.4556 38.3848C40.4854 38.2403 40.6334 38.1969 40.778 38.1546C40.8399 38.1365 40.9011 38.1186 40.9522 38.0929L40.9756 38.0809L40.9926 38.0718C41.0727 38.0293 41.1707 37.9772 41.2431 38.0075C41.2919 38.0769 41.3524 38.0948 41.4111 38.1122C41.4549 38.1252 41.4976 38.1378 41.534 38.1713C41.3805 38.3253 41.2014 38.3405 41.0198 38.3559C40.8991 38.3661 40.7774 38.3764 40.6613 38.4276C40.6405 38.4276 40.6149 38.4301 40.5889 38.4327ZM34.306 37.4283C34.306 37.4712 34.3486 37.514 34.3486 37.514C35.3429 36.3926 36.2447 35.4354 37.523 34.6426C37.5572 34.6283 37.5445 34.6462 37.5276 34.67C37.5024 34.7054 37.4679 34.754 37.5656 34.7283C37.9888 34.6318 38.1789 34.2693 38.3638 33.9166C38.4116 33.8254 38.4591 33.7349 38.5101 33.6497C38.7041 33.3343 38.9795 33.1323 39.257 32.9286C39.4572 32.7818 39.6584 32.6341 39.831 32.4426C39.831 32.4855 39.831 32.5283 39.7884 32.5712C39.831 32.614 39.8736 32.614 39.9162 32.614C39.9911 32.5575 40.0729 32.5341 40.1513 32.5117C40.2512 32.4831 40.3457 32.4561 40.4133 32.364C40.0867 32.2355 39.6677 32.1926 39.341 32.3212C38.4746 32.7355 37.7361 33.3997 37.033 34.1497C36.6069 34.5997 36.1666 35.0212 35.6269 35.314C35.2576 36.0569 34.8458 36.7212 34.306 37.4283ZM37.773 34.7718C37.7507 34.8164 37.7285 34.8397 37.7072 34.8619C37.6879 34.8822 37.6693 34.9016 37.6524 34.9355C37.6098 35.021 37.5672 35.0566 37.4892 35.0993C37.4466 35.0993 37.4041 35.0993 37.4041 35.0566C37.4466 34.8928 37.5672 34.7291 37.7304 34.6863C37.773 34.6935 37.773 34.7362 37.773 34.7718ZM39.589 41.1151C39.6244 41.0794 39.667 41.0365 39.6883 40.9936C39.7238 40.9079 39.5038 40.9294 39.4684 40.9508C39.4362 40.9767 39.4157 41.0026 39.3909 41.0339L39.3832 41.0436C39.3536 41.0777 39.319 41.1092 39.2838 41.1412C39.26 41.1629 39.2359 41.1848 39.2129 41.2079C39.1136 41.3079 39.0143 41.4079 38.9079 41.5008C38.8369 41.5651 39.0639 41.5936 39.1136 41.5508C39.1704 41.5079 39.22 41.4579 39.2697 41.4079C39.2886 41.4079 39.3075 41.4047 39.3201 41.4026L39.3288 41.4012L39.3335 41.4008C39.4512 41.3613 39.5387 41.2794 39.6238 41.1998L39.6457 41.1794C39.6741 41.1508 39.6386 41.1222 39.589 41.1151ZM38.9469 40.6506C38.9461 40.6507 38.9455 40.6509 38.9451 40.6513C38.9442 40.6522 38.9442 40.654 38.9442 40.6576C38.9007 40.6874 38.8577 40.7179 38.8148 40.7482C38.7038 40.8268 38.5933 40.9049 38.4755 40.9719C38.3629 41.0353 38.2474 41.0901 38.1308 41.1454C38.0637 41.1773 37.9962 41.2093 37.9287 41.2433C37.9287 41.2433 37.9287 41.2361 37.9216 41.2361C37.9074 41.2147 37.879 41.2076 37.8506 41.2218C37.6944 41.3076 37.5595 41.4218 37.4387 41.5433C37.4174 41.5576 37.3961 41.579 37.3819 41.6004L37.318 41.6647V41.6718C37.2896 41.7004 37.2612 41.729 37.2257 41.7718C37.2183 41.7793 37.2126 41.7867 37.2072 41.7938C37.1969 41.8073 37.1874 41.8197 37.1689 41.829C37.1405 41.8433 37.0695 41.8433 37.0766 41.8004V41.7933C37.0552 41.8076 37.0268 41.8218 37.0055 41.829C36.9949 41.8361 36.9842 41.8415 36.9736 41.8468C36.9629 41.8522 36.9523 41.8576 36.9416 41.8647C36.9345 41.8576 36.9203 41.8576 36.9132 41.8576C36.9061 41.8576 36.8919 41.8576 36.8848 41.8647C36.8682 41.879 36.8517 41.8925 36.8351 41.906C36.802 41.933 36.7688 41.9599 36.7357 41.9933C36.6505 42.0718 36.5723 42.1576 36.4942 42.2504C36.4942 42.2504 36.4942 42.2576 36.4871 42.2576C36.4871 42.2611 36.4854 42.2629 36.4836 42.2647C36.4818 42.2665 36.48 42.2683 36.48 42.2718L36.4658 42.2861C36.4631 42.2889 36.4614 42.2916 36.46 42.2939C36.4577 42.2977 36.456 42.3004 36.4516 42.3004L36.4445 42.3076C36.4374 42.3218 36.4303 42.3361 36.4161 42.3504C36.409 42.3576 36.3948 42.3647 36.3806 42.3647C36.3735 42.3576 36.3664 42.3504 36.3664 42.3433C36.3629 42.3397 36.3611 42.3361 36.3593 42.3326C36.3575 42.329 36.3558 42.3254 36.3522 42.3218C36.3451 42.3111 36.3398 42.3004 36.3344 42.2897C36.3291 42.279 36.3238 42.2683 36.3167 42.2576V42.2504C36.3167 42.2468 36.3149 42.2433 36.3131 42.2397C36.3114 42.2361 36.3096 42.2326 36.3096 42.229L36.4374 42.079L36.4445 42.0718C36.4516 42.0647 36.4587 42.0558 36.4658 42.0469C36.4729 42.0379 36.48 42.029 36.4871 42.0218C36.4978 42.0076 36.5102 41.9933 36.5226 41.979C36.5351 41.9647 36.5475 41.9504 36.5581 41.9361C36.5617 41.929 36.5652 41.9236 36.5688 41.9183C36.5723 41.9129 36.5759 41.9076 36.5794 41.9004C36.6221 41.8433 36.6647 41.7861 36.7073 41.7218V41.7147C36.7144 41.7076 36.7215 41.7004 36.7215 41.6861C36.7428 41.6576 36.7641 41.629 36.7783 41.6004L36.8209 41.5147V41.5076L36.828 41.5004C36.828 41.4968 36.8298 41.4951 36.8316 41.4933C36.8333 41.4915 36.8351 41.4897 36.8351 41.4861C36.8422 41.4683 36.8493 41.4522 36.8564 41.4362C36.8635 41.4201 36.8706 41.404 36.8777 41.3861V41.379L36.8848 41.3504C36.8884 41.3433 36.8901 41.3361 36.8919 41.329C36.8937 41.3218 36.8955 41.3147 36.899 41.3076V41.3004C36.9026 41.2897 36.9043 41.279 36.9061 41.2683C36.9079 41.2576 36.9097 41.2468 36.9132 41.2361C36.9132 41.229 36.9132 41.2147 36.9061 41.2076C36.9487 41.129 37.0055 41.0576 37.0695 40.9861C37.0659 40.9861 37.0624 40.9879 37.0588 40.9897C37.0568 40.9907 37.0547 40.9918 37.0527 40.9924C37.0512 40.993 37.0497 40.9933 37.0481 40.9933C37.0165 41.0131 36.9893 41.0397 36.9616 41.0666C36.9395 41.0882 36.9171 41.11 36.8919 41.129C36.8493 41.1647 36.7641 41.1076 36.8209 41.0647C36.8564 41.0361 36.8848 41.0076 36.9132 40.979C36.9132 40.979 36.9132 40.9719 36.9203 40.9719C36.9486 40.9462 36.9758 40.9172 37.0032 40.8879C37.0445 40.8438 37.0864 40.7991 37.1334 40.7647C37.1831 40.729 37.2186 40.7004 37.2612 40.6647C37.2683 40.6576 37.2754 40.6504 37.2825 40.6504C37.3109 40.6147 37.3393 40.579 37.3748 40.5433C37.3748 40.5433 37.3819 40.5433 37.3819 40.5361C37.6258 40.2996 37.9685 40.2162 38.3183 40.131C38.5389 40.0773 38.7623 40.0229 38.9656 39.929C39.0803 39.8812 39.2084 39.9 39.3349 39.9186C39.4354 39.9334 39.5348 39.948 39.626 39.929C39.7467 39.929 39.8745 39.929 39.9953 40.0147C39.7145 40.1642 39.4465 40.3352 39.1814 40.5044C39.1046 40.5534 39.0279 40.6023 38.9514 40.6504C38.9494 40.6504 38.9479 40.6504 38.9469 40.6506ZM39.8343 37.7394C39.8011 37.7432 39.7795 37.7456 39.798 37.7642C39.9187 37.8856 40.1673 37.8428 40.3377 37.7499C40.4584 37.6642 40.5863 37.6642 40.7496 37.6642C40.7922 37.6642 40.7922 37.5856 40.7922 37.5428C40.9129 37.5856 40.9982 37.5856 41.1189 37.5856C42.106 37.3785 43.0576 37.1714 43.9666 36.7142C43.0468 36.0036 41.9129 35.687 40.8023 35.3769C40.618 35.3255 40.4344 35.2742 40.2525 35.2214C40.2925 35.2214 40.3325 35.2347 40.3727 35.2481C40.454 35.2752 40.5363 35.3026 40.6218 35.2214C40.5091 35.1315 40.3837 35.1143 40.2594 35.0973C40.1566 35.0832 40.0546 35.0692 39.9613 35.0142C39.9711 35.0142 39.9826 35.0165 39.9952 35.0189C40.0378 35.0271 40.0918 35.0375 40.1247 34.9714C39.909 34.8629 39.6932 34.826 39.4755 34.7888C39.3635 34.7697 39.2509 34.7505 39.1376 34.7214C39.3435 34.6785 39.4713 34.5142 39.4713 34.3071C39.4713 34.2642 39.3861 34.2642 39.3435 34.2642C38.8535 34.5142 38.5197 34.9714 38.3138 35.5071C38.4995 35.6164 38.6996 35.6037 38.8957 35.5913C39.0071 35.5843 39.1173 35.5773 39.2228 35.5928C39.1297 35.6813 38.9951 35.7053 38.8657 35.7284C38.8175 35.737 38.77 35.7454 38.7257 35.7571C38.5978 35.7857 38.4771 35.8785 38.5197 35.9642C38.5481 35.9999 38.5765 36.0142 38.612 36.0214C38.5197 36.0499 38.4345 36.0928 38.3564 36.1714C38.4733 36.2634 38.5939 36.2456 38.7128 36.2281C38.7601 36.2212 38.8071 36.2142 38.8535 36.2142C38.8535 36.2661 38.8876 36.2837 38.923 36.3021C38.9412 36.3115 38.9598 36.3211 38.9742 36.3357C38.7683 36.4142 38.6049 36.5857 38.5623 36.7071C38.5114 36.8308 38.4175 36.9112 38.3243 36.9909C38.2615 37.0447 38.1991 37.0981 38.1505 37.1642V37.2928C38.0133 37.4144 37.8723 37.523 37.7332 37.6301C37.4475 37.8501 37.17 38.0639 36.9503 38.3714C36.9929 38.3714 36.9929 38.4142 36.9929 38.4571C36.9536 38.5164 36.8977 38.5574 36.8447 38.5964C36.7827 38.6419 36.7247 38.6845 36.7017 38.7499C36.7017 38.7928 36.7017 38.8356 36.7444 38.8356C37.005 38.7495 37.2304 38.6045 37.4514 38.4624C37.652 38.3333 37.849 38.2067 38.0652 38.1285C38.242 38.086 38.3958 38.0059 38.5459 37.9277C38.6733 37.8614 38.798 37.7964 38.9316 37.7571C39.0346 37.7356 39.1482 37.7053 39.2618 37.6749C39.3755 37.6446 39.4891 37.6142 39.5921 37.5928C39.5921 37.6356 39.5921 37.6785 39.6347 37.6785H39.9613C39.9412 37.7271 39.8778 37.7344 39.8343 37.7394Z" fill="#000091"/>
<path d="M82.4998 22H58.8435C58.8435 22 58.8865 22.0072 59.0652 22.1001C59.2583 22.2003 59.5086 22.3362 59.6588 22.4148C59.9663 22.5722 60.2595 22.7724 60.4526 23.08C60.5384 23.2016 60.66 23.4519 60.5813 23.6164C60.4955 23.8238 60.4526 24.16 60.2452 24.2386C59.9949 24.3674 59.6659 24.3674 59.3727 24.3245C59.2083 24.3245 59.0438 24.2815 58.8722 24.2386C59.4943 24.489 60.0807 24.7822 60.4955 25.3615C60.5384 25.4473 60.7029 25.4831 60.8673 25.4831C60.9103 25.4831 60.9103 25.5689 60.9103 25.6047C60.8244 25.6905 60.7458 25.7334 60.7887 25.855H60.9103C61.1176 25.7692 61.0747 25.3544 61.3679 25.4831C61.5753 25.6047 61.6611 25.8979 61.5324 26.1053C61.3679 26.2698 61.2035 26.3986 61.0318 26.5202C60.9889 26.606 60.9889 26.7276 61.0318 26.8134C61.1534 26.9779 61.1963 27.1424 61.2392 27.3141C61.3679 27.6073 61.4037 27.9363 61.5324 28.2295C61.6969 28.8518 61.8614 29.474 61.8256 30.1034C61.8256 30.4324 61.6611 30.7256 61.7827 31.0618C61.8685 31.3908 62.0759 31.6411 62.2404 31.9344C62.4049 32.1847 62.5693 32.3492 62.6981 32.5995C62.9484 33.0143 63.406 33.4292 63.1986 33.9298C63.0771 34.223 62.6194 34.1801 62.3262 34.3446C62.0759 34.552 62.2833 34.8882 62.412 35.0956C62.6194 35.4675 62.1617 35.7179 61.8685 35.8466C61.9543 35.9753 62.1188 35.9324 62.1617 36.0111C62.2046 36.2185 62.412 36.3401 62.2833 36.5547C62.1188 36.805 61.6182 36.9266 61.8685 37.3056C62.033 37.5989 61.9257 37.9207 61.8256 38.2211C61.704 38.593 61.3679 38.7575 61.0747 38.8433C60.8244 38.9292 60.5312 38.9292 60.2881 38.8863C60.2023 38.8433 60.1236 38.8004 60.0378 38.8004C59.3298 38.7146 58.6219 38.5143 57.921 38.5143C57.7137 38.5573 57.5063 38.593 57.3418 38.6788C57.1559 38.8147 56.9842 38.9649 56.8412 39.1223C56.8412 39.1223 56.8412 39.1223 56.8341 39.1294C56.8054 39.1652 56.7697 39.1938 56.7411 39.2296C56.7268 39.251 56.7053 39.2725 56.691 39.2939C56.6767 39.3082 56.6696 39.3225 56.6553 39.3368C56.5337 39.487 56.4264 39.6515 56.3263 39.816C56.3192 39.8303 56.312 39.8375 56.3049 39.8446C56.2977 39.8661 56.2834 39.8804 56.2691 39.9019C56.1332 40.1522 56.0331 40.4097 55.9545 40.6671C55.6684 41.6184 55.7971 42.4337 55.9974 42.634C56.0546 42.6912 57.3704 43.0989 58.2858 43.5066C58.7148 43.6997 59.0152 43.8427 59.2655 44.0001H82.4927V22H82.4998Z" fill="#E1000F"/>
<path d="M60.2485 30.0205C60.4125 30.0633 60.6622 30.0633 60.6622 30.1491C60.5766 30.4776 60.0844 30.5633 59.8348 30.899H59.7064C59.5852 30.9848 59.6208 31.1919 59.4996 31.1919C59.3783 31.149 59.2499 31.1919 59.1287 31.2348C59.2927 31.399 59.4996 31.5276 59.7492 31.4848C59.792 31.4848 59.8705 31.5705 59.8705 31.649C59.8705 31.649 59.9133 31.649 59.9561 31.6062C59.9988 31.6062 60.0416 31.6062 60.0416 31.649V31.8133C59.9204 31.9776 59.7064 31.899 59.5424 31.9348C59.8776 32.0205 60.2057 32.0205 60.4981 31.9348C60.7478 31.849 60.4981 31.4348 60.6622 31.2276C60.5766 31.2276 60.6622 31.099 60.5766 31.099C60.6622 31.0133 60.7406 30.8919 60.8262 30.849C60.9118 30.849 61.0331 30.8062 61.0759 30.7205C61.0759 30.6348 60.9118 30.599 60.9475 30.5133C61.1971 30.3491 61.404 30.0991 61.3184 29.8491C61.2756 29.7205 60.9475 29.7205 60.7406 29.6419C60.5338 29.5633 60.2842 29.6419 60.0345 29.6848C59.8277 29.6848 59.6208 29.8133 59.414 29.8491C59.1215 29.9348 58.8719 30.0991 58.6294 30.2633C58.9218 30.1419 59.2071 30.0991 59.5424 30.0133C59.792 30.0205 59.9988 29.9633 60.2485 30.0205" fill="#808080"/>
<path d="M24.2655 72.3335V56.9335H28.9735C32.3615 56.9335 34.4515 58.6715 34.4515 61.5315C34.4515 63.4015 33.5495 64.7875 31.9655 65.5135L36.7836 72.3335H33.1095L28.9955 66.1075H27.3895V72.3335H24.2655ZM29.1495 59.5295H27.3895V63.5115H29.1495C30.4695 63.5115 31.2395 62.7415 31.2395 61.4875C31.2395 60.3215 30.4695 59.5295 29.1495 59.5295ZM44.9664 55.6135H42.1284L44.6144 52.6434H47.8264L44.9664 55.6135ZM39.0924 72.3335V56.9335H48.0684V59.5295H42.2164V63.1815H47.1884V65.7775H42.2164V69.7375H48.0684V72.3335H39.0924ZM52.0286 72.3335V56.9335H57.1106C60.4986 56.9335 62.5666 58.6715 62.5666 61.5315C62.5666 64.3695 60.4986 66.1075 57.1106 66.1075H55.1526V72.3335H52.0286ZM57.2426 59.5295H55.1526V63.5115H57.2426C58.5626 63.5115 59.3546 62.7415 59.3546 61.4875C59.3546 60.3215 58.5626 59.5295 57.2426 59.5295ZM74.5623 66.5695V56.9335H77.6863V66.3055C77.6863 70.3535 75.3103 72.7735 71.4383 72.7735C67.5883 72.7735 65.2123 70.3535 65.2123 66.3055V56.9335H68.3363V66.5695C68.3363 68.6375 69.5023 69.8475 71.4603 69.8475C73.3743 69.8475 74.5623 68.6375 74.5623 66.5695ZM81.8971 72.3335V56.9335H86.4291C89.6411 56.9335 91.5991 58.5175 91.5991 61.1135C91.5991 62.3675 91.0271 63.4455 89.9491 64.1495C91.5771 64.8755 92.4791 66.1955 92.4791 67.8015C92.4791 70.6175 90.3011 72.3335 86.7591 72.3335H81.8971ZM86.4951 59.5295H85.0211V63.0055H86.4951C87.6831 63.0055 88.3871 62.3675 88.3871 61.2455C88.3871 60.1675 87.6831 59.5295 86.4951 59.5295ZM86.9351 65.6015H85.0211V69.7375H86.9351C88.3871 69.7375 89.2671 68.9675 89.2671 67.6695C89.2671 66.3495 88.3871 65.6015 86.9351 65.6015ZM96.0149 72.3335V56.9335H99.1389V69.4955H104.991V72.3335H96.0149ZM108.07 72.3335V56.9335H111.194V72.3335H108.07ZM128.743 71.9375C129.931 73.0155 130.987 73.4115 131.977 73.4115C132.307 73.4115 132.747 73.3675 133.077 73.2355V75.8755C132.571 76.0735 132.131 76.1615 131.449 76.1615C129.733 76.1615 128.149 75.4575 126.631 74.1375L124.805 72.5095C124.145 72.6855 123.441 72.7735 122.693 72.7735C117.831 72.7735 114.509 69.0335 114.509 64.6335C114.509 60.2335 117.831 56.4935 122.693 56.4935C127.533 56.4935 130.855 60.2335 130.855 64.6335C130.855 67.2075 129.711 69.5615 127.819 71.0575L128.743 71.9375ZM122.693 69.8475C125.575 69.8475 127.643 67.5815 127.643 64.6335C127.643 61.6855 125.575 59.4195 122.693 59.4195C119.789 59.4195 117.721 61.6855 117.721 64.6335C117.721 67.5815 119.789 69.8475 122.693 69.8475ZM143.261 66.5695V56.9335H146.385V66.3055C146.385 70.3535 144.009 72.7735 140.137 72.7735C136.287 72.7735 133.911 70.3535 133.911 66.3055V56.9335H137.035V66.5695C137.035 68.6375 138.201 69.8475 140.159 69.8475C142.073 69.8475 143.261 68.6375 143.261 66.5695ZM150.596 72.3335V56.9335H159.572V59.5295H153.72V63.1815H158.692V65.7775H153.72V69.7375H159.572V72.3335H150.596ZM24.2655 94.3335V78.9335H33.2415V81.5295H27.3895V85.1815H32.3615V87.7775H27.3895V94.3335H24.2655ZM36.3209 94.3335V78.9335H41.0289C44.4169 78.9335 46.5069 80.6715 46.5069 83.5315C46.5069 85.4015 45.6049 86.7875 44.0209 87.5135L48.8389 94.3335H45.1649L41.0509 88.1075H39.4449V94.3335H36.3209ZM41.2049 81.5295H39.4449V85.5115H41.2049C42.5249 85.5115 43.2949 84.7415 43.2949 83.4875C43.2949 82.3215 42.5249 81.5295 41.2049 81.5295ZM49.8777 94.3335L55.7077 78.9335H59.7997L65.6298 94.3335H62.3077L60.8337 90.3295H54.6737L53.1997 94.3335H49.8777ZM55.6417 87.6675H59.8657L57.7537 81.8815L55.6417 87.6675ZM68.3378 94.3335V78.9335H72.3418L79.2278 90.0655V78.9335H82.3519V94.3335H78.3478L71.4618 83.2015V94.3335H68.3378ZM93.8529 91.8475C95.6129 91.8475 96.9989 90.9895 97.8789 89.7355L100.343 91.6275C99.1549 93.2555 97.3069 94.3995 95.0629 94.6855L93.1489 97.8755H90.3769L92.3129 94.6415C88.3089 93.9375 85.6689 90.5495 85.6689 86.6335C85.6689 82.2335 88.9909 78.4935 93.8529 78.4935C96.6469 78.4935 98.9349 79.7475 100.343 81.6175L97.8789 83.5315C96.9989 82.2775 95.6129 81.4195 93.8529 81.4195C90.9489 81.4195 88.8809 83.6855 88.8809 86.6335C88.8809 89.5815 90.9489 91.8475 93.8529 91.8475ZM101.341 94.3335L107.171 78.9335H111.263L117.093 94.3335H113.771L112.297 90.3295H106.137L104.663 94.3335H101.341ZM107.105 87.6675H111.329L109.217 81.8815L107.105 87.6675ZM119.801 94.3335V78.9335H122.925V94.3335H119.801ZM126.173 92.1995L128.439 90.1095C129.363 91.2975 130.595 92.0015 131.849 92.0015C133.081 92.0015 133.829 91.3415 133.829 90.2415C133.829 87.4035 126.833 88.1735 126.833 82.9595C126.833 80.5175 128.857 78.4935 131.805 78.4935C134.115 78.4935 135.875 79.5275 137.195 81.0895L134.907 83.1575C134.005 81.9915 132.993 81.2215 131.827 81.2215C130.727 81.2215 130.001 81.9255 130.001 82.8495C130.001 85.6435 136.997 84.8515 136.997 90.1315C136.953 93.0355 134.709 94.7735 131.871 94.7735C129.275 94.7735 127.537 93.8275 126.173 92.1995ZM140.603 94.3335V78.9335H149.579V81.5295H143.727V85.1815H148.699V87.7775H143.727V91.7375H149.579V94.3335H140.603Z" fill="#161616"/>
<path fill-rule="evenodd" clip-rule="evenodd" d="M79.163 133.126L77.1167 134.996H76.5886L77.7988 132.862H79.163V133.126ZM77.6888 140.363H77.2488C76.6987 141.023 76.0826 141.551 75.4885 141.551C74.8724 141.551 74.5644 141.177 74.5644 140.363C74.5644 140.033 74.6084 139.681 74.6744 139.373L78.2609 138.185C78.965 136.513 78.1289 135.787 77.1387 135.787C75.4445 135.787 73.5082 138.757 73.5082 141.133C73.5082 142.255 74.0363 142.871 74.8724 142.871C75.8405 142.849 76.8527 141.903 77.6888 140.363ZM76.458 136.756C76.9421 136.756 77.3601 137.13 77.1401 137.988L74.9178 138.582C75.2698 137.526 75.9299 136.756 76.458 136.756ZM69.462 136.799H70.6502L68.7579 141.991C68.5819 142.431 68.8239 142.871 69.286 142.871C70.6282 142.871 72.2344 141.727 72.8505 140.099H72.5204C72.0364 140.781 70.9802 141.529 70.1881 141.661L71.9264 136.799H73.7086L73.9287 136.051H72.1904L72.8505 134.181H72.1684L70.9362 136.051L69.462 136.249V136.799ZM67.8105 135.81C68.0526 135.81 68.3826 136.074 68.2286 136.558L66.0943 141.728C66.6444 141.64 67.2165 141.112 67.5465 140.628H67.8986C67.3925 141.926 66.2483 142.872 65.2582 142.872C65.0161 142.872 64.6641 142.608 64.8401 142.124L66.8204 136.954C66.2703 137.042 65.6982 137.57 65.3682 138.054H65.0381C65.5442 136.734 66.7764 135.81 67.8105 135.81ZM68.4281 134.49C68.8682 134.49 69.2422 134.138 69.2422 133.676C69.2422 133.236 68.8682 132.862 68.4281 132.862C67.966 132.862 67.614 133.236 67.614 133.676C67.614 134.116 67.988 134.49 68.4281 134.49ZM58.8124 138.78C59.2964 137.724 59.1204 137.24 58.8124 137.24C58.5483 137.24 58.2403 137.526 57.9322 138.054H57.6022C58.1083 136.932 58.7684 135.81 59.4945 135.81C60.1106 135.81 60.3306 136.426 60.3306 137.108V138.076C60.4296 137.961 60.526 137.848 60.6202 137.737L60.622 137.735L60.6233 137.734C61.5529 136.643 62.2626 135.81 63.081 135.81C63.7191 135.81 64.0491 136.206 64.0491 136.8C64.0491 137.152 63.9391 137.592 63.6971 138.054L61.8708 141.728C62.4209 141.64 62.993 141.112 63.323 140.628H63.6531C63.147 141.948 61.9148 142.872 60.8807 142.872C60.4186 142.872 60.1546 142.388 60.3526 141.992L62.4649 137.922C62.7069 137.46 62.7509 137.152 62.3769 137.152C61.8708 137.152 60.6826 137.988 60.0446 138.758L58.6583 142.41C58.5043 142.784 58.3503 142.872 57.9983 142.872C57.4262 142.872 57.1401 142.498 57.4042 141.904L58.8124 138.78ZM57.3805 137.371C57.6226 136.535 57.4905 135.787 56.8525 135.787C56.0567 135.787 55.8075 136.313 55.0363 137.939L54.9822 138.053V137.085C54.9822 136.403 54.7621 135.787 54.1461 135.787C53.4199 135.787 52.7599 136.909 52.2538 138.031H52.5838C52.9359 137.525 53.2659 137.217 53.53 137.217C53.838 137.217 54.014 137.701 53.53 138.757L52.1218 141.881C51.8577 142.475 52.1438 142.849 52.7158 142.849C53.0679 142.849 53.2219 142.761 53.3759 142.387L54.7621 138.735C55.1582 138.251 55.5103 137.833 55.9503 137.371H57.3805ZM50.428 137.988C50.648 137.13 50.23 136.756 49.7459 136.756C49.2178 136.756 48.5577 137.526 48.2057 138.582L50.428 137.988ZM50.9767 140.363H50.5367C49.9866 141.023 49.3705 141.551 48.7764 141.551C48.1603 141.551 47.8523 141.177 47.8523 140.363C47.8523 140.033 47.8963 139.681 47.9623 139.373L51.5488 138.185C52.2529 136.513 51.4168 135.787 50.4266 135.787C48.7324 135.787 46.7961 138.757 46.7961 141.133C46.7961 142.255 47.3242 142.871 48.1603 142.871C49.1285 142.849 50.1406 141.903 50.9767 140.363ZM43.9381 136.799H42.7499V136.249L44.2241 136.051L45.4563 134.181H46.1384L45.4783 136.051H47.2166L46.9965 136.799H45.2143L43.476 141.661C44.2681 141.529 45.3243 140.781 45.8084 140.099H46.1384C45.5223 141.727 43.9161 142.871 42.5739 142.871C42.1118 142.871 41.8698 142.431 42.0458 141.991L43.9381 136.799ZM36.4581 140.825C36.4581 139.219 38.2404 137.064 39.2305 137.064C39.4505 137.064 39.6706 137.086 39.8466 137.152L38.8124 139.923C38.2184 140.649 37.2942 141.529 36.8541 141.529C36.6121 141.529 36.4581 141.309 36.4581 140.825ZM41.3654 135.458L41.9154 135.502L40.0012 139.901C39.5391 140.957 39.7371 141.441 40.0012 141.441C40.2652 141.441 40.5953 141.133 40.9473 140.627H41.2774C40.7713 141.749 40.1112 142.871 39.3851 142.871C38.769 142.871 38.3949 142.211 38.5049 141.023L38.5489 140.605L38.4291 140.773C37.6409 141.874 36.9277 142.871 36.1946 142.871C35.5565 142.871 35.2265 142.475 35.2265 141.881C35.2265 139.329 38.0209 136.074 40.6393 136.074H40.7493L41.3654 135.458ZM36.3252 137.371C36.5673 136.535 36.4353 135.787 35.7972 135.787C35.0014 135.787 34.7522 136.313 33.9811 137.939L33.9269 138.053V137.085C33.9269 136.403 33.7069 135.787 33.0908 135.787C32.3647 135.787 31.7046 136.909 31.1985 138.031H31.5285C31.8806 137.525 32.2106 137.217 32.4527 137.217C32.7607 137.217 32.9367 137.701 32.4527 138.757L31.0445 141.903C30.7804 142.497 31.0665 142.871 31.6386 142.871C31.9906 142.871 32.1446 142.783 32.2987 142.409L33.6849 138.757C34.0809 138.273 34.433 137.855 34.873 137.393H36.3252V137.371ZM27.2583 142.209L27.1263 142.605H21.9995L22.1315 142.187C23.7158 141.901 23.9798 141.769 24.6399 139.988L26.0701 136.16C26.7082 134.378 26.5762 134.246 25.19 133.96L25.322 133.564H31.989L31.5929 135.698H31.1089C31.1089 134.422 30.9768 134.092 29.7667 134.092H29.4586C28.2704 134.092 28.1164 134.268 27.7864 135.192L26.8402 137.766H28.2264C29.1506 137.766 29.5026 137.194 29.9207 136.446H30.4048L29.2606 139.57H28.7765C28.8865 138.624 28.8865 138.25 28.0284 138.25H26.6422L26.0041 140.01C25.3143 141.841 25.5114 141.879 27.1539 142.19C27.1881 142.196 27.2229 142.203 27.2583 142.209Z" fill="black"/>
<path fill-rule="evenodd" clip-rule="evenodd" d="M31.6149 116.296L29.5686 117.771V117.793H29.0405L30.2507 116.032H31.6149V116.296ZM45.9195 126.619L49.198 117.903L49.088 117.771L46.8216 118.035V118.299L47.2617 118.629C47.6374 118.921 47.5379 119.194 47.2262 120.048L47.1737 120.192L44.6652 126.883C44.4672 127.279 44.7312 127.764 45.1933 127.764C46.2275 127.764 47.3277 126.817 47.8338 125.519H47.5037C47.1517 126.003 46.4475 126.531 45.9195 126.619ZM60.9466 119.906L62.993 118.035V117.771H61.6287L60.4185 119.906H60.9466ZM61.0772 125.254H61.5173C60.7031 126.817 59.6909 127.764 58.7228 127.764C57.8866 127.764 57.3585 127.147 57.3585 126.025C57.3585 123.648 59.2949 120.676 60.9892 120.676C61.9573 120.676 62.8155 121.402 62.1114 123.075L58.5027 124.264C58.4367 124.572 58.3927 124.924 58.3927 125.254C58.3927 126.069 58.7008 126.443 59.3169 126.443C59.911 126.443 60.5271 125.915 61.0772 125.254ZM60.9661 122.877C61.1861 122.041 60.7681 121.667 60.284 121.667C59.7779 121.667 59.1178 122.437 58.7437 123.472L60.9661 122.877ZM54.4969 121.71H53.3087V121.16L54.783 120.962L56.0152 119.091H56.6973L56.0372 120.962H57.7755L57.5555 121.71H55.7731L54.0348 126.575C54.827 126.442 55.8832 125.694 56.3672 125.012H56.6973C56.0812 126.641 54.4749 127.785 53.1327 127.785C52.6706 127.785 52.4285 127.345 52.6046 126.905L54.4969 121.71ZM52.0763 121.446C52.2084 120.962 51.9003 120.698 51.6363 120.698C50.6021 120.698 49.3699 121.644 48.8638 122.943H49.1938C49.5239 122.458 50.096 121.93 50.6461 121.842L48.6657 127.015C48.4897 127.499 48.8418 127.763 49.0838 127.763C50.074 127.763 51.2182 126.817 51.7243 125.518H51.3942C51.0642 126.002 50.4921 126.53 49.942 126.619L52.0763 121.446ZM53.0901 118.585C53.0901 119.025 52.7161 119.399 52.276 119.399C51.8359 119.399 51.4619 119.025 51.4619 118.585C51.4619 118.145 51.8139 117.771 52.276 117.771C52.7161 117.771 53.0901 118.145 53.0901 118.585ZM41.9805 121.975C40.9903 121.975 39.208 124.132 39.208 125.739C39.208 126.223 39.362 126.443 39.6261 126.443C40.0441 126.443 40.9683 125.563 41.5624 124.836L42.5966 122.063C42.3985 121.997 42.2005 121.975 41.9805 121.975ZM44.6655 120.412L44.1154 120.368L43.4993 120.984H43.3893C40.7708 120.984 37.9763 124.242 37.9763 126.795C37.9763 127.389 38.3064 127.786 38.9445 127.786C39.6776 127.786 40.3909 126.788 41.1791 125.686L41.2989 125.519L41.2549 125.937C41.1449 127.125 41.5189 127.786 42.135 127.786C42.8612 127.786 43.5213 126.663 44.0274 125.541H43.6973C43.3453 126.047 43.0152 126.355 42.7512 126.355C42.4871 126.355 42.2891 125.871 42.7512 124.814L44.6655 120.412ZM33.5743 127.544C32.6281 127.918 31.968 128.358 31.968 129.04C31.968 129.679 32.5621 129.943 33.7943 129.943C35.4446 129.943 36.3468 129.459 36.3468 128.82C36.3468 128.534 35.9727 128.402 34.9825 128.072C34.3444 127.874 33.8823 127.698 33.5743 127.544ZM34.673 124.836C34.233 124.836 34.0789 124.462 34.0789 124.066C34.0789 122.789 34.695 121.205 35.6852 121.205C36.1253 121.205 36.2793 121.579 36.2793 121.975C36.2573 123.274 35.6412 124.836 34.673 124.836ZM35.5114 126.905C36.7216 127.279 37.4698 127.566 37.4698 128.402C37.4698 129.48 35.4894 130.757 33.091 130.735C31.7047 130.735 30.5165 130.361 30.5165 129.458C30.5165 128.6 31.3087 127.896 33.245 127.323C32.981 127.147 32.8709 126.927 32.8709 126.619C32.8709 126.091 33.355 125.673 34.1912 125.276C33.377 125.166 32.8489 124.55 32.8489 123.648C32.8489 122.261 33.9931 120.676 35.7975 120.676C36.1715 120.676 36.5016 120.764 36.7656 120.94H38.746L38.5259 121.689H37.3597C37.4257 121.887 37.4698 122.107 37.4698 122.349C37.4698 123.692 36.3916 125.232 34.6753 125.32C34.2352 125.563 34.0151 125.893 34.0151 126.157C34.0151 126.468 34.3751 126.573 35.1706 126.805C35.2764 126.836 35.39 126.869 35.5114 126.905ZM28.5347 123.141C29.3928 123.141 29.4148 123.516 29.2828 124.462H29.7669L30.9111 121.337H30.427C30.0089 122.085 29.6569 122.657 28.7327 122.657H26.8404L27.7645 120.082C28.0946 119.157 28.2486 118.981 29.4368 118.981H30.273C31.4832 118.981 31.6152 119.312 31.6152 120.588H32.0993L32.4954 118.453H25.3221L25.1901 118.849C26.5763 119.135 26.7083 119.268 26.0702 121.05L24.64 124.902C23.9799 126.685 23.7158 126.817 22.1095 127.103L21.9995 127.522H29.9649L31.3952 125.255H30.8451C29.9209 126.157 28.9968 126.993 27.1924 126.993C25.2078 126.993 25.2432 126.896 25.8386 125.26C25.877 125.155 25.9176 125.043 25.9602 124.924L26.6203 123.163H28.5347V123.141Z" fill="black"/>
<path fill-rule="evenodd" clip-rule="evenodd" d="M35.1072 104.294C35.5471 104.294 35.9211 103.92 35.9211 103.481C35.9211 103.041 35.5471 102.667 35.1072 102.667C34.6453 102.667 34.2934 103.041 34.2934 103.481C34.2934 103.942 34.6453 104.294 35.1072 104.294ZM41.6203 107.064C41.6203 106.009 41.3564 105.613 40.6085 105.613C39.6847 105.613 38.8269 106.603 37.969 107.79L39.8167 102.842L39.7067 102.688L37.4411 102.952V103.216L37.881 103.546C38.2641 103.844 38.153 104.142 37.8268 105.017L37.7931 105.107L35.7914 110.341C35.6155 110.781 35.4175 111.308 35.4175 111.44C35.4175 112.056 36.2534 112.65 37.0232 112.65C38.7389 112.672 41.6203 109.505 41.6203 107.064ZM60.6907 104.821L62.7363 102.952V102.688H61.3725L60.1628 104.821H60.6907ZM60.8231 110.165H61.2631C60.4272 111.726 59.4154 112.672 58.4476 112.65C57.6118 112.65 57.0839 112.056 57.0839 110.935C57.0839 108.56 59.0195 105.591 60.7132 105.591C61.681 105.591 62.5388 106.317 61.835 107.988L58.2496 109.175C58.1837 109.483 58.1397 109.835 58.1397 110.165C58.1397 110.979 58.4476 111.353 59.0635 111.353C59.6574 111.353 60.2733 110.825 60.8231 110.165ZM60.711 107.79C60.931 106.955 60.5131 106.581 60.0292 106.581C59.5013 106.581 58.8414 107.35 58.4895 108.384L60.711 107.79ZM54.2198 106.626H53.0321V106.076L54.5058 105.878L55.7375 104.009H56.4194L55.7595 105.878H57.4972L57.2772 106.626H55.4956L53.7579 111.486C54.5498 111.354 55.6056 110.606 56.0895 109.924H56.4194C55.8035 111.552 54.1978 112.695 52.8561 112.695C52.3942 112.695 52.1522 112.255 52.3282 111.816L54.2198 106.626ZM52.4203 107.198C52.6623 106.362 52.5303 105.614 51.8924 105.614C51.0969 105.614 50.8478 106.14 50.0769 107.765L50.0228 107.879V106.912C50.0228 106.23 49.8028 105.614 49.187 105.614C48.4611 105.614 47.8012 106.736 47.2953 107.857H47.6253C47.9772 107.352 48.3071 107.044 48.5491 107.044C48.857 107.044 49.033 107.527 48.5491 108.583L47.1414 111.706C46.8774 112.299 47.1633 112.673 47.7352 112.673C48.0872 112.673 48.2411 112.585 48.3951 112.211L49.7808 108.561C50.1768 108.077 50.5287 107.659 50.9686 107.198H52.4203ZM45.4482 107.79C45.6681 106.955 45.2502 106.581 44.7663 106.581C44.2384 106.581 43.6005 107.35 43.2266 108.384L45.4482 107.79ZM45.9967 110.165H45.5568C45.0069 110.825 44.391 111.353 43.7971 111.353C43.1813 111.353 42.8733 110.979 42.8733 110.165C42.8733 109.835 42.9173 109.483 42.9833 109.175L46.5686 107.988C47.2725 106.317 46.4366 105.591 45.4468 105.591C43.7531 105.591 41.8175 108.56 41.8175 110.935C41.8175 112.056 42.3454 112.65 43.1813 112.65C44.1491 112.672 45.1609 111.726 45.9967 110.165ZM36.7601 111.001C36.7601 111.287 37.266 111.617 37.618 111.617C39.0477 111.617 40.3894 109.044 40.3674 107.615C40.3674 107.131 40.1255 106.933 39.7955 106.933C39.2676 106.933 38.2998 107.725 37.6839 108.473L37.1121 110.012C36.9141 110.518 36.7601 110.913 36.7601 111.001ZM34.451 105.614C34.7149 105.614 35.0229 105.878 34.8909 106.362L32.7793 111.53C33.3292 111.442 33.9011 110.914 34.231 110.43H34.5609C34.055 111.728 32.9113 112.673 31.9214 112.673C31.6575 112.673 31.3056 112.409 31.4815 111.926L33.4611 106.758C32.9113 106.846 32.3394 107.374 32.0094 107.857H31.6795C32.1854 106.56 33.4172 105.614 34.451 105.614ZM25.3209 103.327H30.05L29.918 103.745C28.3123 104.031 28.0484 104.163 27.3885 105.944L25.9807 109.814C25.2989 111.662 25.4748 111.881 26.6846 111.881C28.1793 111.881 29.1593 110.795 30.0151 109.847C30.0787 109.777 30.1416 109.707 30.2039 109.638H30.7538L29.1921 112.409H21.9995L22.1315 112.013C23.7152 111.728 23.9791 111.596 24.639 109.814L26.0687 105.922C26.7066 104.141 26.5746 104.009 25.1889 103.723L25.3209 103.327Z" fill="black"/>
</svg>
