<svg width="934" height="130" viewBox="0 0 934 130" fill="none" xmlns="http://www.w3.org/2000/svg">
<path d="M0 0H244.558V74.613H0V0Z" fill="white"/>
<path d="M195.292 129.916C195.158 129.867 195.149 129.733 195.263 129.441C195.405 129.07 195.473 129.04 196.025 129.106C196.523 129.168 196.671 129.125 196.873 128.854C197.277 128.337 196.967 127.963 196.227 128.086C195.661 128.181 195.661 128.175 195.769 127.788C196.106 126.556 196.133 126.625 195.123 126.442C193.881 126.214 192.739 125.611 191.85 124.714C190.504 123.368 190.046 122.007 190.18 119.818C190.248 118.704 190.342 118.269 190.733 117.493C191.918 115.121 194.638 113.913 198.301 114.128C199.095 114.175 200.092 114.298 200.536 114.399L201.33 114.582L201.411 117.221H200.926C200.644 117.221 200.442 117.142 200.442 117.038C200.442 116.659 199.459 115.797 198.772 115.562C197.883 115.248 196.159 115.326 195.284 115.705C193.305 116.568 192.402 118.802 193.008 121.363C193.291 122.538 193.749 123.335 194.624 124.158C195.459 124.929 196.308 125.243 197.573 125.243C198.907 125.243 199.836 124.759 200.428 123.753C200.832 123.074 200.967 122.983 201.357 123.205C201.532 123.309 201.532 123.544 201.371 124.629L201.169 125.935L200.442 126.157C200.038 126.275 199.122 126.419 198.408 126.471C197.156 126.549 197.089 126.576 197.089 126.889C197.089 127.137 197.183 127.229 197.452 127.229C197.977 127.229 198.476 127.595 198.597 128.078C198.731 128.64 198.287 129.463 197.708 129.737C197.291 129.933 195.648 130.012 195.23 129.855L195.292 129.916ZM100.687 129.313C99.314 128.947 98.129 128.394 96.701 127.457L95.476 126.645L93.577 126.556C91.463 126.458 90.723 126.245 89.362 125.338C86.346 123.342 86.238 118.259 89.16 115.788C91.369 113.923 95.234 113.54 98.008 114.906C101.765 116.75 102.169 122.192 98.748 125.044C98.223 125.486 97.711 125.848 97.604 125.848C97.281 125.848 101.024 127.694 102.115 128.072C103.327 128.49 104.727 128.545 105.764 128.215C106.518 127.976 106.653 128.006 106.774 128.44C106.855 128.695 106.72 128.802 105.966 129.119C104.768 129.621 102.263 129.714 100.755 129.313H100.687ZM96.028 124.878C98.694 123.624 99.206 119.604 97.025 117.037C95.005 114.659 91.463 115.018 90.13 117.738C88.932 120.194 90.305 123.994 92.756 125C93.752 125.405 95.018 125.361 96.042 124.878H96.028ZM12.456 126.365C11.729 126.078 10.926 125.183 9.66103 123.243C7.71503 120.258 7.35003 119.819 6.80603 119.819H6.33403L6.33803 121.436C6.34503 124.382 6.67503 125.389 7.70303 125.623C7.97703 125.685 8.08503 125.809 8.08503 126.065V126.421H1.56703V126.095C1.56703 125.847 1.68903 125.729 2.06603 125.624C2.34203 125.559 2.71703 125.311 2.90103 125.089C3.22803 124.697 3.23503 124.553 3.23503 119.118C3.23503 113.683 3.22803 113.539 2.90103 113.147C2.71703 112.925 2.34203 112.69 2.06603 112.611C1.70203 112.52 1.56703 112.402 1.56703 112.167C1.56703 111.854 1.58403 111.854 5.60503 111.762C9.88403 111.671 10.827 111.736 12.033 112.272C13.086 112.729 13.966 114.127 13.967 115.342C13.97 116.74 12.822 118.308 11.307 118.987L10.513 119.34L12.268 121.705C14.328 124.501 14.974 125.246 15.58 125.533C16.146 125.794 16.2 126.382 15.675 126.5C15.028 126.657 12.941 126.591 12.456 126.395V126.365ZM8.48003 118.369C10.611 117.834 11.33 115.163 9.71803 113.77C8.95903 113.117 8.15403 112.878 7.12503 113.006L6.34403 113.104V118.529H7.09803C7.51503 118.529 8.14803 118.457 8.48503 118.369H8.48003ZM45.115 126.365C44.244 126.086 43.423 125.585 42.988 125.072C42.197 124.135 42.113 123.644 42.104 119.839C42.094 115.862 42.01 115.423 41.202 115.086C40.879 114.95 40.688 114.766 40.685 114.583C40.682 114.309 40.787 114.295 43.385 114.295C46.082 114.295 46.089 114.295 46.089 114.619C46.089 114.836 45.995 114.942 45.798 114.942C45.639 114.942 45.335 115.109 45.122 115.312L44.737 115.683V119.582C44.737 123.25 44.756 123.514 45.067 124.047C45.552 124.884 46.521 125.311 47.763 125.244C49.096 125.171 49.823 124.744 50.348 123.708C50.752 122.913 50.766 122.874 50.766 119.383C50.766 116.261 50.739 115.819 50.483 115.477C50.321 115.264 50.025 115.049 49.81 115.001C49.554 114.945 49.406 114.809 49.406 114.639C49.406 114.387 49.554 114.369 51.547 114.369C53.54 114.369 53.688 114.387 53.688 114.639C53.688 114.809 53.54 114.945 53.298 115C52.557 115.156 52.503 115.47 52.422 119.612L52.341 123.492L51.857 124.328C51.291 125.321 50.375 126.014 49.204 126.327C48.207 126.589 45.878 126.602 45.083 126.34L45.115 126.365ZM107.13 126.365C106.249 126.083 105.436 125.584 104.986 125.051C104.236 124.162 104.128 123.509 104.119 119.762C104.105 115.869 104.011 115.424 103.216 115.085C102.88 114.95 102.691 114.766 102.691 114.583C102.678 114.309 102.785 114.295 105.384 114.295C108.051 114.295 108.078 114.299 108.078 114.609C108.078 114.818 107.956 114.936 107.728 114.968C107.539 114.994 107.229 115.196 107.054 115.419C106.744 115.798 106.718 116.033 106.664 119.179C106.596 123.043 106.718 123.857 107.445 124.527C108.751 125.742 111.485 125.402 112.252 123.939C112.737 123.011 112.858 121.862 112.804 118.817C112.737 115.603 112.629 115.198 111.794 115.015C111.538 114.963 111.39 114.832 111.39 114.663C111.39 114.414 111.538 114.401 113.531 114.401C115.524 114.401 115.686 114.427 115.686 114.676C115.686 114.846 115.497 115.015 115.215 115.12C114.959 115.224 114.689 115.407 114.622 115.538C114.555 115.669 114.461 117.524 114.407 119.667L114.312 123.56L113.828 124.409C113.262 125.402 112.346 126.095 111.161 126.408C110.165 126.683 107.835 126.696 107.041 126.434L107.13 126.365ZM157.462 126.361C156.826 126.11 156.071 125.261 154.901 123.48C153.39 121.181 153.217 120.972 152.824 120.972C152.474 120.969 152.467 120.998 152.467 122.767C152.467 124.912 152.665 125.517 153.414 125.652C153.791 125.72 153.899 125.815 153.899 126.08V126.42H148.491V126.08C148.491 125.815 148.598 125.72 148.976 125.652C149.882 125.489 149.945 125.101 149.891 120.106L149.843 115.683L149.458 115.312C149.246 115.109 148.942 114.942 148.782 114.942C148.603 114.942 148.492 114.838 148.492 114.668C148.492 114.433 148.654 114.38 149.664 114.294C150.31 114.229 152.074 114.216 153.596 114.242C156.074 114.281 156.437 114.32 157.03 114.608C158.08 115.104 158.672 116.084 158.672 117.312C158.672 118.488 157.932 119.52 156.572 120.213C156.141 120.435 155.858 120.657 155.952 120.709C156.047 120.762 156.747 121.65 157.514 122.695C159.023 124.746 159.858 125.661 160.208 125.661C160.517 125.661 160.49 126.327 160.181 126.432C159.736 126.589 157.986 126.51 157.487 126.314L157.462 126.361ZM154.524 119.61C155.156 119.316 155.776 118.607 155.892 118.047C156.043 117.328 155.69 116.387 155.084 115.865C154.522 115.394 153.98 115.251 153.04 115.355L152.467 115.42V119.836H153.27C153.701 119.836 154.266 119.745 154.522 119.627L154.524 119.61ZM225.301 126.336C224.826 126.219 224.407 126.101 224.372 126.069C224.339 126.043 224.221 125.402 224.116 124.645L223.92 123.273H224.368C224.615 123.273 224.817 123.325 224.817 123.39C224.817 123.769 225.86 124.867 226.465 125.128C228.101 125.847 230.064 125.167 230.063 123.9C230.063 123.064 229.613 122.567 228.081 121.705C225.932 120.49 225.101 119.85 224.674 119.066C224.243 118.295 224.169 117.08 224.491 116.204C224.704 115.629 225.703 114.754 226.544 114.427C227.39 114.088 230.04 114.101 231.136 114.441L231.971 114.702V117.263H231.513C231.155 117.263 231.031 117.184 230.953 116.91C230.788 116.309 229.935 115.564 229.221 115.394C227.323 114.937 225.788 116.701 226.986 117.981C227.215 118.229 228.252 118.948 229.289 119.588C231.309 120.816 232.049 121.496 232.305 122.293C232.857 124.07 231.942 125.651 229.976 126.304C228.925 126.67 226.649 126.696 225.316 126.369L225.301 126.336ZM16.99 126.036C16.99 125.78 17.079 125.704 17.375 125.704C17.604 125.704 17.896 125.547 18.092 125.325C18.408 124.962 18.42 124.783 18.42 120.439C18.42 117.285 18.353 115.833 18.232 115.615C17.989 115.213 17.612 114.953 17.262 114.949C17.074 114.944 16.979 114.827 16.979 114.583V114.225H26.527V117.256L26.109 117.212C25.786 117.178 25.638 117.046 25.503 116.676C25.18 115.822 24.655 115.602 22.77 115.539L21.1 115.484V119.571L22.379 119.506C23.766 119.431 24.467 119.127 24.561 118.552C24.588 118.324 24.722 118.243 25.032 118.243H25.45V121.979H25.019C24.669 121.979 24.574 121.914 24.574 121.639C24.574 120.999 24.036 120.764 22.487 120.712L21.073 120.66V122.685C21.073 125.115 21.087 125.154 22.905 125.154C24.695 125.154 25.625 124.749 26.096 123.756C26.325 123.26 26.877 123.116 27.052 123.508C27.16 123.769 26.715 125.455 26.379 126.043L26.136 126.461L21.531 126.434L16.926 126.408V126.082L16.99 126.036ZM29.234 126.08C29.234 125.819 29.341 125.721 29.691 125.656C30.526 125.504 30.567 125.29 30.621 120.682C30.674 115.883 30.607 115.45 29.732 115.086C29.368 114.934 29.22 114.772 29.207 114.535V114.197L32.816 114.258C36.721 114.323 37.044 114.388 38.108 115.185C39.266 116.074 39.576 117.837 38.781 119.144C38.094 120.294 36.896 120.895 35.011 121.065L34.014 121.156L33.772 120.607L33.516 120.059L34.095 119.98C34.835 119.889 35.643 119.458 36.074 118.935C36.317 118.648 36.411 118.334 36.398 117.785C36.371 116.387 35.509 115.538 33.987 115.42L33.125 115.355L33.166 120.15C33.22 125.376 33.246 125.52 34.135 125.69C34.458 125.755 34.566 125.86 34.566 126.121V126.461H29.166V126.121L29.234 126.08ZM55.627 126.028C55.627 125.806 55.721 125.704 55.923 125.704C56.085 125.704 56.395 125.58 56.597 125.43L56.974 125.155L57.014 120.708C57.068 115.73 57.001 115.354 56.085 115.043C55.789 114.945 55.6 114.776 55.6 114.625C55.6 114.392 55.816 114.363 58.024 114.332C62.656 114.264 63.639 114.311 64.394 114.64C65.363 115.068 65.821 115.686 65.902 116.692C65.929 117.145 65.915 117.674 65.861 117.868C65.7 118.429 64.959 119.119 64.138 119.462L63.37 119.778L64.017 119.951C64.7515 120.14 65.3914 120.591 65.8156 121.219C66.2398 121.848 66.4189 122.61 66.319 123.362C66.144 124.668 65.525 125.413 64.07 126.014C63.303 126.327 63.101 126.34 59.425 126.34H55.615V126.014L55.627 126.028ZM62.63 124.948C63.437 124.459 63.761 123.794 63.666 122.792C63.532 121.289 62.36 120.394 60.529 120.394H59.559L59.6 122.561C59.64 124.635 59.667 124.737 60.017 125C60.556 125.4 61.889 125.374 62.589 124.948H62.63ZM61.97 118.986C62.939 118.646 63.451 117.958 63.357 117.122C63.222 115.998 62.212 115.373 60.542 115.373H59.586V119.247L60.421 119.239C60.879 119.235 61.566 119.122 61.956 118.986H61.97ZM68.487 126.036C68.487 125.805 68.595 125.709 68.905 125.678C69.134 125.652 69.47 125.456 69.659 125.227C69.982 124.835 69.995 124.665 69.995 120.419C69.995 116.892 69.942 115.947 69.767 115.659C69.484 115.211 69.12 114.954 68.757 114.947C68.568 114.934 68.474 114.83 68.474 114.608C68.474 114.281 68.474 114.281 71.329 114.281C74.183 114.281 74.183 114.281 74.183 114.595C74.183 114.817 74.089 114.908 73.874 114.908C73.699 114.908 73.362 115.065 73.12 115.248L72.716 115.627L72.662 120.147L72.621 124.668L73.025 124.903C73.349 125.086 73.685 125.125 74.668 125.073C76.176 124.995 76.89 124.655 77.308 123.806C77.577 123.244 77.887 123.113 78.304 123.348C78.452 123.44 78.425 123.701 78.183 124.59C78.008 125.204 77.752 125.87 77.617 126.053L77.361 126.393L72.918 126.34L68.474 126.288V125.975L68.487 126.036ZM79.61 126.08C79.61 125.815 79.718 125.72 80.095 125.652C80.97 125.495 81.038 125.103 81.038 120.292C81.038 116.297 81.011 115.989 80.728 115.556C80.553 115.302 80.23 115.052 80.014 115.002C79.731 114.95 79.61 114.819 79.61 114.61C79.61 114.31 79.651 114.31 82.317 114.31C84.983 114.31 85.01 114.323 85.01 114.623C85.01 114.832 84.876 114.963 84.62 115.028C84.3494 115.113 84.1132 115.283 83.946 115.512C83.691 115.865 83.664 116.335 83.664 120.281C83.664 125.154 83.731 125.546 84.552 125.703C84.889 125.768 84.997 125.873 84.997 126.134V126.474H79.597V126.134L79.61 126.08ZM117.612 126.054C117.612 125.819 117.733 125.717 118.096 125.652C118.972 125.495 119.039 125.103 119.039 120.277C119.039 116.049 119.026 115.982 118.675 115.501C118.473 115.234 118.15 114.992 117.962 114.968C117.706 114.936 117.612 114.825 117.612 114.574V114.225H126.984V115.731C126.984 117.221 126.971 117.234 126.594 117.234C126.284 117.234 126.19 117.142 126.109 116.737C125.92 115.888 125.274 115.601 123.375 115.535L121.773 115.483L121.665 116.163C121.611 116.528 121.557 117.456 121.557 118.201V119.559L122.904 119.481C124.385 119.39 124.978 119.154 125.139 118.58C125.207 118.318 125.341 118.214 125.611 118.214H125.988V121.937H125.597C125.328 121.937 125.193 121.859 125.193 121.689C125.18 120.971 124.412 120.644 122.81 120.644H121.503L121.557 122.656C121.625 125.099 121.611 125.086 123.51 125.086C125.193 125.086 126.068 124.72 126.526 123.832C126.755 123.375 126.93 123.218 127.186 123.218C127.375 123.218 127.59 123.283 127.644 123.375C127.792 123.584 127.078 125.922 126.796 126.171C126.607 126.34 125.799 126.367 122.055 126.34L117.544 126.314V126.001L117.612 126.054ZM135.104 126.088C135.104 125.853 135.252 125.696 135.602 125.55C135.885 125.438 136.249 125.163 136.437 124.94C136.76 124.548 136.76 124.371 136.76 119.128C136.76 113.04 136.747 112.975 135.643 112.648C135.212 112.517 135.077 112.4 135.077 112.125V111.773H146.2V115.366H145.715C145.325 115.366 145.231 115.3 145.231 115.039C145.231 114.503 144.638 113.785 143.992 113.536C143.615 113.393 142.753 113.275 141.622 113.236L139.831 113.171V118.083L141.137 118.07C142.888 118.057 143.48 117.861 143.857 117.182C144.099 116.737 144.234 116.633 144.611 116.633H145.082V120.957L144.571 120.905C144.221 120.866 144.032 120.762 143.978 120.566C143.722 119.716 142.753 119.337 140.814 119.337H139.79L139.858 121.885C139.925 124.786 140.06 125.217 141.016 125.517C141.433 125.648 141.568 125.779 141.568 126.027V126.353H135.05V126.027L135.104 126.088ZM160.542 126.062C160.542 125.801 160.622 125.704 160.851 125.704C161.336 125.704 161.888 124.809 163.1 122.085C164.716 118.432 166.251 114.72 166.251 114.455C166.251 114.276 166.413 114.225 167.005 114.228L167.759 114.23L169.901 119.191C172.23 124.578 172.661 125.415 173.2 125.632C173.415 125.717 173.55 125.897 173.55 126.096C173.55 126.423 173.55 126.423 170.843 126.423H168.136V126.08C168.136 125.819 168.244 125.72 168.608 125.654C169.295 125.532 169.335 125.114 168.81 123.695L168.352 122.476H164.595L164.218 123.482C163.733 124.749 163.76 125.611 164.285 125.69C164.541 125.729 164.635 125.833 164.635 126.082V126.434H160.501V126.082L160.542 126.062ZM167.854 121.038C167.854 120.829 166.682 117.955 166.588 117.955C166.521 117.955 166.359 118.229 166.224 118.569L165.551 120.15L165.147 121.117H166.494C167.234 121.117 167.84 121.091 167.84 121.052L167.854 121.038ZM174.694 126.082C174.694 125.833 174.802 125.729 175.125 125.664C175.987 125.507 176.014 125.311 176.081 120.62C176.149 115.786 176.081 115.381 175.152 115.068C174.87 114.976 174.668 114.806 174.668 114.65C174.668 114.427 174.843 114.401 176.459 114.401H178.236L179.273 115.59C179.839 116.244 181.306 117.837 182.532 119.144C183.404 120.07 184.266 121.007 185.117 121.953L185.481 122.384L185.427 119.144C185.373 115.616 185.279 115.251 184.43 115.055C184.175 115.002 184.026 114.859 184.026 114.689C184.026 114.441 184.175 114.414 186.168 114.414C188.188 114.414 188.309 114.441 188.309 114.702C188.309 114.885 188.174 115.002 187.959 115.028C187.77 115.055 187.46 115.264 187.285 115.486C186.962 115.878 186.949 116.074 186.895 121.195L186.841 126.5H186.141C185.508 126.5 185.387 126.448 184.915 125.899C184.484 125.415 177.751 117.877 177.495 117.615C177.455 117.576 177.455 119.157 177.495 121.13C177.563 125.141 177.67 125.611 178.425 125.755C178.775 125.82 178.882 125.912 178.882 126.173V126.513H174.6V126.173L174.694 126.082ZM202.515 126.069C202.515 125.86 202.596 125.716 202.731 125.716C203.041 125.716 203.633 125.05 204.051 124.2C204.63 123.037 207.35 116.701 207.821 115.42L208.252 114.231L209.679 114.336L211.78 119.222C212.938 121.914 214.015 124.331 214.177 124.605C214.527 125.246 215.052 125.755 215.322 125.755C215.443 125.755 215.537 125.912 215.537 126.121V126.487H210.124V126.121C210.124 125.873 210.205 125.768 210.407 125.768C211.174 125.768 211.241 125.167 210.662 123.586L210.245 122.476H206.515L206.178 123.443C205.545 125.272 205.572 125.781 206.326 125.781C206.542 125.781 206.623 125.886 206.623 126.147V126.513H202.489V126.147L202.515 126.069ZM209.262 119.654C208.952 118.844 208.669 118.086 208.616 117.968C208.562 117.837 208.239 118.386 207.821 119.34C207.431 120.215 207.121 120.973 207.121 121.025C207.121 121.091 207.713 121.143 208.454 121.143H209.787L209.235 119.68L209.262 119.654ZM216.507 126.082C216.507 125.807 216.588 125.729 216.87 125.729C217.072 125.729 217.382 125.598 217.544 125.428C217.813 125.154 217.84 124.814 217.88 120.66C217.907 118.203 217.894 116.048 217.84 115.878C217.732 115.473 217.14 114.976 216.776 114.976C216.574 114.976 216.48 114.872 216.48 114.663C216.48 114.349 216.48 114.349 219.173 114.349C221.772 114.349 221.88 114.362 221.88 114.636C221.88 114.819 221.705 115.002 221.408 115.107C221.153 115.211 220.883 115.473 220.789 115.682C220.56 116.23 220.425 120.712 220.573 123.129C220.668 124.814 220.735 125.219 220.991 125.468C221.153 125.637 221.422 125.768 221.583 125.768C221.785 125.768 221.866 125.873 221.866 126.134V126.5H216.466V126.134L216.507 126.082ZM234.309 126.056C234.309 125.807 234.403 125.729 234.699 125.729C234.928 125.729 235.211 125.572 235.413 125.35C235.723 124.984 235.736 124.814 235.736 120.464C235.736 117.315 235.682 115.865 235.548 115.643C235.305 115.251 234.928 114.989 234.578 114.976C234.39 114.976 234.295 114.859 234.295 114.61V114.258H243.829V117.289L243.412 117.25C243.102 117.223 242.954 117.093 242.819 116.714C242.51 115.865 241.985 115.643 240.086 115.577L238.416 115.525V119.575H239.413C240.786 119.562 241.459 119.34 241.756 118.765C241.931 118.425 242.092 118.308 242.389 118.308H242.779V122.031H242.375C242.012 122.031 241.931 121.966 241.931 121.692C241.931 121.052 241.406 120.816 239.843 120.764L238.43 120.712V122.724C238.43 125.154 238.456 125.193 240.274 125.193C242.065 125.193 242.995 124.788 243.466 123.795C243.695 123.299 244.247 123.155 244.422 123.547C244.53 123.808 244.085 125.494 243.749 126.082L243.506 126.5L238.901 126.474L234.295 126.448V126.108L234.309 126.056ZM21.29 112.95L20.903 112.679L21.849 111.386C22.369 110.667 22.895 110.079 23.02 110.079C23.556 110.079 25.269 110.406 25.226 110.51C25.14 110.717 22.002 113.241 21.839 113.237C21.752 113.237 21.505 113.114 21.291 112.963L21.29 112.95ZM1.09103 103.036H243.265V104.323H1.08803V103.032L1.09103 103.036ZM93.26 100.096C91.988 99.686 91.272 98.62 91.504 97.47C91.665 96.699 92.15 96.156 93.012 95.798L93.766 95.484L93.308 95.249C93.052 95.112 92.85 94.887 92.85 94.726C92.85 94.465 94.022 93.42 94.304 93.42C94.372 93.42 94.278 93.181 94.089 92.889C93.281 91.643 93.927 89.842 95.449 89.137C96.271 88.754 96.553 88.738 99.435 88.904C101.091 89.001 101.159 89.017 101.064 89.309C101.024 89.479 100.984 89.665 100.97 89.725C100.97 89.784 100.701 89.832 100.351 89.832H99.731L99.812 90.666C100.001 92.486 98.56 93.732 96.244 93.766C95.045 93.783 94.466 94.014 94.937 94.286C95.072 94.362 95.853 94.619 96.661 94.858C99.3 95.629 99.785 96.017 99.677 97.249C99.57 98.536 98.425 99.653 96.769 100.104C95.826 100.361 94.116 100.359 93.308 100.099L93.26 100.096ZM96.801 99.208C98.091 98.629 98.65 97.522 97.946 96.947C97.469 96.559 95.403 95.962 94.867 96.059C93.777 96.255 92.753 97.457 92.942 98.319C93.198 99.508 95.137 99.956 96.793 99.21L96.801 99.208ZM97.227 92.714C98.196 92.184 98.573 90.669 97.927 89.922C97.038 88.898 95.341 90.04 95.328 91.673C95.328 92.18 95.409 92.359 95.772 92.64C96.311 93.058 96.607 93.071 97.254 92.718L97.227 92.714ZM103.259 96.046C102.559 95.915 102.196 95.497 102.115 94.752C101.913 92.845 103.69 90.044 105.683 89.141C106.72 88.67 108.767 88.623 110.127 89.036C110.248 89.075 110.168 89.565 109.844 90.574C109.238 92.547 108.875 94.522 109.077 94.863C109.211 95.086 109.306 95.103 109.737 94.971C110.127 94.84 110.262 94.853 110.37 95.01C110.598 95.336 110.464 95.454 109.548 95.741C108.336 96.12 107.771 96.042 107.582 95.48L107.447 95.036L106.801 95.363C105.71 95.924 104.202 96.212 103.3 96.042L103.259 96.046ZM106.007 94.756C106.478 94.558 106.949 94.253 107.084 94.077C107.299 93.786 107.946 91.634 108.202 90.379C108.309 89.866 108.296 89.848 107.717 89.704C106.653 89.432 105.576 90.135 104.727 91.664C103.838 93.258 103.61 94.684 104.189 95.054C104.593 95.308 104.835 95.263 106.033 94.754L106.007 94.756ZM181.296 96.004C180.582 95.847 180.339 95.625 180.137 94.972C179.841 93.979 180.528 92.101 181.7 90.713C183.1 89.053 184.649 88.491 186.938 88.818C187.544 88.904 188.082 89.021 188.136 89.075C188.204 89.128 188.002 90.046 187.692 91.114C187.396 92.178 187.126 93.469 187.113 93.983L187.086 94.921L187.759 94.895C188.365 94.869 188.433 94.908 188.433 95.195C188.433 95.47 188.284 95.561 187.517 95.77C186.265 96.123 185.672 96.045 185.605 95.535C185.578 95.326 185.524 95.143 185.497 95.143C185.47 95.143 185.053 95.3 184.581 95.483C183.827 95.783 182.279 96.175 181.969 96.136C181.915 96.136 181.632 96.071 181.349 96.018L181.296 96.004ZM183.962 94.776C184.352 94.593 184.797 94.332 184.945 94.188C185.295 93.822 185.928 91.954 186.265 90.308C186.359 89.863 186.332 89.837 185.726 89.693C185.214 89.563 184.999 89.576 184.541 89.772C183.531 90.203 182.534 91.666 182.009 93.469C181.511 95.197 182.13 95.604 183.989 94.768L183.962 94.776ZM11.515 95.677C11.474 95.494 11.757 94.162 12.148 92.712C12.929 89.85 12.929 89.615 12.067 89.837C11.65 89.942 11.609 89.916 11.609 89.628C11.609 89.354 11.757 89.262 12.525 89.056C13.023 88.925 13.696 88.8 13.993 88.782C14.518 88.751 14.558 88.778 14.599 89.231C14.626 89.496 14.356 90.808 13.993 92.145C13.629 93.485 13.373 94.679 13.427 94.802C13.508 94.978 13.669 95.003 14.248 94.925C14.935 94.829 14.976 94.841 14.922 95.153C14.881 95.415 14.679 95.532 13.993 95.728C13.521 95.859 12.781 95.977 12.363 95.977C11.717 95.977 11.609 95.937 11.528 95.663L11.515 95.677ZM17.628 95.743L17.265 95.468L18.504 90.582C19.177 87.894 19.716 85.513 19.689 85.285C19.635 84.863 19.581 84.841 18.962 85.011C18.665 85.093 18.612 85.055 18.612 84.75C18.612 84.331 19.177 84.129 20.726 83.992C21.614 83.913 21.641 83.917 21.641 84.253C21.641 84.444 21.399 85.625 21.089 86.877C20.78 88.131 20.537 89.235 20.537 89.337C20.537 89.481 20.712 89.454 21.224 89.251C23.001 88.545 24.537 88.584 25.102 89.342C25.627 90.061 25.358 91.903 24.51 93.418C24.079 94.215 22.773 95.444 22.059 95.731C21.13 96.11 18.194 96.123 17.669 95.731L17.628 95.743ZM21.655 94.828C22.463 94.319 23.352 92.594 23.594 91.078C23.85 89.55 22.732 89.249 20.955 90.36C20.5863 90.5859 20.2951 90.9186 20.12 91.314C19.837 92.019 19.244 94.306 19.244 94.713C19.244 95.314 20.793 95.385 21.668 94.818L21.655 94.828ZM27.728 95.56C27.297 95.155 27.27 95.037 27.27 94.083C27.297 91.658 28.819 89.491 30.92 88.896C31.97 88.596 32.899 88.701 33.518 89.177C33.882 89.454 33.949 89.627 33.949 90.213C33.949 91.69 32.468 92.813 30.314 92.944C29.694 92.983 29.129 93.088 29.075 93.175C28.9 93.421 28.94 94.247 29.142 94.599C29.546 95.279 30.112 95.298 31.472 94.665C32.32 94.273 32.495 94.234 32.63 94.417C32.913 94.818 32.778 94.944 31.552 95.468C30.529 95.902 30.138 95.991 29.277 95.991C28.334 95.991 28.199 95.954 27.768 95.552L27.728 95.56ZM30.583 92.111C31.943 91.771 32.832 90.464 32.145 89.837C31.714 89.443 31.31 89.456 30.744 89.883C30.3 90.223 29.573 91.298 29.357 91.939C29.277 92.201 29.317 92.253 29.627 92.253C29.829 92.253 30.273 92.175 30.61 92.096L30.583 92.111ZM35.942 95.945C35.942 95.924 36.225 94.809 36.575 93.476C36.925 92.139 37.222 90.764 37.222 90.419V89.791L36.589 89.883C36.023 89.961 35.956 89.94 35.956 89.687C35.956 89.373 36.468 89.132 37.76 88.84C38.649 88.644 38.986 88.779 38.986 89.337V89.674L39.551 89.329C40.548 88.728 41.154 88.61 41.867 88.911C42.218 89.055 42.473 89.237 42.447 89.329C42.016 90.701 41.773 91.132 41.423 91.132C41.113 91.132 41.06 91.067 41.06 90.649C41.06 89.603 40.063 89.603 39.322 90.635C38.878 91.289 38.407 92.752 38.03 94.699C37.922 95.287 37.747 95.77 37.666 95.796C37.383 95.875 35.983 96.005 35.983 95.966L35.942 95.945ZM43.928 95.809C43.753 95.626 43.847 95.104 44.763 91.367L45.14 89.825H44.601C44.305 89.825 44.062 89.786 44.062 89.747C44.062 89.525 44.426 89.107 44.615 89.107C45.005 89.107 45.746 88.427 46.069 87.787C46.419 87.082 46.554 86.964 47.079 86.964C47.429 86.964 47.456 87.016 47.362 87.434C47.308 87.696 47.214 88.153 47.16 88.441L47.065 88.976H47.806C48.56 88.976 48.668 89.094 48.452 89.616C48.385 89.786 48.143 89.852 47.604 89.852C46.715 89.852 46.863 89.564 46.163 92.713C45.651 95.025 45.678 95.234 46.54 95.012C47.267 94.829 47.321 94.843 47.267 95.208C47.227 95.457 47.025 95.587 46.419 95.77C45.449 96.071 44.224 96.11 43.982 95.849L43.928 95.809ZM50.351 95.626C49.193 94.503 50.028 91.276 51.886 89.773C52.64 89.159 53.825 88.689 54.593 88.689C55.091 88.689 56.168 89.146 56.33 89.42C56.586 89.852 56.505 90.884 56.182 91.367C55.522 92.36 54.068 93 52.492 93H51.563V93.758C51.563 95.234 52.25 95.483 54.027 94.699C54.593 94.451 55.091 94.268 55.132 94.307C55.172 94.346 55.226 94.503 55.266 94.66C55.307 94.895 55.091 95.052 54.149 95.483C53.125 95.953 52.829 96.018 51.873 96.018C50.89 96.018 50.728 95.979 50.392 95.653L50.351 95.626ZM53.152 92.112C54 91.864 54.579 91.419 54.835 90.871C55.051 90.413 55.051 90.335 54.768 89.995C54.337 89.473 53.906 89.46 53.246 89.982C52.735 90.387 51.873 91.733 51.873 92.125C51.873 92.334 52.479 92.321 53.152 92.112ZM112.874 95.914C112.659 95.718 112.793 94.869 113.561 91.942C114.598 87.97 115.15 85.618 115.15 85.239C115.15 84.965 115.083 84.939 114.598 85.017C114.1 85.096 114.046 85.07 114.046 84.756C114.046 84.403 114.45 84.233 116.025 83.959C116.847 83.828 117.076 83.92 117.076 84.39C117.076 84.612 116.551 86.873 115.891 89.433C115.231 91.994 114.692 94.307 114.692 94.568V95.052L115.419 94.973C116.106 94.895 116.147 94.908 116.093 95.208C116.052 95.457 115.85 95.587 115.177 95.77C114.288 96.031 113.09 96.11 112.901 95.94L112.874 95.914ZM118.867 95.835C118.678 95.548 118.786 94.934 119.459 92.53C119.823 91.289 120.079 90.152 120.052 90.021C119.984 89.773 119.944 89.76 119.257 89.904C118.894 89.982 118.813 89.956 118.813 89.708C118.813 89.368 119.5 89.068 120.738 88.846C121.627 88.702 122.004 88.78 122.004 89.107C122.004 89.224 121.681 90.544 121.291 92.033C120.9 93.523 120.617 94.816 120.685 94.895C120.752 94.986 121.062 95.012 121.493 94.96C122.166 94.882 122.206 94.895 122.152 95.195C122.112 95.444 121.91 95.574 121.223 95.757C120.2 96.058 119.069 96.097 118.907 95.849L118.867 95.835ZM124.738 95.77C124.684 95.639 124.724 95.169 124.832 94.738C125.196 93.301 125.963 89.982 125.963 89.917C125.963 89.878 125.748 89.852 125.479 89.852C124.792 89.852 124.926 89.447 125.734 89.068C126.219 88.846 126.502 88.558 126.892 87.879C127.35 87.108 127.485 86.99 127.876 86.99H128.32L128.104 87.892C127.983 88.388 127.889 88.832 127.889 88.898C127.889 88.95 128.239 89.002 128.683 89.002C129.518 89.002 129.545 89.015 129.384 89.538C129.303 89.825 129.182 89.865 128.468 89.865H127.647L127.108 92.282C126.812 93.614 126.61 94.803 126.664 94.934C126.744 95.117 126.866 95.143 127.283 95.025C128.01 94.843 128.051 94.856 128.051 95.234C128.051 95.522 127.916 95.613 127.121 95.809C125.896 96.123 124.899 96.123 124.765 95.809L124.738 95.77ZM131.296 95.692C130.905 95.391 130.825 95.221 130.771 94.411C130.65 92.608 131.565 90.57 132.925 89.629C134.433 88.597 136.076 88.467 136.992 89.29C137.423 89.682 137.463 89.786 137.383 90.439C137.234 91.864 135.726 92.896 133.652 92.987C132.36 93.053 132.225 93.196 132.481 94.202C132.764 95.3 133.262 95.417 134.851 94.738C135.901 94.294 136.144 94.294 136.144 94.738C136.144 95.195 134.245 95.94 132.871 96.005C131.861 96.058 131.7 96.031 131.296 95.705V95.692ZM134.662 91.851C135.659 91.393 136.09 90.387 135.524 89.825C134.811 89.12 133.504 90.048 132.844 91.72L132.616 92.334L133.329 92.243C133.791 92.1702 134.244 92.043 134.676 91.864L134.662 91.851ZM172.677 95.966C172.677 95.94 172.96 94.829 173.31 93.497C173.66 92.164 173.957 90.792 173.957 90.439V89.812L173.324 89.904C172.758 89.982 172.691 89.969 172.691 89.708C172.691 89.368 172.973 89.224 174.266 88.924C175.384 88.663 175.721 88.767 175.721 89.368V89.708L176.286 89.368C177.283 88.767 177.889 88.65 178.602 88.937C178.952 89.081 179.222 89.237 179.222 89.277C179.222 89.329 179.074 89.773 178.872 90.257C178.575 91.001 178.454 91.158 178.158 91.158C177.862 91.158 177.794 91.08 177.794 90.675C177.794 89.695 176.865 89.616 176.165 90.544C175.64 91.25 175.37 92.02 174.926 94.032C174.738 94.947 174.536 95.731 174.482 95.77C174.387 95.862 172.718 96.071 172.718 95.992L172.677 95.966ZM191.018 95.796C190.897 95.496 191.045 94.607 191.651 92.073L192.176 89.917L191.732 89.878C191.207 89.825 191.112 89.355 191.611 89.211C192.176 89.055 192.823 88.467 193.132 87.826C193.482 87.121 193.617 87.003 194.142 87.003C194.492 87.003 194.519 87.056 194.425 87.474C194.371 87.735 194.277 88.192 194.223 88.48L194.129 89.015H194.869C195.623 89.015 195.731 89.133 195.516 89.656C195.448 89.825 195.206 89.891 194.667 89.891C193.792 89.891 193.927 89.603 193.227 92.752C192.715 95.065 192.742 95.274 193.604 95.052C194.331 94.869 194.385 94.882 194.331 95.248C194.29 95.496 194.088 95.626 193.482 95.809C192.432 96.136 191.207 96.149 191.072 95.849L191.018 95.796ZM197.441 95.653C196.243 94.568 197.078 91.315 198.95 89.799C199.704 89.185 200.889 88.715 201.656 88.715C202.155 88.715 203.232 89.172 203.393 89.447C203.649 89.878 203.568 90.91 203.245 91.406C202.572 92.412 201.131 93.039 199.542 93.039H198.599L198.68 93.928C198.801 95.326 199.367 95.522 201.104 94.738C201.67 94.49 202.168 94.307 202.208 94.346C202.249 94.385 202.303 94.542 202.343 94.699C202.397 94.934 202.168 95.091 201.225 95.522C200.215 95.992 199.906 96.058 198.99 96.058C198.061 96.058 197.872 96.018 197.509 95.692L197.441 95.653ZM200.781 91.916C201.899 91.419 202.397 90.27 201.697 89.786C201.239 89.473 200.902 89.525 200.296 90.008C199.785 90.413 198.923 91.759 198.923 92.164C198.923 92.399 200.013 92.256 200.768 91.916H200.781ZM205.615 95.914C205.615 95.849 205.912 94.686 206.262 93.327C206.625 91.968 206.895 90.649 206.868 90.4C206.827 89.982 206.787 89.956 206.235 89.982C205.79 89.995 205.642 89.943 205.575 89.734C205.521 89.512 205.656 89.407 206.316 89.185C206.78 89.0328 207.252 88.9063 207.73 88.806C208.349 88.702 208.335 88.689 208.726 89.538C208.739 89.551 209.157 89.368 209.669 89.133C210.773 88.636 210.948 88.61 211.621 88.989L212.133 89.264L211.796 90.191C211.513 90.975 211.392 91.132 211.096 91.132C210.8 91.132 210.732 91.054 210.732 90.662C210.732 89.407 209.413 89.656 208.699 91.041C208.524 91.38 208.16 92.582 207.905 93.706C207.649 94.829 207.406 95.757 207.379 95.783C207.245 95.888 205.656 95.979 205.656 95.888L205.615 95.914ZM213.574 95.914C213.574 95.849 213.83 94.895 214.153 93.797C214.49 92.595 214.732 91.406 214.745 90.805L214.772 89.799L214.207 89.852C213.762 89.891 213.614 89.838 213.56 89.629C213.493 89.407 213.628 89.316 214.288 89.133C215.728 88.728 216.065 88.702 216.348 88.963C216.501 89.1168 216.592 89.3214 216.604 89.538C216.604 89.721 216.631 89.878 216.671 89.878C216.698 89.878 217.169 89.682 217.721 89.447C219.001 88.898 220.697 88.61 221.209 88.859C221.532 89.015 221.559 89.094 221.465 89.76C221.398 90.152 221.142 91.263 220.886 92.216C220.63 93.17 220.401 94.176 220.374 94.451C220.334 94.947 220.334 94.947 220.994 94.934C221.451 94.921 221.694 94.986 221.748 95.13C221.869 95.43 221.721 95.522 220.724 95.783C219.593 96.084 218.543 96.084 218.422 95.783C218.368 95.653 218.61 94.411 218.96 93C219.66 90.178 219.701 89.852 219.364 89.747C219.014 89.629 217.802 90.165 217.075 90.753C216.469 91.236 216.402 91.393 216.025 92.804C215.809 93.654 215.58 94.647 215.513 95.025C215.446 95.404 215.311 95.744 215.217 95.77C214.732 95.901 213.52 95.966 213.52 95.862L213.574 95.914ZM224.481 95.809C224.427 95.679 224.71 94.359 225.114 92.857C225.518 91.367 225.814 90.061 225.761 89.943C225.707 89.799 225.559 89.786 225.155 89.891C224.968 89.9457 224.779 89.9934 224.589 90.034C224.576 90.034 224.549 89.891 224.549 89.708C224.549 89.433 224.697 89.342 225.384 89.159C227.269 88.65 227.848 88.741 227.659 89.499C227.619 89.695 227.282 90.936 226.932 92.269C226.582 93.601 226.326 94.79 226.38 94.908C226.447 95.065 226.649 95.104 227.202 95.025C227.875 94.947 227.915 94.96 227.875 95.261C227.767 95.875 224.724 96.41 224.495 95.862L224.481 95.809ZM230.487 95.809C230.38 95.561 230.514 94.882 231.134 92.386C231.82 89.629 231.82 89.878 231.241 89.878C230.541 89.878 230.662 89.486 231.47 89.107C231.942 88.885 232.224 88.597 232.601 87.957C233.019 87.265 233.194 87.095 233.544 87.056C234.029 87.003 234.029 87.043 233.692 88.584L233.598 89.055H234.433C235.133 89.055 235.254 89.094 235.173 89.277C235.119 89.4148 235.087 89.5603 235.079 89.708C235.079 89.865 234.864 89.917 234.231 89.917H233.382L232.857 92.334C232.574 93.667 232.386 94.856 232.44 94.986C232.521 95.182 232.642 95.195 233.073 95.091C233.8 94.908 233.84 94.921 233.84 95.3C233.84 95.6 233.706 95.679 232.911 95.875C231.699 96.188 230.689 96.188 230.555 95.875L230.487 95.809ZM237.032 95.705C236.587 95.352 236.574 95.313 236.574 93.928C236.574 92.582 236.601 92.465 237.18 91.419C237.894 90.139 238.688 89.447 239.994 89.015C242.257 88.258 243.873 89.551 242.876 91.315C242.31 92.321 240.816 93.039 239.281 93.039C238.365 93.039 238.298 93.066 238.203 93.418C238.069 93.902 238.244 94.62 238.553 94.947C238.917 95.326 239.536 95.261 240.654 94.738C241.489 94.359 241.664 94.32 241.785 94.49C242.068 94.895 241.933 95.052 240.87 95.509C240.048 95.875 239.523 95.992 238.675 96.031C237.651 96.084 237.503 96.058 237.086 95.731L237.032 95.705ZM240.506 91.837C241.583 91.302 241.947 90.23 241.193 89.786C240.91 89.616 240.695 89.59 240.358 89.695C239.806 89.852 238.998 90.792 238.675 91.668L238.419 92.347L239.159 92.256C239.563 92.203 240.177 92.02 240.526 91.837H240.506ZM0.013026 95.612C0.040026 95.472 0.205026 95.338 0.377026 95.308C0.848026 95.229 1.25203 94.85 1.57603 94.202C1.99303 93.34 3.31303 87.356 3.35303 86.115C3.38003 85.057 3.38003 85.044 2.86803 84.756C1.88503 84.194 2.15503 84.103 4.90203 84.103C7.08303 84.103 7.44703 84.142 7.44703 84.325C7.44703 84.456 7.24503 84.586 6.96203 84.638C5.95203 84.821 5.56203 85.723 4.60503 90.165C3.71703 94.32 3.71703 94.242 4.12103 94.607C4.43003 94.882 4.59203 94.908 5.83103 94.856C7.50103 94.777 8.10703 94.529 8.68603 93.654C9.14303 92.974 9.17003 92.961 9.49403 93.144C9.68203 93.249 9.66903 93.392 9.45303 93.967C9.29007 94.4136 9.0827 94.8428 8.83403 95.248L8.47003 95.822L4.21503 95.862C0.229026 95.888 -0.039974 95.875 0.013026 95.639V95.612ZM80.438 95.655C80.438 95.543 80.708 95.334 81.044 95.189C81.462 95.006 81.745 94.731 81.987 94.279C82.445 93.437 83.818 87.326 83.845 86.035C83.872 85.061 83.859 85.029 83.361 84.744C82.297 84.13 82.539 84.091 87.387 84.091C91.831 84.091 91.925 84.099 91.831 84.375C91.777 84.518 91.642 85.093 91.535 85.629C91.373 86.452 91.292 86.609 90.996 86.648C90.713 86.687 90.646 86.622 90.646 86.308C90.646 85.354 90.026 85.08 87.791 85.08H86.256L85.825 86.909C85.6598 87.603 85.4891 88.2957 85.313 88.987C85.246 89.209 85.381 89.235 86.646 89.235C88.235 89.235 88.707 89.078 89.164 88.412C89.582 87.811 90.121 87.772 89.999 88.333L89.636 90.045C89.42 91.09 89.299 91.365 89.097 91.365C88.936 91.365 88.801 91.208 88.734 90.933C88.68 90.698 88.478 90.424 88.276 90.332C87.899 90.149 85.394 90.058 85.219 90.228C85.111 90.319 84.64 92.384 84.438 93.677C84.344 94.291 84.371 94.37 84.734 94.592C85.057 94.788 85.421 94.814 86.539 94.775C88.195 94.696 88.787 94.461 89.469 93.586C89.765 93.207 90.048 92.985 90.173 93.037C90.483 93.141 90.448 93.403 89.979 94.409C89.279 95.911 89.669 95.807 84.795 95.807C81.226 95.807 80.526 95.768 80.526 95.598L80.438 95.655ZM161.222 95.658C161.222 95.544 161.464 95.378 161.747 95.292C162.757 94.982 163.093 94.164 164.09 89.52C164.952 85.522 164.938 84.882 163.928 84.591C163.753 84.539 163.632 84.422 163.672 84.33C163.726 84.213 164.965 84.154 168.157 84.126C172.493 84.087 172.574 84.087 172.466 84.362C172.412 84.518 172.277 85.08 172.17 85.616C172.008 86.439 171.927 86.596 171.631 86.635C171.335 86.674 171.281 86.609 171.281 86.23C171.281 85.315 170.513 85.028 168.345 85.093L167.093 85.132L166.648 86.988C166.406 88.007 166.204 88.934 166.204 89.026C166.204 89.287 168.628 89.261 169.207 88.987C169.449 88.869 169.746 88.582 169.853 88.333C169.975 88.059 170.177 87.889 170.352 87.889C170.729 87.889 170.729 87.785 170.311 89.718C170.028 91.077 169.921 91.338 169.678 91.338C169.503 91.338 169.396 91.234 169.396 91.077C169.396 90.411 167.914 89.901 166.541 90.11L165.935 90.202L165.612 91.809C165.046 94.631 165.073 94.892 165.935 95.206C166.891 95.558 166.339 95.689 163.794 95.728C161.706 95.768 161.302 95.741 161.302 95.558L161.222 95.658ZM67.942 92.572C67.228 92.28 66.609 91.379 66.609 90.643C66.609 89.503 67.726 88.484 68.979 88.488C70.474 88.493 71.389 89.313 71.389 90.635C71.403 92.321 69.692 93.288 67.955 92.582L67.942 92.572ZM148.887 92.64C148.617 92.531 148.186 92.203 147.944 91.908C147.58 91.473 147.5 91.236 147.513 90.628C147.54 89.311 148.442 88.498 149.897 88.498C150.624 88.498 150.866 88.57 151.351 88.929C152.455 89.726 152.63 91.059 151.755 91.999C151.028 92.789 149.924 93.036 148.914 92.64H148.887ZM53.811 87.538C53.501 87.227 53.474 87.259 55.278 85.403L55.887 84.776L56.792 84.959C57.29 85.061 57.698 85.186 57.698 85.238C57.698 85.335 54.291 87.823 54.161 87.823C54.12 87.823 53.959 87.696 53.797 87.539L53.811 87.538ZM134.704 87.538L134.35 87.282L135.548 86.046C136.208 85.366 136.801 84.81 136.882 84.81C137.272 84.81 138.632 85.162 138.605 85.254C138.565 85.348 135.602 87.498 135.225 87.71C135.131 87.757 134.902 87.68 134.714 87.54L134.704 87.538ZM240.408 87.54L240.024 87.279L241.268 86.044C241.951 85.365 242.568 84.81 242.638 84.81C242.961 84.81 244.388 85.155 244.375 85.228C244.375 85.306 241.372 87.492 240.981 87.704C240.887 87.756 240.631 87.684 240.425 87.54H240.408ZM13.477 86.803C12.831 86.221 13.461 85.097 14.433 85.097C15.112 85.097 15.464 85.417 15.464 86.031C15.464 86.989 14.218 87.474 13.476 86.802L13.477 86.803ZM120.786 86.905C120.395 86.639 120.418 85.752 120.826 85.383C121.48 84.795 122.733 85.187 122.733 85.984C122.733 86.847 121.534 87.421 120.794 86.925L120.786 86.905ZM226.392 86.803C225.732 86.21 226.379 85.097 227.375 85.097C228.372 85.097 228.803 86.103 228.075 86.754C227.581 87.195 226.837 87.218 226.379 86.803H226.392ZM87.072 82.701C86.829 82.458 86.883 82.37 88.033 81.242L89.259 80.039L90.168 80.235C90.666 80.34 91.07 80.458 91.07 80.51C91.056 80.654 87.865 82.862 87.582 82.927C87.434 82.966 87.205 82.875 87.071 82.731L87.072 82.701Z" fill="black"/>
<path d="M139.945 74.613L140.317 73.749C140.946 72.185 141.596 70.992 142.539 69.681C143.535 68.294 145.73 66.25 146.642 65.86C147.764 65.379 149.157 65.21 150.884 65.345C152.365 65.463 156.912 66.133 158.748 66.508C160.146 66.79 162.193 66.817 163.155 66.564C165.01 66.078 166.108 65.136 166.63 63.588C167.031 62.399 167.027 61.314 166.62 60.596C166.073 59.629 166.166 59.368 167.495 58.231C168.15 57.656 168.687 57.133 168.689 57.068C168.689 56.676 167.773 55.147 167.544 55.134C167.396 55.134 167.113 55.004 166.911 54.86L166.534 54.586L167.315 54.22C168.392 53.723 169.187 52.952 169.187 52.404C169.187 52.169 168.958 51.594 168.675 51.123C168.136 50.222 168.002 49.359 168.298 48.85C168.487 48.51 168.837 48.367 170.507 47.935C171.907 47.57 172.419 47.191 172.621 46.381C172.782 45.688 172.701 45.244 172.244 44.408C171.867 43.728 169.416 40.344 168.716 39.521C167.759 38.411 166.588 36.49 166.251 35.458C165.915 34.439 165.901 34.374 166.157 33.067C166.682 30.284 166.372 27.985 164.878 23.503C163.76 20.158 163.464 19.348 163.127 18.721C162.494 17.598 162.575 17.336 163.868 16.383C164.487 15.925 165.053 15.442 165.134 15.298C165.524 14.645 165.08 13.378 164.352 13.025C163.881 12.803 163.625 12.959 163.154 13.743C162.79 14.344 162.642 14.449 162.265 14.449C161.632 14.449 161.525 14.214 161.929 13.73C162.386 13.155 162.36 13.064 161.619 12.973C161.067 12.907 160.784 12.711 159.585 11.614C157.996 10.15 156.919 9.471 154.792 8.583C153.809 8.178 153.472 7.982 153.822 8.034C154.132 8.073 155.209 8.151 156.232 8.204C159.182 8.334 159.895 7.982 160.582 6.061C161.04 4.754 161.269 4.153 160.191 3.239L156.342 0H244.555V74.613H139.945Z" fill="#E2011C"/>
<path d="M64.722 74.613C64.083 74.553 63.528 74.527 63.489 74.492C63.421 74.432 64.144 74.012 67.456 72.192C68.52 71.607 68.956 71.294 68.808 71.222C68.687 71.164 67.761 71.073 66.747 71.018C65.242 70.939 64.806 70.96 64.364 71.145C64.064 71.269 62.872 71.594 61.714 71.868C58.832 72.548 57.876 73.016 56.947 74.168L56.597 74.612H0V0H112.315L110.139 1.28C108.941 1.819 107.548 2.565 107.045 2.94C105.337 4.207 103.036 7.097 102.462 8.695C102.247 9.283 102.058 9.501 101.412 9.901C100.415 10.51 99.23 11.67 98.247 12.992C96.914 14.787 94.369 18.832 93.871 19.953C93.09 21.694 93.157 23.02 94.302 28.221C94.8 30.511 95.339 32.838 95.5 33.391C95.662 33.944 95.837 34.881 95.891 35.472C95.985 36.531 96.066 36.759 96.753 38.057C96.941 38.412 97.089 38.814 97.089 38.953C97.089 39.091 97.224 39.284 97.399 39.384C97.4905 39.4422 97.5665 39.5217 97.6205 39.6158C97.6745 39.7099 97.7049 39.8156 97.709 39.924C97.709 40.172 98.072 40.645 98.867 41.433C100.685 43.236 102.004 44.926 102.004 45.461C102.004 45.9 101.291 46.013 100.133 45.757C98.786 45.457 97.682 44.811 95.985 43.322C95.258 42.688 94.679 42.264 94.679 42.376C94.679 42.488 95.164 43.078 95.77 43.683C96.968 44.892 97.157 45.222 96.901 45.659C96.672 46.044 96.12 46.156 95.366 45.969C94.49 45.753 93.992 46.054 94.127 46.697C94.208 47.102 94.194 47.141 93.938 47.063C93.453 46.893 92.376 46.697 91.42 46.605C90.531 46.527 90.464 46.488 89.939 45.821C89.535 45.312 89.212 45.077 88.794 44.972C87.219 44.58 83.287 43.953 80.661 43.692C76.028 43.234 74.911 43.195 72.689 43.444C70.979 43.626 70.521 43.744 69.591 44.162C67.935 44.92 65.067 47.298 65.067 47.912C65.067 48.199 65.7 48.108 66.413 47.703C68.595 46.488 76.096 44.763 79.772 44.632C81.59 44.567 81.496 44.646 79.301 45.011C78.695 45.116 77.267 45.443 76.123 45.756C74.978 46.07 72.998 46.54 71.733 46.814C70.467 47.076 69.026 47.428 68.555 47.585L67.679 47.873L69.026 47.886C75.921 47.951 83.758 49.924 86.963 52.393C88.336 53.452 88.835 53.582 90.854 53.386C93.628 53.125 97.21 51.936 98.786 50.747C99.473 50.237 100.025 50.028 100.025 50.303C100.025 50.773 99.123 53.295 98.732 53.909C98.301 54.614 98.274 54.706 98.503 54.863C98.638 54.954 98.719 55.072 98.665 55.111C98.611 55.163 98.719 55.242 98.907 55.294C99.432 55.451 99.298 55.594 98.463 55.777C97.655 55.973 97.008 56.3 97.008 56.522C97.008 56.6 97.116 56.666 97.251 56.666C97.655 56.666 97.359 56.927 96.82 57.031C96.456 57.11 96.389 57.162 96.551 57.254C96.712 57.345 96.712 57.384 96.564 57.384C96.456 57.384 96.362 57.528 96.362 57.711C96.362 57.933 96.201 58.09 95.877 58.22C95.083 58.547 95.298 58.717 96.389 58.625C96.941 58.573 97.278 58.573 97.143 58.625C97.008 58.665 96.12 59.03 95.164 59.435C94.194 59.827 92.942 60.311 92.376 60.494C91.73 60.703 91.326 60.912 91.285 61.069C91.232 61.317 91.528 61.304 92.282 61.043C92.417 60.99 92.538 61.016 92.538 61.082C92.538 61.147 90.881 62.009 88.861 63.002C86.828 63.995 84.943 65.014 84.647 65.263C84.35 65.524 83.987 65.733 83.812 65.733C83.65 65.733 83.435 65.903 83.327 66.099C83.017 66.713 83.071 66.791 83.812 66.674C84.902 66.504 85.414 66.517 85.482 66.713C85.522 66.817 85.414 66.896 85.239 66.896C85.0527 66.9011 84.8751 66.9757 84.741 67.105C84.633 67.222 84.364 67.34 84.135 67.353C83.852 67.392 83.596 67.562 83.381 67.863C83.206 68.111 82.923 68.359 82.748 68.398C82.573 68.437 82.819 68.451 83.3 68.411C90.45 67.928 91.784 67.693 94.669 66.373C97.128 65.25 99.679 63.564 101.497 61.892C102.022 61.408 102.507 61.016 102.574 61.016C102.82 61.016 102.686 61.813 102.322 62.532C101.689 63.76 100.37 64.884 97.649 66.517C96.276 67.34 94.795 68.124 94.356 68.242C92.99 68.633 90.787 69.052 88.471 69.352C80.939 70.332 78.056 71.077 75.201 72.788C74.719 73.063 74.218 73.285 74.084 73.259C73.949 73.246 73.586 73.415 73.289 73.651C72.441 74.317 73.06 74.199 74.838 73.376C76.669 72.527 77.518 72.396 76.077 73.18C74.313 74.147 72.98 74.761 71.66 74.761H64.637L64.722 74.613ZM55.366 66.291C55.651 66.182 56.597 65.703 57.467 65.227C58.338 64.752 59.371 64.229 59.765 64.068L62.23 63.062C64.245 62.242 67.205 61.468 67.374 61.717C67.434 61.803 67.876 61.9 68.357 61.93C69.026 61.971 69.143 62.011 68.868 62.099C68.672 62.161 68.51 62.269 68.51 62.34C68.51 62.599 69.998 62.523 70.624 62.229C70.871 62.111 71.426 61.981 71.858 61.928C72.396 61.863 72.644 61.772 72.644 61.628C72.644 61.458 72.782 61.432 73.266 61.51C73.936 61.615 75.372 61.367 79.245 60.491C81.865 59.89 83.851 59.289 85.595 58.571L86.856 58.048L85.595 57.316C82.518 55.539 79.427 54.442 72.644 52.73C71.463 52.43 70.426 52.116 70.339 52.038C70.234 51.946 70.285 51.933 70.498 51.999C71.175 52.221 71.691 52.26 71.691 52.09C71.691 51.881 71.179 51.711 70.172 51.581C69.252 51.463 68.658 51.215 69.297 51.215C70.286 51.215 68.586 50.64 66.681 50.352C65.272 50.13 65.191 50.078 65.779 49.817C66.291 49.595 66.843 48.745 66.699 48.406C66.578 48.105 66.43 48.144 65.662 48.602C64.194 49.49 62.848 50.953 62.094 52.469C61.663 53.331 61.811 53.41 64.033 53.501C65.864 53.567 65.891 53.58 65.42 53.802C65.0441 53.9581 64.6505 54.0676 64.248 54.128C62.955 54.298 62.242 54.86 62.888 55.187C63.077 55.278 63.009 55.356 62.538 55.566C62.013 55.788 61.986 55.84 62.228 55.957C62.39 56.036 62.848 56.075 63.252 56.049C63.817 56.01 64.073 56.062 64.342 56.271L64.693 56.545L63.992 56.937C63.602 57.159 63.171 57.551 63.023 57.8C62.875 58.048 62.349 58.649 61.838 59.132C61.339 59.616 60.922 60.112 60.922 60.243C60.922 60.361 60.195 61.001 59.293 61.641C56.882 63.379 55.832 64.345 55.832 64.803C55.832 65.051 55.697 65.26 55.455 65.404C54.701 65.848 54.31 66.357 54.728 66.357C54.822 66.357 55.132 66.266 55.414 66.162L55.366 66.291ZM73.967 64.613C74.562 64.541 75.253 64.374 75.499 64.242L75.949 64.002L75.181 63.657L74.414 63.312L73.649 63.592C73.227 63.746 72.644 63.953 72.353 64.053C71.179 64.454 71.027 64.993 72.127 64.845C72.7398 64.7664 73.3532 64.692 73.967 64.622V64.613ZM47.044 58.083C50.585 54.738 53.087 52.753 56.261 50.767C57.339 50.092 58.101 49.702 58.139 49.804C58.241 50.078 58.704 50 59.456 49.569C60.32 49.072 60.752 48.563 61.831 46.812C62.949 44.983 63.374 44.525 64.989 43.402C65.756 42.879 66.861 42.082 67.467 41.651C68.342 41.024 68.544 40.919 68.477 41.168C68.423 41.35 68.463 41.481 68.584 41.481C68.948 41.481 70.658 40.815 70.712 40.658C70.806 40.397 69.082 40.135 67.803 40.214C66.82 40.266 66.484 40.371 65.258 40.958C62.403 42.356 60.33 43.859 56.384 47.426C53.543 49.987 51.307 51.711 50.176 52.195C49.812 52.351 49.53 52.691 49.085 53.501C48.223 55.095 46.661 57.382 45.194 59.237C43.807 60.988 43.51 61.589 44.588 60.465C45.4125 59.6446 46.2472 58.8345 47.092 58.035L47.044 58.083ZM82.503 73.793C86.758 72.993 87.229 72.933 90.215 72.816C93.568 72.682 93.996 72.604 96.013 71.748C96.66 71.474 96.913 71.424 97.003 71.552C97.159 71.778 98.255 71.239 100.393 69.886C101.268 69.334 102.503 68.626 103.14 68.315C104.1 67.844 104.392 67.766 104.855 67.844C105.348 67.927 105.495 67.87 106.124 67.374C107.869 65.985 109.358 65.344 110.846 65.34C111.291 65.34 111.443 65.397 111.443 65.568C111.443 65.715 111.53 65.77 111.681 65.717C112.126 65.561 111.924 65.73 110.784 66.501C109.465 67.377 109.586 67.651 110.932 66.802C112.225 65.992 112.239 65.992 112.239 66.318C112.239 66.501 111.74 66.972 110.838 67.651C108.778 69.193 107.324 70.473 105.115 72.681L103.136 74.602H77.969L82.5 73.779L82.503 73.793ZM82.543 44.563C82.697 44.527 82.947 44.527 83.099 44.563C83.253 44.6 83.126 44.629 82.822 44.629C82.515 44.629 82.391 44.6 82.543 44.563Z" fill="#003189"/>
<path d="M156.719 39.105C156.024 39.008 156.382 38.775 157.224 38.775C158.067 38.775 158.511 38.483 158.511 37.929C158.511 37.667 158.457 37.626 158.188 37.703C157.959 37.768 157.797 37.713 157.636 37.516C157.501 37.333 157.151 37.202 156.639 37.141C155.737 37.032 154.269 36.242 154.525 36.004C154.619 35.923 155.091 35.826 155.562 35.791C156.397 35.728 156.451 35.7 156.612 35.24C156.747 34.896 156.922 34.73 157.218 34.665C157.461 34.615 157.824 34.426 158.04 34.243C158.269 34.06 158.982 33.59 159.629 33.211C160.733 32.557 161.42 31.865 161.177 31.643C160.921 31.408 158.538 31.159 157.407 31.238C156.1 31.329 153.852 31.761 152.922 32.087C151.966 32.414 152.236 32.126 153.569 31.421C155.36 30.454 158.807 29.566 160.706 29.566C161.447 29.566 163.924 30.088 164.221 30.31C164.8 30.741 164.167 32.257 163.103 33.015L162.658 33.328L163.386 34.034L163.009 34.308C162.807 34.452 162.524 34.583 162.389 34.583C162.254 34.583 161.904 34.779 161.622 35.027C161.191 35.406 161.137 35.523 161.258 35.824C161.352 36.046 161.352 36.268 161.231 36.464C161.123 36.647 161.096 37.052 161.164 37.522C161.298 38.476 161.11 38.816 160.329 39.012C159.763 39.155 157.663 39.182 156.747 39.051L156.719 39.105Z" fill="#7F7F7F"/>
<path d="M563.201 79.238H571.876V35.918H563.201V51.397C560.07 48.572 556.482 47.16 552.307 47.16C543.308 47.16 536 53.869 536 63.64C536 73.234 543.698 80.064 552.504 80.064C556.875 80.064 560.136 78.65 563.201 75.941V79.238ZM554.071 54.341C559.549 54.341 563.592 58.048 563.592 63.523C563.592 69.232 559.417 72.882 554.071 72.882C548.655 72.882 544.742 68.949 544.742 63.592C544.742 58.47 548.329 54.355 554.07 54.355L554.071 54.341ZM606.262 79.238H614.937V47.983H606.262V51.397C603.131 48.572 599.542 47.16 595.368 47.16C586.367 47.16 579.06 53.869 579.06 63.64C579.06 73.234 586.759 80.064 595.564 80.064C599.941 80.064 603.199 78.65 606.27 75.941V79.238H606.262ZM597.132 54.341C602.608 54.341 606.652 58.048 606.652 63.523C606.652 69.232 602.478 72.882 597.132 72.882C591.716 72.882 587.802 68.949 587.802 63.592C587.802 58.47 591.39 54.355 597.13 54.355L597.132 54.341ZM624.73 47.983H620.296V54.693H624.732V79.238H633.417V54.693H638.575V47.983H633.431V36.446H624.759V47.983H624.73ZM668.94 79.238H677.616V47.983H668.94V51.397C665.81 48.572 662.223 47.16 658.048 47.16C649.046 47.16 641.741 53.869 641.741 63.64C641.741 73.234 649.438 80.064 658.244 80.064C662.615 80.064 665.876 78.65 668.941 75.941L668.94 79.238ZM659.81 54.341C665.29 54.341 669.333 58.048 669.333 63.523C669.333 69.232 665.158 72.882 659.81 72.882C654.396 72.882 650.482 68.949 650.482 63.592C650.482 58.47 654.069 54.355 659.81 54.355V54.341ZM691.129 71.056C688.389 71.056 686.106 72.999 686.106 75.53C686.106 78.002 688.389 80.064 691.129 80.064C693.934 80.064 696.085 78.002 696.085 75.53C696.085 73.058 693.868 71.056 691.129 71.056ZM738.896 47.983H730.22V51.397C726.958 48.631 723.568 47.16 719.261 47.16C710.454 47.16 703.075 53.516 703.075 63.169C703.075 72.527 710.374 79.239 719.706 79.239C724.203 79.239 727.327 77.884 730.209 75.353C730.209 78.296 730.142 80.415 728.055 82.181C726.492 83.475 723.88 84.233 720.675 84.233C717.012 84.233 714.413 83.41 712.649 81.528H703.061C705.405 88.061 711.464 91.419 720.998 91.419C726.277 91.419 730.451 90.295 733.576 87.943C737.548 84.886 738.854 80.823 738.854 74.76V47.976L738.896 47.983ZM721.215 54.341C726.956 54.341 730.674 58.225 730.674 63.286C730.674 68.584 726.694 72.057 721.346 72.057C715.932 72.057 711.821 68.408 711.821 63.228C711.821 58.401 715.474 54.341 721.214 54.341H721.215ZM763.952 47.16C754.494 47.16 746.016 54.163 746.016 63.64C746.016 72.823 753.974 80.064 764.017 80.064C774.584 80.064 782.344 72.645 782.344 63.582C782.344 54.341 774.063 47.159 763.952 47.159V47.16ZM764.083 54.576C769.758 54.576 773.606 58.342 773.606 63.64C773.606 69.115 769.432 72.645 764.083 72.645C758.473 72.645 754.755 68.878 754.755 63.582C754.755 58.401 758.668 54.576 764.083 54.576ZM789.37 62.287C789.37 64.876 789.239 66.348 789.696 68.878C791.065 76.177 796.219 80.003 804.568 80.003C809.394 80.003 812.981 78.828 815.722 76.058C819.384 72.41 819.775 68.173 819.775 62.404V47.983H811.103V64.641C811.103 69.938 809.217 72.823 804.585 72.823C800.02 72.823 798.068 69.879 798.068 64.287V47.982H789.395V62.288L789.37 62.287ZM839.631 79.238H845.241L859.982 47.983H851.175L842.436 66.405L833.696 47.983H824.822L839.621 79.238H839.631ZM867.255 73.044C868.355 73.044 869.275 73.389 870.016 74.081C870.783 74.743 871.167 75.562 871.167 76.537C871.167 77.504 870.784 78.332 870.017 79.02C869.254 79.69 868.334 80.026 867.256 80.026C866.188 80.026 865.268 79.69 864.496 79.02C863.76 78.323 863.392 77.491 863.392 76.524C863.392 75.557 863.764 74.739 864.509 74.068C865.281 73.371 866.202 73.023 867.27 73.023L867.255 73.044ZM903.65 48.749L902.96 51.032H897.361L893.142 66.157C891.275 72.824 889.396 77.981 887.504 81.626C884.82 86.77 881.931 90.323 878.837 92.285C876.485 93.785 874.133 94.535 871.781 94.535C870.255 94.535 868.953 94.119 867.876 93.288C867.086 92.712 866.691 91.962 866.691 91.038C866.691 90.301 867.023 89.655 867.687 89.101C868.325 88.57 869.119 88.304 870.071 88.304C870.762 88.304 871.35 88.5 871.835 88.892C872.302 89.284 872.535 89.734 872.535 90.243C872.535 90.748 872.266 91.218 871.727 91.654C871.323 91.976 871.121 92.216 871.121 92.372C871.121 92.581 871.211 92.743 871.39 92.856C871.624 93.013 871.983 93.091 872.468 93.091C873.572 93.091 874.735 92.777 875.955 92.15C877.158 91.523 878.231 90.587 879.174 89.341C880.125 88.113 881.019 86.336 881.854 84.011C882.213 83.044 883.173 79.847 884.735 74.421L891.4 51.009H884.73L885.269 48.722C887.387 48.722 888.869 48.596 889.712 48.344C890.556 48.065 891.324 47.557 892.015 46.819C892.733 46.056 893.654 44.649 894.776 42.599C896.284 39.829 897.729 37.682 899.112 36.158C901.006 34.105 902.988 32.57 905.058 31.555C907.15 30.518 909.116 30 910.957 30C912.896 30 914.453 30.449 915.629 31.348C916.805 32.225 917.393 33.183 917.393 34.223C917.393 35.029 917.102 35.709 916.518 36.263C915.926 36.815 915.171 37.09 914.256 37.09C913.46 37.09 912.807 36.881 912.295 36.463C911.81 36.045 911.568 35.549 911.568 34.974C911.568 34.608 911.734 34.159 912.066 33.628C912.398 33.071 912.564 32.7 912.564 32.518C912.564 32.195 912.449 31.954 912.218 31.792C911.886 31.559 911.401 31.442 910.764 31.442C909.153 31.442 907.707 31.904 906.428 32.827C904.713 34.051 903.178 35.967 901.823 38.576C901.131 39.935 899.865 43.314 898.025 48.715H903.654L903.65 48.749Z" fill="#373C42"/>
<path d="M906.258 49.857L919.49 47.918L913.969 64.738C918.441 57.839 922.506 53.017 926.163 50.272C928.234 48.702 929.921 47.918 931.226 47.918C932.07 47.918 932.734 48.148 933.219 48.61C933.705 49.048 933.949 49.695 933.949 50.549C933.949 52.072 933.513 53.525 932.642 54.909C932.03 55.947 931.149 56.466 929.998 56.466C929.41 56.466 928.898 56.293 928.463 55.948C928.054 55.601 927.798 55.07 927.695 54.354C927.645 53.916 927.53 53.629 927.352 53.491C927.154 53.3086 926.893 53.2091 926.624 53.213C926.189 53.213 925.78 53.305 925.396 53.49C924.732 53.812 923.722 54.709 922.366 56.181C920.244 58.437 917.943 61.368 915.462 64.974C914.385 66.499 913.465 68.215 912.702 70.122C911.625 72.753 911.01 74.334 910.857 74.865L909.632 79.216H903.76L910.857 57.723C911.674 55.232 912.082 53.455 912.082 52.392C912.082 51.974 911.889 51.626 911.503 51.347C910.992 50.973 910.314 50.785 909.47 50.785C908.931 50.785 907.944 50.886 906.507 51.086L906.238 49.806L906.258 49.857Z" fill="#373C42"/>
<path d="M301.868 69.823C298.619 74.155 295.655 75.865 291.209 75.865C284.198 75.865 278.669 70.393 278.669 63.439C278.669 56.428 284.084 50.956 291.038 50.956C295.655 50.956 299.474 53.179 301.868 57.283H306.599C304.091 51.013 298.163 47.08 291.095 47.08C281.747 47.08 274.394 54.262 274.394 63.325C274.394 72.616 281.804 79.741 291.38 79.741C295.142 79.741 298.676 78.601 301.526 76.378C303.635 74.782 304.889 73.129 306.656 69.823H301.868ZM344.245 47.821H340.027V53.35C336.892 48.961 333.13 47.08 327.715 47.08C318.367 47.08 311.299 54.148 311.299 63.496C311.299 72.844 318.424 79.741 328.057 79.741C333.358 79.741 336.721 77.974 340.027 73.528V79H344.245V47.821ZM327.658 50.956C334.726 50.956 340.027 56.257 340.027 63.325C340.027 70.393 334.783 75.865 328 75.865C321.103 75.865 315.574 70.336 315.574 63.325C315.574 56.485 320.989 50.956 327.658 50.956ZM383.268 36.877H379.05V52.78C375.972 49.075 371.697 47.08 366.795 47.08C357.333 47.08 350.208 54.148 350.208 63.496C350.208 72.73 357.561 79.741 367.194 79.741C372.438 79.741 375.858 77.86 379.05 73.357V79H383.268V36.877ZM366.51 50.956C373.635 50.956 379.221 56.428 379.221 63.325C379.221 70.222 373.749 75.865 367.08 75.865C360.012 75.865 354.483 70.393 354.483 63.382C354.483 56.485 359.841 50.956 366.51 50.956ZM422.175 47.821H417.957V53.35C414.822 48.961 411.06 47.08 405.645 47.08C396.297 47.08 389.229 54.148 389.229 63.496C389.229 72.844 396.354 79.741 405.987 79.741C411.288 79.741 414.651 77.974 417.957 73.528V79H422.175V47.821ZM405.588 50.956C412.656 50.956 417.957 56.257 417.957 63.325C417.957 70.393 412.713 75.865 405.93 75.865C399.033 75.865 393.504 70.336 393.504 63.325C393.504 56.485 398.919 50.956 405.588 50.956ZM426.77 69.823C426.827 75.865 430.76 79.741 436.802 79.741C442.445 79.741 446.321 75.751 446.321 70.051C446.321 66.232 444.554 63.61 440.906 62.071C436.232 60.133 436.004 60.019 435.092 59.62C433.097 58.594 432.185 57.283 432.185 55.459C432.185 52.951 434.18 50.956 436.688 50.956C439.424 50.956 441.02 52.552 441.248 55.516H445.523C445.352 50.5 441.761 47.08 436.745 47.08C431.615 47.08 427.91 50.785 427.91 55.858C427.91 58.138 428.708 60.019 430.247 61.444C431.558 62.641 431.615 62.641 436.004 64.465C440.906 66.46 442.046 67.6 442.046 70.45C442.046 73.585 439.88 75.865 436.802 75.865C433.268 75.865 431.159 73.699 430.931 69.823H426.77ZM455.698 79H459.916V51.64H466.927V47.821H459.916V36.877H455.698V47.821H448.972V51.64H455.698V79ZM471.195 79H475.413V60.817C475.413 55.003 478.377 51.811 484.248 51.241V47.08C479.745 47.308 477.066 48.847 475.413 52.267V47.821H471.195V79ZM517.961 64.807C517.961 60.646 517.448 58.195 516.08 55.573C513.344 50.329 507.815 47.08 501.659 47.08C492.653 47.08 485.528 54.205 485.528 63.268C485.528 72.502 492.767 79.741 502.001 79.741C508.784 79.741 514.883 75.295 517.163 68.74H512.774C511.007 73.015 506.618 75.865 501.887 75.865C495.446 75.865 490.088 70.963 489.746 64.807H517.961ZM489.86 60.988C491 55.003 495.731 50.956 501.659 50.956C507.701 50.956 512.318 54.775 513.743 60.988H489.86ZM532.518 74.497C532.518 76.207 531.967 77.518 530.865 78.43C529.801 79.304 528.585 79.741 527.217 79.741C525.849 79.741 524.614 79.304 523.512 78.43C522.448 77.518 521.916 76.207 521.916 74.497C521.916 72.787 522.448 71.495 523.512 70.621C524.614 69.709 525.849 69.253 527.217 69.253C528.585 69.253 529.801 69.709 530.865 70.621C531.967 71.495 532.518 72.787 532.518 74.497Z" fill="#373C42"/>
</svg>
