<svg width="610" height="166" viewBox="0 0 610 166" fill="none" xmlns="http://www.w3.org/2000/svg">
<rect width="60.5002" height="22.0001" transform="translate(31.5767 22.7334)" fill="white"/>
<path d="M51.1131 42.0747C51.1204 42.0747 51.1277 42.0639 51.1277 42.0639C51.1861 42.0207 51.2445 41.9668 51.2956 41.9021C51.2883 41.9021 51.281 41.9021 51.2737 41.8913C51.2226 41.9453 51.1642 42.01 51.1131 42.0747Z" fill="#000091"/>
<path d="M59.204 39.3487L59.0763 39.4587C59.1493 39.4404 59.204 39.422 59.204 39.3487Z" fill="#000091"/>
<path fill-rule="evenodd" clip-rule="evenodd" d="M56.5882 42.1333C56.8225 41.8976 57.0569 41.6476 57.2912 41.3904H57.2841C57.7244 40.8904 58.1505 40.4119 58.6618 39.9762C58.818 39.8333 58.9672 39.7119 59.1092 39.6119C59.1301 39.5909 59.1407 39.5596 59.1511 39.529C59.162 39.4971 59.1727 39.4658 59.1944 39.4476C59.0932 39.4862 59.0125 39.5473 58.9314 39.6087C58.8475 39.6723 58.763 39.7362 58.6547 39.7762C58.6121 39.7762 58.5695 39.7333 58.6121 39.6905C58.7612 39.5833 58.9103 39.469 59.0524 39.3547H59.024C58.9814 39.3547 58.9814 39.3119 58.9814 39.269C58.4527 39.1851 58.0466 39.5466 57.6832 39.8702L57.6605 39.8905C57.6039 39.9189 57.5504 39.8907 57.5084 39.8685C57.4872 39.8573 57.4689 39.8476 57.4545 39.8476C57.1329 39.9554 56.8556 40.1542 56.5764 40.3543C56.3193 40.5386 56.0606 40.724 55.7644 40.8404V40.7547C55.6638 40.7894 55.5644 40.8346 55.4647 40.88C55.3181 40.9466 55.1709 41.0136 55.0187 41.0476C54.7408 41.1121 54.483 41.1038 54.2331 41.0957C54.1511 41.0931 54.0698 41.0904 53.989 41.0904C53.5342 41.1355 53.0851 41.233 52.6367 41.3303L52.4906 41.3619C52.4835 41.3654 52.4764 41.3672 52.4693 41.369C52.4622 41.3708 52.4551 41.3726 52.448 41.3762C52.1781 41.4476 51.9296 41.5476 51.681 41.6904L51.6526 41.7047C51.6428 41.7178 51.6331 41.7294 51.624 41.7402C51.6133 41.7529 51.6035 41.7646 51.5958 41.7762C51.5106 41.8762 51.4325 41.9619 51.3117 42.0262C51.1334 42.1158 50.9793 42.2541 50.8277 42.3902C50.762 42.4491 50.6965 42.5079 50.63 42.5619C50.6158 42.5762 50.5874 42.5833 50.5661 42.5833C50.346 42.7976 50.1258 43.0119 49.8985 43.219C49.8843 43.2333 49.8204 43.2404 49.7707 43.2333C49.7707 43.2333 49.7778 43.2333 49.7778 43.2262L49.7991 43.1833L49.9056 43.0119C49.9269 42.9797 49.9465 42.9476 49.966 42.9154C49.9855 42.8833 50.0051 42.8512 50.0264 42.819C50.0831 42.7334 50.14 42.6475 50.2039 42.569C50.2181 42.5476 50.2181 42.5262 50.2039 42.5119C50.1897 42.4976 50.1684 42.4904 50.1471 42.4904C50.353 42.2904 50.5945 42.119 50.843 41.969V41.9619C50.8146 41.969 50.772 41.9476 50.7933 41.919C50.8142 41.8928 50.8312 41.8628 50.8472 41.8345L50.8643 41.8047C50.8679 41.7976 50.8697 41.7922 50.8714 41.7869C50.8732 41.7815 50.875 41.7762 50.8785 41.769C50.875 41.7619 50.8697 41.7565 50.8643 41.7512C50.859 41.7458 50.8537 41.7404 50.8501 41.7333L50.8071 41.7617C50.7556 41.7954 50.7027 41.83 50.6584 41.869C50.627 41.8961 50.5978 41.933 50.5678 41.971C50.5026 42.0534 50.4338 42.1404 50.3317 42.1404C50.3246 42.1404 50.2891 42.1404 50.2678 42.1333C50.2465 42.1333 50.2323 42.1262 50.2252 42.119C50.2252 42.1155 50.2252 42.1137 50.2261 42.1128C50.227 42.1119 50.2288 42.1119 50.2323 42.1119C50.2323 42.1119 50.2394 42.1047 50.2394 42.0976C50.2394 42.0976 50.2394 42.0904 50.2465 42.0904C50.2501 42.0833 50.2536 42.0779 50.2572 42.0726C50.2607 42.0672 50.2643 42.0619 50.2678 42.0547C50.2714 42.0476 50.2749 42.0422 50.2785 42.0369C50.282 42.0315 50.2856 42.0262 50.2891 42.019C50.2927 42.0154 50.2944 42.0101 50.2962 42.0047C50.298 41.9994 50.2998 41.994 50.3033 41.9904L50.3113 41.9757C50.3184 41.9632 50.3268 41.9482 50.3317 41.9333C50.3353 41.9262 50.3388 41.9208 50.3424 41.9154C50.3459 41.9101 50.3495 41.9047 50.353 41.8976C50.3637 41.8833 50.3726 41.8672 50.3814 41.8512C50.3903 41.8351 50.3992 41.819 50.4098 41.8047C50.4169 41.7904 50.4241 41.7762 50.4383 41.7619C50.4454 41.7476 50.4525 41.7351 50.4596 41.7226C50.4667 41.7101 50.4738 41.6976 50.4809 41.6833C50.5022 41.6476 50.4809 41.619 50.4525 41.6119C50.5306 41.5119 50.6229 41.4262 50.7365 41.3619H50.7223C50.8204 41.3126 50.9212 41.2548 51.0213 41.1975C51.0804 41.1636 51.1402 41.1293 51.1981 41.0976C51.2194 41.0762 51.2407 41.0547 51.2691 41.0404C51.0348 41.119 50.8217 41.2262 50.6158 41.369C50.6158 41.369 50.559 41.3904 50.5448 41.4047C50.5448 41.4047 50.5022 41.419 50.4454 41.369C50.4383 41.3619 50.4383 41.3547 50.4383 41.3404C50.4629 41.2908 50.5138 41.2579 50.5689 41.2224C50.6088 41.1966 50.651 41.1694 50.6868 41.1333C50.7294 41.1333 50.7649 41.1333 50.7649 41.1762C51.5828 40.5349 52.5913 40.3865 53.6032 40.2376C54.2255 40.1461 54.8492 40.0543 55.4306 39.8476C55.491 39.8047 55.5531 39.7637 55.6152 39.7226C55.6774 39.6815 55.7395 39.6405 55.7999 39.5976C55.9035 39.5545 55.9963 39.4807 56.0946 39.4025C56.1917 39.3252 56.2942 39.2437 56.4177 39.1833C56.7444 38.9333 56.9929 38.6476 57.1208 38.2262C57.1208 38.1833 57.0782 38.1405 57.0782 38.1405C56.5384 38.719 55.9206 39.1762 55.2602 39.5119C54.6304 39.8442 53.9556 39.8934 53.2876 39.9422C53.0367 39.9605 52.7866 39.9787 52.5403 40.0119C52.5829 39.9262 52.6681 39.9262 52.7462 39.9262C52.7462 39.8247 52.7949 39.7811 52.8572 39.7251C52.8739 39.7101 52.8916 39.6943 52.9096 39.6762H53.0303C53.0516 39.6762 53.0623 39.6547 53.0729 39.6333C53.0836 39.6119 53.0942 39.5905 53.1155 39.5905C53.2007 39.5905 53.3215 39.5476 53.2789 39.5476C53.2137 39.4639 53.1191 39.497 53.0146 39.5336C52.9141 39.5688 52.8046 39.6071 52.7036 39.5476C52.7412 39.5064 52.7525 39.4569 52.7628 39.4119C52.7739 39.3633 52.7838 39.3199 52.8244 39.2976H52.9877C52.9877 39.2119 53.0729 39.1333 53.0729 39.1333C53.4433 38.9106 53.8009 38.7162 54.1519 38.5254C54.3863 38.398 54.618 38.272 54.8483 38.1405C54.8017 38.1405 54.7604 38.1596 54.7203 38.1782C54.6565 38.2078 54.5957 38.236 54.5216 38.1833C54.5642 38.1833 54.5642 38.153 54.5642 38.1226C54.5642 38.0922 54.5642 38.0619 54.6068 38.0619C54.8732 37.9907 55.1104 37.8754 55.3526 37.7575C55.5235 37.6744 55.697 37.59 55.8851 37.519C55.8293 37.519 55.7776 37.5341 55.7272 37.5487C55.6302 37.5769 55.5381 37.6037 55.4306 37.519C55.4588 37.5048 55.4816 37.4867 55.5041 37.4689C55.5495 37.4328 55.5937 37.3976 55.6792 37.3976V37.2762C55.6792 37.2333 55.7218 37.2333 55.7644 37.2333C55.7218 37.2333 55.6792 37.1905 55.6792 37.1905C55.7017 37.1451 55.7462 37.1357 55.7957 37.1253C55.8396 37.1161 55.8876 37.106 55.9277 37.069C55.8851 37.069 55.807 37.069 55.807 37.0262C55.9277 36.8619 56.1337 36.819 56.3396 36.7762C56.3183 36.7333 56.2775 36.7333 56.242 36.7333C56.2065 36.7333 56.1763 36.7333 56.1763 36.6905C56.1763 36.6476 56.2189 36.6476 56.2615 36.6476H56.1763C56.1094 36.614 56.1212 36.554 56.1294 36.5124C56.1317 36.501 56.1337 36.491 56.1337 36.4833C56.3005 36.2868 56.3553 36.0548 56.4099 35.8242C56.4366 35.7112 56.4632 35.5985 56.5029 35.4905C56.4603 35.4905 56.4177 35.4905 56.4177 35.4476C56.0184 35.8908 55.3855 36.0587 54.7843 36.2183L54.7276 36.2333H54.5216C54.3157 36.319 54.0245 36.319 53.8186 36.1905C53.7206 36.1391 53.6508 36.0749 53.5754 36.0055C53.525 35.9592 53.4721 35.9105 53.4067 35.8619C53.0729 35.6548 52.7462 35.4905 52.377 35.3619C51.3472 35.0333 50.2749 34.8619 49.2026 34.9048C49.502 34.74 49.82 34.6746 50.1422 34.6082C50.3091 34.5738 50.477 34.5392 50.6442 34.4905C50.7496 34.4594 50.8541 34.4274 50.9581 34.3955C51.5471 34.2149 52.1185 34.0398 52.7462 34.0762C52.6641 34.047 52.5589 34.0576 52.462 34.0673C52.4165 34.0718 52.3729 34.0762 52.3344 34.0762C51.8597 34.0408 51.3801 34.1465 50.8798 34.2568C50.7739 34.2802 50.667 34.3037 50.559 34.3262C50.363 34.367 50.1767 34.4255 49.9901 34.4842C49.7845 34.5488 49.5785 34.6136 49.3588 34.6548C49.2636 34.6876 49.1871 34.7436 49.1125 34.7981C48.9927 34.8857 48.8779 34.9696 48.6984 34.9476V34.8191C49.1103 34.3191 49.6074 33.8262 50.2678 33.7833C50.9062 33.6794 51.5082 33.7534 52.1361 33.8307C52.2416 33.8437 52.3478 33.8567 52.4551 33.8691C52.9699 33.9105 53.4515 34.0253 53.9704 34.149L54.0245 34.1619C54.1381 34.1619 54.202 34.2619 54.2639 34.3588C54.3142 34.4375 54.3632 34.5141 54.4364 34.5333C54.5375 34.5682 54.6386 34.5747 54.7397 34.5812C54.8872 34.5907 55.0346 34.6002 55.1821 34.6976C55.1821 34.6688 55.1772 34.6407 55.1725 34.613C55.163 34.5582 55.1538 34.5045 55.1821 34.4476C55.2737 34.3555 55.3787 34.3802 55.4821 34.4045C55.563 34.4236 55.643 34.4424 55.7147 34.4048C55.9399 34.265 55.7286 34.0505 55.5172 33.8357C55.4153 33.7322 55.3133 33.6286 55.2602 33.5333C55.2602 33.4905 55.3028 33.4476 55.3028 33.4476C55.396 33.5312 55.4829 33.6178 55.5691 33.7035C55.7847 33.9182 55.9956 34.1282 56.2899 34.2762C56.4958 34.3619 56.9929 34.4833 56.9077 34.2333C56.7619 33.9096 56.5127 33.6288 56.2611 33.3453C56.1575 33.2286 56.0535 33.1113 55.9561 32.9905V32.8262C55.8914 32.8262 55.8758 32.8015 55.8565 32.7708C55.8504 32.7611 55.8439 32.7508 55.8354 32.7405V32.5762C55.7313 32.5216 55.708 32.435 55.6845 32.348C55.6712 32.2985 55.6578 32.2488 55.6295 32.2048C55.5583 32.0894 55.5532 31.9475 55.5479 31.8012C55.5437 31.6848 55.5394 31.5656 55.5016 31.4548C55.4164 31.2048 55.3809 30.9976 55.3383 30.7476C55.2921 30.4919 55.2412 30.2473 55.1914 30.0079C55.1035 29.5854 55.0189 29.1788 54.969 28.7548C54.9033 28.1488 55.2094 27.6362 55.5222 27.1123C55.615 26.9569 55.7083 26.8006 55.7928 26.6405C56.0839 26.1405 56.4106 25.6477 56.9503 25.312C57.0681 24.8243 57.3885 24.4182 57.7073 24.0141L57.7315 23.9834C58.0462 23.5912 58.5716 23.3515 58.9589 23.1748L59.0027 23.1548C59.5779 22.8977 60.0963 22.7334 60.1034 22.7334H31.5767V44.7261H51.8159C52.3572 44.3338 52.8952 44.0862 53.5356 43.7915C53.8277 43.657 54.1412 43.5128 54.4861 43.3404C54.5591 43.3037 54.6459 43.261 54.7423 43.2136C55.3203 42.9292 56.2412 42.4761 56.5882 42.1333ZM50.166 39.1661C50.0857 39.1742 50.0006 39.1827 50.0327 39.1182C50.0625 38.9737 50.2106 38.9303 50.3551 38.888C50.417 38.8699 50.4783 38.852 50.5293 38.8263L50.5527 38.8143L50.5698 38.8052C50.6498 38.7627 50.7479 38.7106 50.8202 38.7409C50.869 38.8103 50.9295 38.8282 50.9883 38.8456C51.032 38.8586 51.0748 38.8712 51.1111 38.9046C50.9576 39.0587 50.7785 39.0739 50.5969 39.0893C50.4763 39.0995 50.3545 39.1098 50.2385 39.161C50.2176 39.161 50.192 39.1635 50.166 39.1661ZM43.8832 38.1617C43.8832 38.2046 43.9258 38.2474 43.9258 38.2474C44.92 37.126 45.8219 36.1688 47.1002 35.376C47.1344 35.3617 47.1217 35.3796 47.1047 35.4034C47.0795 35.4388 47.045 35.4874 47.1428 35.4617C47.566 35.3652 47.756 35.0027 47.9409 34.65C47.9887 34.5588 48.0362 34.4683 48.0873 34.3831C48.2812 34.0677 48.5566 33.8657 48.8342 33.662C49.0343 33.5152 49.2356 33.3675 49.4082 33.176C49.4082 33.2189 49.4082 33.2617 49.3655 33.3046C49.4082 33.3474 49.4508 33.3474 49.4934 33.3474C49.5683 33.2909 49.6501 33.2675 49.7285 33.2451C49.8284 33.2165 49.9228 33.1895 49.9905 33.0974C49.6638 32.9689 49.2448 32.926 48.9182 33.0546C48.0518 33.4689 47.3132 34.1331 46.6102 34.8831C46.1841 35.3331 45.7438 35.7546 45.2041 36.0474C44.8348 36.7903 44.4229 37.4546 43.8832 38.1617ZM47.3501 35.5052C47.3279 35.5498 47.3056 35.5731 47.2844 35.5953C47.265 35.6156 47.2464 35.635 47.2295 35.6689C47.187 35.7544 47.1444 35.79 47.0663 35.8327C47.0238 35.8327 46.9812 35.8327 46.9812 35.79C47.0238 35.6262 47.1444 35.4625 47.3076 35.4197C47.3501 35.4269 47.3501 35.4696 47.3501 35.5052ZM49.1661 41.8485C49.2016 41.8128 49.2442 41.7699 49.2654 41.727C49.3009 41.6413 49.081 41.6628 49.0455 41.6842C49.0133 41.7101 48.9928 41.736 48.9681 41.7673L48.9604 41.777C48.9308 41.8111 48.8961 41.8426 48.861 41.8746C48.8371 41.8963 48.813 41.9182 48.7901 41.9413C48.6908 42.0413 48.5914 42.1413 48.485 42.2342C48.4141 42.2985 48.6411 42.327 48.6908 42.2842C48.7475 42.2413 48.7972 42.1913 48.8468 42.1413C48.8658 42.1413 48.8847 42.1381 48.8973 42.136L48.906 42.1346L48.9107 42.1342C49.0283 42.0947 49.1158 42.0128 49.201 41.9332L49.2229 41.9128C49.2512 41.8842 49.2158 41.8556 49.1661 41.8485ZM48.5241 41.384C48.5232 41.3841 48.5227 41.3843 48.5223 41.3847C48.5214 41.3856 48.5214 41.3874 48.5214 41.391C48.4778 41.4208 48.4348 41.4513 48.3919 41.4816C48.2809 41.5602 48.1705 41.6383 48.0527 41.7052C47.9401 41.7687 47.8245 41.8235 47.708 41.8788C47.6409 41.9107 47.5734 41.9427 47.5059 41.9767C47.5059 41.9767 47.5059 41.9695 47.4988 41.9695C47.4846 41.9481 47.4562 41.941 47.4278 41.9552C47.2715 42.041 47.1366 42.1552 47.0159 42.2767C46.9946 42.291 46.9733 42.3124 46.9591 42.3338L46.8952 42.3981V42.4052C46.8667 42.4338 46.8383 42.4624 46.8028 42.5052C46.7955 42.5127 46.7898 42.5201 46.7843 42.5272C46.7741 42.5407 46.7646 42.5531 46.746 42.5624C46.7176 42.5767 46.6466 42.5767 46.6537 42.5338V42.5267C46.6324 42.541 46.604 42.5552 46.5827 42.5624C46.572 42.5695 46.5614 42.5749 46.5507 42.5802C46.5401 42.5856 46.5294 42.591 46.5188 42.5981C46.5117 42.591 46.4975 42.591 46.4904 42.591C46.4833 42.591 46.4691 42.591 46.462 42.5981C46.4454 42.6124 46.4288 42.6259 46.4123 42.6394C46.3791 42.6664 46.346 42.6933 46.3128 42.7267C46.2276 42.8052 46.1495 42.891 46.0714 42.9838C46.0714 42.9838 46.0714 42.991 46.0643 42.991C46.0643 42.9945 46.0625 42.9963 46.0607 42.9981C46.059 42.9999 46.0572 43.0017 46.0572 43.0052L46.043 43.0195C46.0403 43.0223 46.0386 43.025 46.0372 43.0273C46.0348 43.0311 46.0332 43.0338 46.0288 43.0338L46.0217 43.041C46.0146 43.0552 46.0075 43.0695 45.9933 43.0838C45.9862 43.091 45.972 43.0981 45.9578 43.0981C45.9507 43.091 45.9436 43.0838 45.9436 43.0767C45.94 43.0731 45.9382 43.0695 45.9365 43.066C45.9347 43.0624 45.9329 43.0588 45.9293 43.0552C45.9222 43.0445 45.9169 43.0338 45.9116 43.0231C45.9063 43.0124 45.9009 43.0017 45.8938 42.991V42.9838C45.8938 42.9802 45.8921 42.9767 45.8903 42.9731C45.8885 42.9695 45.8867 42.966 45.8867 42.9624L46.0146 42.8124L46.0217 42.8052C46.0288 42.7981 46.0359 42.7892 46.043 42.7803C46.0501 42.7713 46.0572 42.7624 46.0643 42.7552C46.0749 42.741 46.0874 42.7267 46.0998 42.7124C46.1122 42.6981 46.1246 42.6838 46.1353 42.6695C46.1388 42.6624 46.1424 42.657 46.1459 42.6517C46.1495 42.6463 46.153 42.641 46.1566 42.6338C46.1992 42.5767 46.2418 42.5195 46.2844 42.4552V42.4481C46.2915 42.441 46.2986 42.4338 46.2986 42.4195C46.3199 42.391 46.3412 42.3624 46.3554 42.3338L46.398 42.2481V42.241L46.4051 42.2338C46.4051 42.2302 46.4069 42.2285 46.4087 42.2267C46.4105 42.2249 46.4123 42.2231 46.4123 42.2195C46.4193 42.2017 46.4264 42.1856 46.4335 42.1696C46.4406 42.1535 46.4478 42.1374 46.4549 42.1195V42.1124L46.462 42.0838C46.4655 42.0767 46.4673 42.0695 46.4691 42.0624C46.4708 42.0552 46.4726 42.0481 46.4762 42.041V42.0338C46.4797 42.0231 46.4815 42.0124 46.4833 42.0017C46.485 41.991 46.4868 41.9802 46.4904 41.9695C46.4904 41.9624 46.4904 41.9481 46.4833 41.941C46.5259 41.8624 46.5827 41.791 46.6466 41.7195C46.6431 41.7195 46.6395 41.7213 46.6359 41.7231C46.6339 41.7241 46.6319 41.7252 46.6298 41.7258C46.6283 41.7264 46.6268 41.7267 46.6253 41.7267C46.5937 41.7465 46.5665 41.7731 46.5388 41.8C46.5167 41.8216 46.4943 41.8434 46.4691 41.8624C46.4265 41.8981 46.3412 41.841 46.398 41.7981C46.4335 41.7695 46.4619 41.741 46.4903 41.7124C46.4903 41.7124 46.4904 41.7052 46.4975 41.7052C46.5258 41.6796 46.553 41.6506 46.5804 41.6213C46.6217 41.5772 46.6636 41.5325 46.7105 41.4981C46.7602 41.4624 46.7957 41.4338 46.8383 41.3981C46.8454 41.391 46.8525 41.3838 46.8596 41.3838C46.8881 41.3481 46.9165 41.3124 46.952 41.2767C46.952 41.2767 46.9591 41.2767 46.9591 41.2695C47.2029 41.033 47.5456 40.9496 47.8954 40.8644C48.116 40.8107 48.3394 40.7563 48.5427 40.6624C48.6575 40.6146 48.7855 40.6334 48.9121 40.652C49.0125 40.6668 49.112 40.6814 49.2031 40.6624C49.3239 40.6624 49.4517 40.6624 49.5724 40.7481C49.2916 40.8976 49.0236 41.0686 48.7585 41.2378C48.6817 41.2868 48.605 41.3357 48.5285 41.3838C48.5265 41.3838 48.5251 41.3838 48.5241 41.384ZM49.4115 38.4728C49.3782 38.4766 49.3567 38.479 49.3751 38.4976C49.4959 38.619 49.7444 38.5762 49.9149 38.4833C50.0356 38.3976 50.1634 38.3976 50.3268 38.3976C50.3694 38.3976 50.3694 38.319 50.3694 38.2762C50.4901 38.319 50.5753 38.319 50.696 38.319C51.6831 38.1119 52.6347 37.9048 53.5437 37.4476C52.624 36.737 51.4901 36.4204 50.3794 36.1103C50.1952 36.0589 50.0115 36.0076 49.8296 35.9548C49.8696 35.9548 49.9096 35.9681 49.9499 35.9815C50.0311 36.0086 50.1134 36.036 50.1989 35.9548C50.0862 35.8649 49.9608 35.8477 49.8366 35.8307C49.7337 35.8166 49.6317 35.8026 49.5385 35.7476C49.5482 35.7476 49.5598 35.7499 49.5724 35.7523C49.6149 35.7605 49.6689 35.7709 49.7018 35.7048C49.4861 35.5963 49.2704 35.5594 49.0526 35.5222C48.9406 35.5031 48.8281 35.4839 48.7147 35.4548C48.9207 35.4119 49.0485 35.2476 49.0485 35.0405C49.0485 34.9976 48.9633 34.9976 48.9207 34.9976C48.4306 35.2476 48.0969 35.7048 47.8909 36.2405C48.0766 36.3498 48.2767 36.3371 48.4728 36.3247C48.5843 36.3176 48.6944 36.3107 48.7999 36.3262C48.7068 36.4147 48.5722 36.4387 48.4429 36.4618C48.3947 36.4704 48.3472 36.4788 48.3028 36.4905C48.175 36.5191 48.0543 36.6119 48.0969 36.6976C48.1253 36.7333 48.1537 36.7476 48.1892 36.7548C48.0969 36.7833 48.0117 36.8262 47.9335 36.9048C48.0505 36.9968 48.171 36.979 48.29 36.9615C48.3372 36.9545 48.3842 36.9476 48.4306 36.9476C48.4306 36.9995 48.4647 37.0171 48.5001 37.0355C48.5183 37.0449 48.5369 37.0545 48.5514 37.0691C48.3454 37.1476 48.1821 37.3191 48.1395 37.4405C48.0886 37.5642 47.9946 37.6446 47.9014 37.7243C47.8386 37.7781 47.7762 37.8315 47.7276 37.8976V38.0262C47.5904 38.1478 47.4494 38.2564 47.3103 38.3635C47.0247 38.5835 46.7472 38.7973 46.5274 39.1048C46.5701 39.1048 46.5701 39.1476 46.5701 39.1905C46.5308 39.2498 46.4749 39.2908 46.4218 39.3298C46.3599 39.3753 46.3019 39.4179 46.2789 39.4833C46.2789 39.5262 46.2789 39.569 46.3215 39.569C46.5821 39.4829 46.8076 39.3379 47.0286 39.1958C47.2292 39.0667 47.4261 38.9401 47.6424 38.8619C47.8191 38.8194 47.973 38.7393 48.1231 38.6611C48.2504 38.5948 48.3751 38.5298 48.5088 38.4905C48.6117 38.469 48.7254 38.4387 48.839 38.4083C48.9526 38.378 49.0662 38.3476 49.1692 38.3262C49.1692 38.369 49.1692 38.4119 49.2118 38.4119H49.5385C49.5184 38.4605 49.4549 38.4678 49.4115 38.4728Z" fill="#000091"/>
<path d="M92.077 22.7334H68.4207C68.4207 22.7334 68.4636 22.7406 68.6424 22.8335C68.8355 22.9337 69.0858 23.0696 69.2359 23.1482C69.5434 23.3056 69.8366 23.5058 70.0297 23.8134C70.1155 23.935 70.2371 24.1853 70.1584 24.3498C70.0726 24.5572 70.0297 24.8934 69.8223 24.972C69.572 25.1008 69.2431 25.1008 68.9499 25.0579C68.7854 25.0579 68.6209 25.0149 68.4493 24.972C69.0715 25.2224 69.6579 25.5156 70.0726 26.0949C70.1155 26.1807 70.28 26.2165 70.4445 26.2165C70.4874 26.2165 70.4874 26.3023 70.4874 26.3381C70.4016 26.4239 70.3229 26.4668 70.3658 26.5884H70.4874C70.6948 26.5026 70.6519 26.0878 70.9451 26.2165C71.1525 26.3381 71.2383 26.6313 71.1096 26.8387C70.9451 27.0032 70.7806 27.132 70.609 27.2536C70.5661 27.3394 70.5661 27.461 70.609 27.5468C70.7305 27.7113 70.7735 27.8758 70.8164 28.0475C70.9451 28.3407 70.9808 28.6697 71.1096 28.9629C71.274 29.5852 71.4385 30.2074 71.4028 30.8368C71.4028 31.1658 71.2383 31.459 71.3599 31.7952C71.4457 32.1242 71.6531 32.3745 71.8175 32.6678C71.982 32.9181 72.1465 33.0826 72.2752 33.3329C72.5255 33.7477 72.9832 34.1626 72.7758 34.6632C72.6542 34.9564 72.1965 34.9135 71.9033 35.078C71.6531 35.2854 71.8604 35.6216 71.9892 35.829C72.1965 36.2009 71.7389 36.4512 71.4457 36.58C71.5315 36.7087 71.696 36.6658 71.7389 36.7445C71.7818 36.9519 71.9892 37.0735 71.8604 37.2881C71.696 37.5384 71.1954 37.66 71.4457 38.039C71.6101 38.3323 71.5029 38.6541 71.4028 38.9545C71.2812 39.3264 70.9451 39.4909 70.6519 39.5767C70.4016 39.6626 70.1084 39.6626 69.8652 39.6197C69.7794 39.5767 69.7008 39.5338 69.615 39.5338C68.907 39.448 68.199 39.2477 67.4982 39.2477C67.2908 39.2907 67.0834 39.3264 66.9189 39.4122C66.733 39.5481 66.5614 39.6983 66.4184 39.8557C66.4184 39.8557 66.4184 39.8557 66.4112 39.8628C66.3826 39.8986 66.3468 39.9272 66.3182 39.963C66.3039 39.9844 66.2825 40.0059 66.2682 40.0273C66.2539 40.0416 66.2467 40.0559 66.2324 40.0702C66.1108 40.2204 66.0036 40.3849 65.9035 40.5494C65.8963 40.5637 65.8892 40.5709 65.882 40.578C65.8749 40.5995 65.8606 40.6138 65.8463 40.6353C65.7104 40.8856 65.6103 41.1431 65.5316 41.4005C65.2456 42.3518 65.3743 43.1671 65.5745 43.3674C65.6317 43.4246 66.9475 43.8323 67.8629 44.24C68.292 44.4331 68.5923 44.5761 68.8426 44.7335H92.0698V22.7334H92.077Z" fill="#E1000F"/>
<path d="M69.8256 30.7536C69.9897 30.7965 70.2393 30.7965 70.2393 30.8822C70.1537 31.2108 69.6616 31.2965 69.4119 31.6322H69.2836C69.1623 31.7179 69.198 31.9251 69.0767 31.9251C68.9555 31.8822 68.8271 31.9251 68.7058 31.9679C68.8699 32.1322 69.0767 32.2608 69.3264 32.2179C69.3692 32.2179 69.4476 32.3036 69.4476 32.3822C69.4476 32.3822 69.4904 32.3822 69.5332 32.3393C69.576 32.3393 69.6188 32.3393 69.6188 32.3822V32.5465C69.4975 32.7108 69.2836 32.6322 69.1195 32.6679C69.4547 32.7536 69.7828 32.7536 70.0753 32.6679C70.3249 32.5822 70.0753 32.1679 70.2393 31.9608C70.1537 31.9608 70.2393 31.8322 70.1537 31.8322C70.2393 31.7465 70.3178 31.6251 70.4034 31.5822C70.489 31.5822 70.6102 31.5393 70.653 31.4536C70.653 31.3679 70.489 31.3322 70.5246 31.2465C70.7743 31.0822 70.9811 30.8322 70.8955 30.5822C70.8527 30.4536 70.5246 30.4536 70.3178 30.3751C70.1109 30.2965 69.8613 30.3751 69.6117 30.4179C69.4048 30.4179 69.198 30.5465 68.9911 30.5822C68.6987 30.6679 68.4491 30.8322 68.2065 30.9965C68.499 30.8751 68.7843 30.8322 69.1195 30.7465C69.3692 30.7536 69.576 30.6965 69.8256 30.7536" fill="#808080"/>
<path d="M33.8427 73.0669V57.6669H38.5507C41.9387 57.6669 44.0287 59.4049 44.0287 62.2649C44.0287 64.1349 43.1267 65.5209 41.5427 66.2469L46.3607 73.0669H42.6867L38.5727 66.8409H36.9667V73.0669H33.8427ZM38.7267 60.2629H36.9667V64.2449H38.7267C40.0467 64.2449 40.8167 63.4749 40.8167 62.2209C40.8167 61.0549 40.0467 60.2629 38.7267 60.2629ZM54.5435 56.3468H51.7055L54.1915 53.3768H57.4035L54.5435 56.3468ZM48.6695 73.0669V57.6669H57.6455V60.2629H51.7935V63.9149H56.7655V66.5109H51.7935V70.4709H57.6455V73.0669H48.6695ZM61.6057 73.0669V57.6669H66.6877C70.0757 57.6669 72.1437 59.4049 72.1437 62.2649C72.1437 65.1029 70.0757 66.8409 66.6877 66.8409H64.7297V73.0669H61.6057ZM66.8197 60.2629H64.7297V64.2449H66.8197C68.1397 64.2449 68.9317 63.4749 68.9317 62.2209C68.9317 61.0549 68.1397 60.2629 66.8197 60.2629ZM84.1394 67.3029V57.6669H87.2634V67.0389C87.2634 71.0869 84.8874 73.5069 81.0154 73.5069C77.1654 73.5069 74.7894 71.0869 74.7894 67.0389V57.6669H77.9134V67.3029C77.9134 69.3709 79.0794 70.5809 81.0374 70.5809C82.9514 70.5809 84.1394 69.3709 84.1394 67.3029ZM91.4742 73.0669V57.6669H96.0062C99.2182 57.6669 101.176 59.2509 101.176 61.8469C101.176 63.1009 100.604 64.1789 99.5262 64.8829C101.154 65.6089 102.056 66.9289 102.056 68.5349C102.056 71.3509 99.8782 73.0669 96.3362 73.0669H91.4742ZM96.0722 60.2629H94.5982V63.7389H96.0722C97.2602 63.7389 97.9642 63.1009 97.9642 61.9789C97.9642 60.9009 97.2602 60.2629 96.0722 60.2629ZM96.5122 66.3349H94.5982V70.4709H96.5122C97.9642 70.4709 98.8442 69.7009 98.8442 68.4029C98.8442 67.0829 97.9642 66.3349 96.5122 66.3349ZM105.592 73.0669V57.6669H108.716V70.2289H114.568V73.0669H105.592ZM117.647 73.0669V57.6669H120.771V73.0669H117.647ZM138.32 72.6709C139.508 73.7489 140.564 74.1449 141.554 74.1449C141.884 74.1449 142.324 74.1009 142.654 73.9689V76.6089C142.148 76.8069 141.708 76.8949 141.026 76.8949C139.31 76.8949 137.726 76.1909 136.208 74.8709L134.382 73.2429C133.722 73.4189 133.018 73.5069 132.27 73.5069C127.408 73.5069 124.086 69.7669 124.086 65.3669C124.086 60.9669 127.408 57.2269 132.27 57.2269C137.11 57.2269 140.432 60.9669 140.432 65.3669C140.432 67.9409 139.288 70.2949 137.396 71.7909L138.32 72.6709ZM132.27 70.5809C135.152 70.5809 137.22 68.3149 137.22 65.3669C137.22 62.4189 135.152 60.1529 132.27 60.1529C129.366 60.1529 127.298 62.4189 127.298 65.3669C127.298 68.3149 129.366 70.5809 132.27 70.5809ZM152.838 67.3029V57.6669H155.962V67.0389C155.962 71.0869 153.586 73.5069 149.714 73.5069C145.864 73.5069 143.488 71.0869 143.488 67.0389V57.6669H146.612V67.3029C146.612 69.3709 147.778 70.5809 149.736 70.5809C151.65 70.5809 152.838 69.3709 152.838 67.3029ZM160.173 73.0669V57.6669H169.149V60.2629H163.297V63.9149H168.269V66.5109H163.297V70.4709H169.149V73.0669H160.173ZM33.8427 95.0669V79.6669H42.8187V82.2629H36.9667V85.9149H41.9387V88.5109H36.9667V95.0669H33.8427ZM45.898 95.0669V79.6669H50.606C53.994 79.6669 56.084 81.4049 56.084 84.2649C56.084 86.1349 55.182 87.5209 53.598 88.2469L58.416 95.0669H54.742L50.628 88.8409H49.022V95.0669H45.898ZM50.782 82.2629H49.022V86.2449H50.782C52.102 86.2449 52.872 85.4749 52.872 84.2209C52.872 83.0549 52.102 82.2629 50.782 82.2629ZM59.4549 95.0669L65.2849 79.6669H69.3769L75.2069 95.0669H71.8849L70.4109 91.0629H64.2509L62.7769 95.0669H59.4549ZM65.2189 88.4009H69.4429L67.3309 82.6149L65.2189 88.4009ZM77.915 95.0669V79.6669H81.919L88.805 90.7989V79.6669H91.929V95.0669H87.925L81.039 83.9349V95.0669H77.915ZM103.43 92.5809C105.19 92.5809 106.576 91.7229 107.456 90.4689L109.92 92.3609C108.732 93.9889 106.884 95.1329 104.64 95.4189L102.726 98.6089H99.954L101.89 95.3749C97.886 94.6709 95.246 91.2829 95.246 87.3669C95.246 82.9669 98.568 79.2269 103.43 79.2269C106.224 79.2269 108.512 80.4809 109.92 82.3509L107.456 84.2649C106.576 83.0109 105.19 82.1529 103.43 82.1529C100.526 82.1529 98.458 84.4189 98.458 87.3669C98.458 90.3149 100.526 92.5809 103.43 92.5809ZM110.918 95.0669L116.748 79.6669H120.84L126.67 95.0669H123.348L121.874 91.0629H115.714L114.24 95.0669H110.918ZM116.682 88.4009H120.906L118.794 82.6149L116.682 88.4009ZM129.378 95.0669V79.6669H132.502V95.0669H129.378ZM135.75 92.9329L138.016 90.8429C138.94 92.0309 140.172 92.7349 141.426 92.7349C142.658 92.7349 143.406 92.0749 143.406 90.9749C143.406 88.1369 136.41 88.9069 136.41 83.6929C136.41 81.2509 138.434 79.2269 141.382 79.2269C143.692 79.2269 145.452 80.2609 146.772 81.8229L144.484 83.8909C143.582 82.7249 142.57 81.9549 141.404 81.9549C140.304 81.9549 139.578 82.6589 139.578 83.5829C139.578 86.3769 146.574 85.5849 146.574 90.8649C146.53 93.7689 144.286 95.5069 141.448 95.5069C138.852 95.5069 137.114 94.5609 135.75 92.9329ZM150.18 95.0669V79.6669H159.156V82.2629H153.304V85.9149H158.276V88.5109H153.304V92.4709H159.156V95.0669H150.18Z" fill="#161616"/>
<path fill-rule="evenodd" clip-rule="evenodd" d="M88.7401 133.859L86.6938 135.729H86.1658L87.3759 133.595H88.7401V133.859ZM87.266 141.096H86.8259C86.2758 141.756 85.6597 142.284 85.0656 142.284C84.4495 142.284 84.1415 141.91 84.1415 141.096C84.1415 140.766 84.1855 140.414 84.2515 140.106L87.838 138.918C88.5422 137.246 87.706 136.52 86.7159 136.52C85.0216 136.52 83.0853 139.49 83.0853 141.866C83.0853 142.988 83.6134 143.604 84.4495 143.604C85.4177 143.582 86.4298 142.636 87.266 141.096ZM86.0351 137.489C86.5192 137.489 86.9373 137.863 86.7172 138.721L84.4949 139.315C84.847 138.259 85.5071 137.489 86.0351 137.489ZM79.0391 137.532H80.2273L78.335 142.724C78.159 143.164 78.4011 143.604 78.8631 143.604C80.2053 143.604 81.8116 142.46 82.4276 140.832H82.0976C81.6135 141.514 80.5574 142.262 79.7653 142.394L81.5035 137.532H83.2858L83.5058 136.784H81.7675L82.4276 134.914H81.7455L80.5134 136.784L79.0391 136.982V137.532ZM77.3877 136.543C77.6297 136.543 77.9598 136.807 77.8058 137.291L75.6714 142.461C76.2215 142.373 76.7936 141.845 77.1237 141.361H77.4757C76.9696 142.659 75.8255 143.605 74.8353 143.605C74.5933 143.605 74.2412 143.341 74.4173 142.857L76.3975 137.687C75.8475 137.775 75.2754 138.303 74.9453 138.787H74.6153C75.1214 137.467 76.3535 136.543 77.3877 136.543ZM78.0052 135.223C78.4453 135.223 78.8194 134.871 78.8194 134.409C78.8194 133.969 78.4453 133.595 78.0052 133.595C77.5432 133.595 77.1911 133.969 77.1911 134.409C77.1911 134.849 77.5652 135.223 78.0052 135.223ZM68.3895 139.513C68.8736 138.457 68.6976 137.973 68.3895 137.973C68.1255 137.973 67.8174 138.259 67.5094 138.787H67.1793C67.6854 137.665 68.3455 136.543 69.0716 136.543C69.6877 136.543 69.9077 137.159 69.9077 137.841V138.809C70.0068 138.694 70.1032 138.581 70.1974 138.47L70.1991 138.468L70.2005 138.467C71.1301 137.376 71.8398 136.543 72.6581 136.543C73.2962 136.543 73.6263 136.939 73.6263 137.533C73.6263 137.885 73.5163 138.325 73.2742 138.787L71.448 142.461C71.9981 142.373 72.5701 141.845 72.9002 141.361H73.2302C72.7242 142.681 71.492 143.605 70.4578 143.605C69.9958 143.605 69.7317 143.121 69.9297 142.725L72.0421 138.655C72.2841 138.193 72.3281 137.885 71.954 137.885C71.448 137.885 70.2598 138.721 69.6217 139.491L68.2355 143.143C68.0815 143.517 67.9275 143.605 67.5754 143.605C67.0033 143.605 66.7173 143.231 66.9813 142.637L68.3895 139.513ZM66.9577 138.104C67.1997 137.268 67.0677 136.52 66.4296 136.52C65.6338 136.52 65.3846 137.046 64.6135 138.672L64.5593 138.786V137.818C64.5593 137.136 64.3393 136.52 63.7232 136.52C62.9971 136.52 62.337 137.642 61.8309 138.764H62.161C62.513 138.258 62.8431 137.95 63.1071 137.95C63.4152 137.95 63.5912 138.434 63.1071 139.49L61.6989 142.614C61.4349 143.208 61.7209 143.582 62.293 143.582C62.645 143.582 62.7991 143.494 62.9531 143.12L64.3393 139.468C64.7354 138.984 65.0874 138.566 65.5275 138.104H66.9577ZM60.0052 138.721C60.2252 137.863 59.8071 137.489 59.3231 137.489C58.795 137.489 58.1349 138.259 57.7828 139.315L60.0052 138.721ZM60.5539 141.096H60.1138C59.5637 141.756 58.9476 142.284 58.3536 142.284C57.7375 142.284 57.4294 141.91 57.4294 141.096C57.4294 140.766 57.4734 140.414 57.5394 140.106L61.126 138.918C61.8301 137.246 60.9939 136.52 60.0038 136.52C58.3095 136.52 56.3733 139.49 56.3733 141.866C56.3733 142.988 56.9013 143.604 57.7375 143.604C58.7056 143.582 59.7178 142.636 60.5539 141.096ZM53.5152 137.532H52.3271V136.982L53.8013 136.784L55.0335 134.914H55.7156L55.0555 136.784H56.7937L56.5737 137.532H54.7914L53.0532 142.394C53.8453 142.262 54.9014 141.514 55.3855 140.832H55.7156C55.0995 142.46 53.4932 143.604 52.151 143.604C51.689 143.604 51.4469 143.164 51.623 142.724L53.5152 137.532ZM46.0352 141.558C46.0352 139.952 47.8175 137.797 48.8076 137.797C49.0277 137.797 49.2477 137.819 49.4237 137.885L48.3896 140.656C47.7955 141.382 46.8714 142.262 46.4313 142.262C46.1893 142.262 46.0352 142.042 46.0352 141.558ZM50.9425 136.191L51.4926 136.235L49.5783 140.634C49.1162 141.69 49.3143 142.174 49.5783 142.174C49.8424 142.174 50.1724 141.866 50.5245 141.36H50.8545C50.3484 142.482 49.6883 143.604 48.9622 143.604C48.3461 143.604 47.9721 142.944 48.0821 141.756L48.1261 141.338L48.0063 141.506C47.2181 142.607 46.5049 143.604 45.7718 143.604C45.1337 143.604 44.8036 143.208 44.8036 142.614C44.8036 140.062 47.598 136.807 50.2164 136.807H50.3264L50.9425 136.191ZM45.9024 138.104C46.1444 137.268 46.0124 136.52 45.3743 136.52C44.5785 136.52 44.3294 137.046 43.5582 138.672L43.504 138.786V137.818C43.504 137.136 43.284 136.52 42.6679 136.52C41.9418 136.52 41.2817 137.642 40.7756 138.764H41.1057C41.4577 138.258 41.7878 137.95 42.0298 137.95C42.3379 137.95 42.5139 138.434 42.0298 139.49L40.6216 142.636C40.3576 143.23 40.6436 143.604 41.2157 143.604C41.5678 143.604 41.7218 143.516 41.8758 143.142L43.262 139.49C43.6581 139.006 44.0101 138.588 44.4502 138.126H45.9024V138.104ZM36.8354 142.942L36.7034 143.338H31.5767L31.7087 142.92C33.2929 142.634 33.557 142.502 34.217 140.721L35.6473 136.893C36.2854 135.111 36.1533 134.979 34.7671 134.693L34.8991 134.297H41.5661L41.1701 136.431H40.686C40.686 135.155 40.554 134.825 39.3438 134.825H39.0358C37.8476 134.825 37.6936 135.001 37.3635 135.925L36.4174 138.499H37.8036C38.7277 138.499 39.0798 137.927 39.4978 137.179H39.9819L38.8377 140.303H38.3537C38.4637 139.357 38.4637 138.983 37.6055 138.983H36.2193L35.5813 140.743C34.8915 142.574 35.0886 142.612 36.7311 142.923C36.7652 142.929 36.8 142.936 36.8354 142.942Z" fill="black"/>
<path fill-rule="evenodd" clip-rule="evenodd" d="M41.1921 117.029L39.1457 118.504V118.526H38.6176L39.8278 116.765H41.1921V117.029ZM55.4966 127.352L58.7752 118.636L58.6652 118.504L56.3988 118.768V119.032L56.8388 119.362C57.2146 119.655 57.1151 119.927 56.8033 120.781L56.7508 120.925L54.2424 127.616C54.0443 128.013 54.3084 128.497 54.7705 128.497C55.8047 128.497 56.9049 127.55 57.4109 126.252H57.0809C56.7288 126.736 56.0247 127.264 55.4966 127.352ZM70.5237 120.639L72.5701 118.768V118.504H71.2059L69.9956 120.639H70.5237ZM70.6543 125.988H71.0944C70.2803 127.55 69.2681 128.497 68.2999 128.497C67.4638 128.497 66.9357 127.88 66.9357 126.758C66.9357 124.381 68.872 121.409 70.5663 121.409C71.5345 121.409 72.3926 122.136 71.6885 123.808L68.0799 124.997C68.0139 125.305 67.9698 125.657 67.9698 125.988C67.9698 126.802 68.2779 127.176 68.894 127.176C69.4881 127.176 70.1042 126.648 70.6543 125.988ZM70.5432 123.61C70.7633 122.774 70.3452 122.4 69.8611 122.4C69.355 122.4 68.6949 123.17 68.3209 124.205L70.5432 123.61ZM64.0741 122.443H62.8858V121.893L64.3601 121.695L65.5923 119.824H66.2744L65.6143 121.695H67.3526L67.1326 122.443H65.3503L63.612 127.308C64.4041 127.176 65.4603 126.427 65.9444 125.745H66.2744C65.6583 127.374 64.0521 128.518 62.7098 128.518C62.2477 128.518 62.0057 128.078 62.1817 127.638L64.0741 122.443ZM61.6535 122.179C61.7855 121.695 61.4775 121.431 61.2134 121.431C60.1792 121.431 58.947 122.377 58.4409 123.676H58.771C59.101 123.192 59.6731 122.663 60.2232 122.575L58.2429 127.748C58.0668 128.232 58.4189 128.496 58.661 128.496C59.6511 128.496 60.7953 127.55 61.3014 126.251H60.9714C60.6413 126.735 60.0692 127.264 59.5191 127.352L61.6535 122.179ZM62.6673 119.318C62.6673 119.758 62.2932 120.133 61.8531 120.133C61.4131 120.133 61.039 119.758 61.039 119.318C61.039 118.878 61.3911 118.504 61.8531 118.504C62.2932 118.504 62.6673 118.878 62.6673 119.318ZM51.5576 122.708C50.5674 122.708 48.7851 124.865 48.7851 126.472C48.7851 126.956 48.9392 127.176 49.2032 127.176C49.6213 127.176 50.5454 126.296 51.1395 125.569L52.1737 122.796C51.9757 122.73 51.7777 122.708 51.5576 122.708ZM54.2426 121.145L53.6925 121.101L53.0764 121.717H52.9664C50.348 121.717 47.5535 124.975 47.5535 127.528C47.5535 128.123 47.8835 128.519 48.5216 128.519C49.2548 128.519 49.968 127.521 50.7562 126.419L50.876 126.252L50.832 126.67C50.722 127.858 51.0961 128.519 51.7122 128.519C52.4383 128.519 53.0984 127.396 53.6045 126.274H53.2745C52.9224 126.78 52.5924 127.088 52.3283 127.088C52.0643 127.088 51.8662 126.604 52.3283 125.547L54.2426 121.145ZM43.1514 128.277C42.2053 128.651 41.5451 129.091 41.5451 129.774C41.5451 130.412 42.1393 130.676 43.3715 130.676C45.0218 130.676 45.9239 130.192 45.9239 129.554C45.9239 129.267 45.5499 129.135 44.5597 128.805C43.9216 128.607 43.4595 128.431 43.1514 128.277ZM44.2502 125.569C43.8101 125.569 43.6561 125.195 43.6561 124.799C43.6561 123.522 44.2722 121.938 45.2624 121.938C45.7024 121.938 45.8565 122.312 45.8565 122.708C45.8345 124.007 45.2184 125.569 44.2502 125.569ZM45.0886 127.638C46.2988 128.013 47.0469 128.299 47.0469 129.135C47.0469 130.214 45.0665 131.49 42.6681 131.468C41.2819 131.468 40.0937 131.094 40.0937 130.192C40.0937 129.333 40.8858 128.629 42.8221 128.057C42.5581 127.88 42.4481 127.66 42.4481 127.352C42.4481 126.824 42.9322 126.406 43.7683 126.01C42.9542 125.899 42.4261 125.283 42.4261 124.381C42.4261 122.994 43.5703 121.409 45.3746 121.409C45.7487 121.409 46.0787 121.497 46.3428 121.673H48.3231L48.1031 122.422H46.9369C47.0029 122.62 47.0469 122.84 47.0469 123.082C47.0469 124.425 45.9687 125.966 44.2524 126.054C43.8123 126.296 43.5923 126.626 43.5923 126.89C43.5923 127.201 43.9522 127.306 44.7477 127.538C44.8536 127.569 44.9671 127.602 45.0886 127.638ZM38.1118 123.875C38.97 123.875 38.992 124.249 38.86 125.195H39.344L40.4882 122.07H40.0042C39.5861 122.818 39.234 123.39 38.3099 123.39H36.4175L37.3417 120.815C37.6717 119.891 37.8258 119.715 39.014 119.715H39.8501C41.0603 119.715 41.1924 120.045 41.1924 121.321H41.6765L42.0725 119.186H34.8993L34.7672 119.582C36.1535 119.869 36.2855 120.001 35.6474 121.784L34.2171 125.635C33.557 127.418 33.293 127.55 31.6867 127.837L31.5767 128.255H39.5421L40.9723 125.988H40.4222C39.4981 126.89 38.5739 127.727 36.7696 127.727C34.785 127.727 34.8203 127.629 35.4158 125.993C35.4541 125.888 35.4948 125.776 35.5374 125.658L36.1975 123.897H38.1118V123.875Z" fill="black"/>
<path fill-rule="evenodd" clip-rule="evenodd" d="M44.6844 105.027C45.1243 105.027 45.4982 104.654 45.4982 104.214C45.4982 103.774 45.1243 103.4 44.6844 103.4C44.2225 103.4 43.8705 103.774 43.8705 104.214C43.8705 104.676 44.2225 105.027 44.6844 105.027ZM51.1975 107.798C51.1975 106.742 50.9335 106.346 50.1857 106.346C49.2618 106.346 48.404 107.336 47.5462 108.523L49.3938 103.575L49.2838 103.422L47.0183 103.685V103.949L47.4582 104.279C47.8412 104.577 47.7302 104.875 47.4039 105.75L47.3702 105.84L45.3686 111.074C45.1926 111.514 44.9947 112.042 44.9947 112.174C44.9947 112.789 45.8305 113.383 46.6004 113.383C48.316 113.405 51.1975 110.239 51.1975 107.798ZM70.2678 105.555L72.3134 103.685V103.422H70.9497L69.7399 105.555H70.2678ZM70.4003 110.898H70.8402C70.0044 112.46 68.9926 113.405 68.0248 113.383C67.1889 113.383 66.661 112.789 66.661 111.668C66.661 109.293 68.5966 106.324 70.2903 106.324C71.2581 106.324 72.116 107.05 71.4121 108.721L67.8268 109.909C67.7608 110.217 67.7168 110.568 67.7168 110.898C67.7168 111.712 68.0248 112.086 68.6406 112.086C69.2345 112.086 69.8504 111.558 70.4003 110.898ZM70.2882 108.523C70.5082 107.688 70.0902 107.314 69.6063 107.314C69.0784 107.314 68.4186 108.084 68.0666 109.117L70.2882 108.523ZM63.797 107.359H62.6092V106.809L64.0829 106.612L65.3147 104.742H65.9966L65.3367 106.612H67.0743L66.8544 107.359H65.0727L63.3351 112.219C64.1269 112.087 65.1827 111.339 65.6666 110.658H65.9966C65.3807 112.285 63.775 113.429 62.4332 113.429C61.9713 113.429 61.7294 112.989 61.9053 112.549L63.797 107.359ZM61.9975 107.931C62.2394 107.095 62.1075 106.348 61.4696 106.348C60.6741 106.348 60.425 106.873 59.6541 108.498L59.5999 108.613V107.645C59.5999 106.963 59.38 106.348 58.7641 106.348C58.0382 106.348 57.3784 107.469 56.8725 108.591H57.2024C57.5543 108.085 57.8843 107.777 58.1262 107.777C58.4342 107.777 58.6101 108.261 58.1262 109.316L56.7185 112.439C56.4546 113.033 56.7405 113.406 57.3124 113.406C57.6643 113.406 57.8183 113.319 57.9723 112.945L59.358 109.294C59.7539 108.81 60.1059 108.393 60.5458 107.931H61.9975ZM55.0253 108.523C55.2453 107.688 54.8274 107.314 54.3435 107.314C53.8156 107.314 53.1777 108.084 52.8038 109.117L55.0253 108.523ZM55.5739 110.898H55.1339C54.5841 111.558 53.9682 112.086 53.3743 112.086C52.7584 112.086 52.4505 111.712 52.4505 110.898C52.4505 110.568 52.4945 110.217 52.5604 109.909L56.1458 108.721C56.8496 107.05 56.0138 106.324 55.024 106.324C53.3303 106.324 51.3947 109.293 51.3947 111.668C51.3947 112.789 51.9226 113.383 52.7584 113.383C53.7262 113.405 54.738 112.46 55.5739 110.898ZM46.3373 111.735C46.3373 112.021 46.8432 112.35 47.1951 112.35C48.6248 112.35 49.9666 109.778 49.9446 108.348C49.9446 107.864 49.7026 107.666 49.3727 107.666C48.8448 107.666 47.877 108.458 47.2611 109.206L46.6892 110.745C46.4912 111.251 46.3373 111.647 46.3373 111.735ZM44.0281 106.348C44.2921 106.348 44.6 106.611 44.468 107.095L42.3564 112.263C42.9063 112.175 43.4782 111.647 43.8082 111.163H44.1381C43.6322 112.461 42.4884 113.406 41.4986 113.406C41.2346 113.406 40.8827 113.143 41.0587 112.659L43.0383 107.491C42.4884 107.579 41.9165 108.107 41.5866 108.591H41.2566C41.7625 107.293 42.9943 106.348 44.0281 106.348ZM34.898 104.061H39.6271L39.4951 104.478C37.8895 104.764 37.6255 104.896 36.9656 106.677L35.5579 110.548C34.876 112.395 35.052 112.615 36.2618 112.615C37.7564 112.615 38.7365 111.529 39.5923 110.58C39.6558 110.51 39.7187 110.44 39.7811 110.372H40.331L38.7693 113.143H31.5767L31.7086 112.747C33.2923 112.461 33.5563 112.329 34.2162 110.548L35.6459 106.655C36.2838 104.874 36.1518 104.742 34.766 104.456L34.898 104.061Z" fill="black"/>
<path d="M411.355 70.617V95.8782H407.077V93.4171C405.183 95.468 403.289 96.3226 400.659 96.3226C395.119 96.3226 390.911 92.0156 390.911 86.3754C390.911 80.701 395.189 76.2572 400.659 76.2572C403.079 76.2572 405.323 77.146 406.691 78.6158V70.617H411.355ZM401.291 80.4275C398.1 80.4275 395.61 82.9229 395.61 86.1703C395.61 89.5544 398.135 92.1523 401.396 92.1523C404.552 92.1523 407.042 89.5886 407.042 86.307C407.042 82.9571 404.552 80.4275 401.291 80.4275Z" fill="#161616"/>
<path d="M434.497 76.9409V95.8782H430.219V93.4171C428.361 95.5022 426.502 96.3226 423.767 96.3226C418.086 96.3226 413.983 92.1865 413.983 86.4779C413.983 80.701 418.121 76.4965 423.872 76.4965C426.677 76.4965 428.606 77.3852 430.219 79.4704V76.9409H434.497ZM424.363 80.6668C421.032 80.6668 418.682 83.128 418.682 86.5805C418.682 89.8962 421.032 92.1523 424.433 92.1523C426.222 92.1523 427.729 91.5712 428.676 90.4431C429.518 89.486 430.079 87.9136 430.079 86.5463C430.079 83.0938 427.694 80.6668 424.363 80.6668Z" fill="#161616"/>
<path d="M438.907 95.8782V81.077H436.628V76.9409H438.907V70.617H443.571V76.9409H446.376V81.077H443.571V95.8782H438.907Z" fill="#161616"/>
<path d="M467.766 76.9409V95.8782H463.488V93.4171C461.629 95.5022 459.771 96.3226 457.036 96.3226C451.355 96.3226 447.252 92.1865 447.252 86.4779C447.252 80.701 451.39 76.4965 457.141 76.4965C459.946 76.4965 461.875 77.3852 463.488 79.4704V76.9409H467.766ZM457.632 80.6668C454.301 80.6668 451.951 83.128 451.951 86.5805C451.951 89.8962 454.301 92.1523 457.702 92.1523C459.49 92.1523 460.998 91.5712 461.945 90.4431C462.787 89.486 463.348 87.9136 463.348 86.5463C463.348 83.0938 460.963 80.6668 457.632 80.6668Z" fill="#161616"/>
<path d="M473.698 96.0492C472.996 96.0492 472.389 95.7985 471.874 95.2971C471.36 94.7958 471.103 94.2033 471.103 93.5196C471.103 92.8132 471.36 92.2093 471.874 91.7079C472.389 91.2066 472.996 90.9559 473.698 90.9559C474.399 90.9559 475.007 91.2066 475.521 91.7079C476.035 92.2093 476.293 92.8132 476.293 93.5196C476.293 94.2033 476.035 94.7958 475.521 95.2971C475.007 95.7985 474.399 96.0492 473.698 96.0492Z" fill="#161616"/>
<path d="M495.003 76.9409H499.456V92.289C499.456 95.9124 498.86 98.2369 497.493 99.9802C495.669 102.236 492.899 103.433 489.392 103.433C484.623 103.433 480.977 101.211 479.399 97.4165H484.694C486.061 98.8863 487.394 99.4333 489.568 99.4333C493.039 99.4333 494.828 97.4507 495.003 93.3829C493.18 95.468 491.356 96.3226 488.621 96.3226C483.081 96.3226 479.083 92.1181 479.083 86.2728C479.083 80.6668 483.151 76.4965 488.656 76.4965C491.461 76.4965 493.53 77.4194 495.003 79.3337V76.9409ZM489.182 80.6668C485.921 80.6668 483.782 82.9913 483.782 86.4779C483.782 89.9304 485.921 92.1523 489.252 92.1523C492.619 92.1523 494.793 89.8962 494.793 86.4779C494.793 82.9913 492.513 80.6668 489.182 80.6668Z" fill="#161616"/>
<path d="M512.327 76.4965C518.183 76.4965 522.707 80.9061 522.707 86.5463C522.707 91.8788 518.008 96.3226 512.362 96.3226C506.681 96.3226 502.053 91.8788 502.053 86.4095C502.053 80.9745 506.681 76.4965 512.327 76.4965ZM512.362 80.6668C509.276 80.6668 506.752 83.2305 506.752 86.3412C506.752 89.5886 509.241 92.1523 512.397 92.1523C515.483 92.1523 518.008 89.5886 518.008 86.4095C518.008 83.2305 515.483 80.6668 512.362 80.6668Z" fill="#161616"/>
<path d="M542.261 76.9409V95.8782H537.948V94.0665C536.16 95.7415 534.722 96.3226 532.372 96.3226C529.813 96.3226 527.744 95.3313 526.446 93.5196C525.359 91.9814 524.974 90.3064 524.974 87.0932V76.9409H529.637V86.2045C529.637 88.7682 529.918 90.1355 530.584 90.9559C531.215 91.7763 532.127 92.1523 533.319 92.1523C534.897 92.1523 536.195 91.537 536.861 90.409C537.422 89.5886 537.597 88.3922 537.597 85.8626V76.9409H542.261Z" fill="#161616"/>
<path d="M551.507 95.8782L543.688 76.9409H548.877L553.366 89.486L557.784 76.9409H563.044L555.224 95.8782H551.507Z" fill="#161616"/>
<path d="M568.161 96.0492C567.46 96.0492 566.852 95.7985 566.338 95.2971C565.824 94.7958 565.566 94.2033 565.566 93.5196C565.566 92.8132 565.824 92.2093 566.338 91.7079C566.852 91.2066 567.46 90.9559 568.161 90.9559C568.863 90.9559 569.471 91.2066 569.985 91.7079C570.499 92.2093 570.756 92.8132 570.756 93.5196C570.756 94.2033 570.499 94.7958 569.985 95.2971C569.471 95.7985 568.863 96.0492 568.161 96.0492Z" fill="#161616"/>
<path d="M568.882 105.791C568.232 105.791 567.723 105.64 567.356 105.337C566.989 105.062 566.805 104.745 566.805 104.387C566.805 104.139 566.89 103.85 567.06 103.52L567.653 102.28H567.907L568.712 102.735C569.136 102.983 569.715 103.107 570.449 103.107C571.72 103.107 572.709 102.501 573.415 101.289C574.15 100.078 574.672 98.508 574.983 96.5804L577.61 79.1086H574.263V77.2912H577.864L578.118 75.6391C578.203 75.0883 578.457 74.3724 578.881 73.4912C579.305 72.6101 579.87 71.6876 580.576 70.7238C581.282 69.7325 582.087 68.7963 582.991 67.9151C583.923 67.034 584.912 66.318 585.957 65.7673C587.031 65.189 588.132 64.8999 589.262 64.8999C589.516 64.8999 589.785 64.9412 590.067 65.0238C590.35 65.0789 590.576 65.1477 590.745 65.2303C591.112 65.4231 591.367 65.6021 591.508 65.7673C591.649 65.905 591.72 66.0702 591.72 66.263C591.72 66.3731 591.677 66.5245 591.593 66.7173C591.536 66.8825 591.466 67.034 591.381 67.1716L590.703 68.4108H590.406L589.432 67.9564C588.725 67.6535 587.878 67.5021 586.889 67.5021C585.421 67.5021 584.248 68.1079 583.373 69.3195C582.497 70.5311 581.918 72.0869 581.635 73.9869L581.127 77.2912H585.915V79.1086H580.873L578.457 95.0108C578.373 95.534 578.147 96.2362 577.78 97.1174C577.412 98.0261 576.918 98.9761 576.297 99.9674C575.703 100.959 575.011 101.895 574.22 102.776C573.458 103.657 572.624 104.373 571.72 104.924C570.816 105.502 569.87 105.791 568.882 105.791Z" fill="#161616"/>
<path d="M586.649 95.8782L589.573 79.8108L586.268 78.3652V78.1173L592.242 76.8782H592.37V81.9586H592.539C593.443 80.334 594.206 79.1775 594.827 78.4891C595.477 77.7731 596.042 77.3325 596.522 77.1673C597.03 76.9746 597.482 76.8782 597.878 76.8782C598.386 76.8782 598.852 77.0434 599.276 77.3738C599.7 77.6767 599.912 78.0347 599.912 78.4478C599.912 78.5854 599.869 78.7369 599.785 78.9021L598.725 81.0086H598.471L598.005 80.6782C597.779 80.513 597.525 80.4028 597.242 80.3478C596.988 80.2652 596.734 80.2239 596.48 80.2239C595.971 80.2239 595.505 80.334 595.081 80.5543C594.686 80.747 594.234 81.1739 593.725 81.8347C593.245 82.4681 592.624 83.4318 591.861 84.726L589.87 95.8782H586.649Z" fill="#161616"/>
<path d="M233.152 97.858C230.952 97.858 229.272 97.201 228.11 95.8872C226.949 94.5427 226.369 92.6024 226.369 90.0663C226.369 88.4774 226.674 86.8885 227.285 85.2996C227.927 83.6802 228.783 82.1982 229.852 80.8538C230.952 79.4788 232.174 78.3788 233.519 77.5538C234.894 76.7288 236.299 76.3163 237.736 76.3163C238.866 76.3163 239.783 76.5302 240.486 76.9579C241.188 77.3552 241.754 77.8899 242.181 78.5621C242.365 78.8371 242.487 79.0663 242.548 79.2496C242.609 79.4329 242.64 79.6316 242.64 79.8454C242.64 80.0593 242.579 80.2732 242.456 80.4871C242.365 80.701 242.197 80.8843 241.952 81.0371L240.623 81.8163H240.302L239.386 80.4871C238.897 79.7538 238.392 79.2191 237.873 78.8829C237.384 78.5163 236.666 78.3329 235.719 78.3329C234.711 78.3329 233.748 78.8218 232.831 79.7996C231.945 80.7774 231.212 82.0302 230.631 83.558C230.081 85.0552 229.806 86.6288 229.806 88.2788C229.806 90.4483 230.173 92.1135 230.906 93.2746C231.67 94.4358 232.892 95.0163 234.573 95.0163C235.092 95.0163 235.673 94.9247 236.315 94.7413C236.956 94.5274 237.659 94.1149 238.423 93.5038C239.187 92.8621 240.027 91.8996 240.944 90.6163H241.036L241.494 90.983C240.18 93.3052 238.851 95.0316 237.506 96.1622C236.162 97.2927 234.711 97.858 233.152 97.858ZM249.87 97.858C248.648 97.858 247.655 97.3385 246.891 96.2997C246.158 95.2302 245.791 93.6413 245.791 91.533C245.791 89.6385 246.081 87.7899 246.662 85.9871C247.273 84.1843 248.098 82.5496 249.137 81.0829C250.206 79.6163 251.429 78.4552 252.804 77.5996C254.179 76.744 255.645 76.3163 257.204 76.3163C257.968 76.3163 258.701 76.4079 259.404 76.5913C260.106 76.7746 260.733 77.019 261.283 77.3246L262.887 76.3163H264.033L261.237 91.9455C261.084 92.8621 261.054 93.5191 261.145 93.9163C261.268 94.3135 261.527 94.5122 261.924 94.5122C262.444 94.5122 263.009 94.2372 263.62 93.6871C264.231 93.1066 264.812 92.2358 265.362 91.0746L265.958 91.3496C265.072 93.6413 264.109 95.3066 263.07 96.3455C262.062 97.3538 261.023 97.858 259.954 97.858C258.884 97.858 258.151 97.4455 257.754 96.6205C257.356 95.7955 257.28 94.6955 257.524 93.3205L257.754 92.1288H257.57C256.409 93.901 255.187 95.3066 253.904 96.3455C252.62 97.3538 251.276 97.858 249.87 97.858ZM249.274 89.7455C249.274 91.4566 249.458 92.7399 249.824 93.5955C250.222 94.4205 250.955 94.833 252.024 94.833C252.758 94.833 253.491 94.5885 254.224 94.0996C254.958 93.6108 255.661 92.9844 256.333 92.2205C257.005 91.4566 257.601 90.6774 258.12 89.883L259.816 80.4413C259.236 79.6774 258.64 79.0968 258.029 78.6996C257.448 78.3024 256.73 78.1038 255.874 78.1038C254.561 78.1038 253.399 78.6691 252.391 79.7996C251.413 80.9302 250.649 82.3816 250.099 84.1538C249.549 85.926 249.274 87.7899 249.274 89.7455ZM272.79 97.858C271.568 97.858 270.575 97.3385 269.811 96.2997C269.078 95.2302 268.711 93.6413 268.711 91.533C268.711 89.6385 269.001 87.7899 269.582 85.9871C270.193 84.1843 271.018 82.5496 272.057 81.0829C273.126 79.6163 274.349 78.4552 275.724 77.5996C277.099 76.744 278.565 76.3163 280.124 76.3163C281.224 76.3163 282.278 76.5149 283.286 76.9121L285.165 66.2329L281.178 64.6746V64.3996L289.107 63.0246H289.244L284.157 91.9455C284.004 92.8621 283.974 93.5191 284.065 93.9163C284.157 94.3135 284.417 94.5122 284.844 94.5122C285.364 94.5122 285.929 94.2372 286.54 93.6871C287.151 93.1066 287.732 92.2358 288.282 91.0746L288.878 91.3496C287.992 93.6413 287.029 95.3066 285.99 96.3455C284.982 97.3538 283.943 97.858 282.874 97.858C281.804 97.858 281.071 97.4455 280.674 96.6205C280.276 95.7955 280.2 94.6955 280.444 93.3205L280.674 92.1288H280.49C277.924 95.9483 275.357 97.858 272.79 97.858ZM272.194 89.7455C272.194 91.6705 272.408 92.9996 272.836 93.733C273.264 94.4663 273.967 94.833 274.944 94.833C275.831 94.833 276.824 94.3899 277.924 93.5038C279.024 92.5871 280.062 91.3802 281.04 89.883L282.69 80.4871C282.049 79.6316 281.422 79.0204 280.811 78.6538C280.231 78.2871 279.558 78.1038 278.794 78.1038C277.572 78.1038 276.457 78.6385 275.449 79.7079C274.471 80.7774 273.676 82.1982 273.065 83.9705C272.485 85.7121 272.194 87.6371 272.194 89.7455ZM296.241 97.858C295.019 97.858 294.026 97.3385 293.262 96.2997C292.528 95.2302 292.162 93.6413 292.162 91.533C292.162 89.6385 292.452 87.7899 293.032 85.9871C293.644 84.1843 294.469 82.5496 295.508 81.0829C296.577 79.6163 297.799 78.4552 299.174 77.5996C300.549 76.744 302.016 76.3163 303.574 76.3163C304.338 76.3163 305.071 76.4079 305.774 76.5913C306.477 76.7746 307.103 77.019 307.653 77.3246L309.258 76.3163H310.403L307.608 91.9455C307.455 92.8621 307.424 93.5191 307.516 93.9163C307.638 94.3135 307.898 94.5122 308.295 94.5122C308.814 94.5122 309.38 94.2372 309.991 93.6871C310.602 93.1066 311.183 92.2358 311.733 91.0746L312.328 91.3496C311.442 93.6413 310.48 95.3066 309.441 96.3455C308.433 97.3538 307.394 97.858 306.324 97.858C305.255 97.858 304.521 97.4455 304.124 96.6205C303.727 95.7955 303.651 94.6955 303.895 93.3205L304.124 92.1288H303.941C302.78 93.901 301.558 95.3066 300.274 96.3455C298.991 97.3538 297.646 97.858 296.241 97.858ZM295.645 89.7455C295.645 91.4566 295.828 92.7399 296.195 93.5955C296.592 94.4205 297.326 94.833 298.395 94.833C299.128 94.833 299.862 94.5885 300.595 94.0996C301.328 93.6108 302.031 92.9844 302.703 92.2205C303.376 91.4566 303.971 90.6774 304.491 89.883L306.187 80.4413C305.606 79.6774 305.01 79.0968 304.399 78.6996C303.819 78.3024 303.101 78.1038 302.245 78.1038C300.931 78.1038 299.77 78.6691 298.762 79.7996C297.784 80.9302 297.02 82.3816 296.47 84.1538C295.92 85.926 295.645 87.7899 295.645 89.7455ZM319.7 97.858C318.142 97.858 316.874 97.6441 315.896 97.2163C314.918 96.758 314.215 96.1927 313.788 95.5205C313.604 95.2455 313.482 95.0163 313.421 94.833C313.36 94.6497 313.329 94.451 313.329 94.2371C313.329 94.0538 313.36 93.8705 313.421 93.6871C313.482 93.4733 313.635 93.3052 313.879 93.183L314.888 92.633H315.208L315.988 93.9621C316.446 94.726 317.057 95.3066 317.821 95.7038C318.585 96.0705 319.349 96.2538 320.113 96.2538C321.274 96.2538 322.221 95.9483 322.954 95.3372C323.718 94.726 324.1 93.8399 324.1 92.6788C324.1 91.4871 323.703 90.5705 322.908 89.9288C322.145 89.2871 321.274 88.676 320.296 88.0955C319.135 87.3927 318.264 86.751 317.683 86.1705C317.103 85.5899 316.706 84.9941 316.492 84.383C316.278 83.7718 316.171 83.0385 316.171 82.183C316.171 81.2968 316.507 80.4107 317.179 79.5246C317.851 78.6079 318.738 77.8441 319.838 77.2329C320.938 76.6218 322.099 76.3163 323.321 76.3163C324.665 76.3163 325.72 76.5302 326.483 76.9579C327.247 77.3552 327.843 77.8746 328.271 78.5163C328.546 78.9441 328.683 79.3413 328.683 79.7079C328.683 79.9218 328.622 80.1357 328.5 80.3496C328.408 80.5635 328.256 80.7316 328.042 80.8538L327.171 81.3121H326.85L325.842 79.8913C325.414 79.2802 324.925 78.8218 324.375 78.5163C323.856 78.1802 323.199 78.0121 322.404 78.0121C321.518 78.0121 320.754 78.2871 320.113 78.8371C319.501 79.3566 319.196 80.0441 319.196 80.8996C319.196 81.8774 319.486 82.6871 320.067 83.3288C320.678 83.9705 321.381 84.5205 322.175 84.9788C323.275 85.6205 324.176 86.2316 324.879 86.8121C325.613 87.3927 326.163 88.0496 326.529 88.783C326.896 89.5163 327.079 90.4483 327.079 91.5788C327.079 92.6483 326.758 93.6719 326.117 94.6497C325.475 95.5969 324.589 96.376 323.458 96.9872C322.358 97.5677 321.106 97.858 319.7 97.858ZM335.4 97.858C334.391 97.858 333.628 97.5372 333.108 96.8955C332.589 96.2538 332.329 95.3524 332.329 94.1913C332.329 93.9469 332.344 93.6719 332.375 93.3663C332.405 93.0608 332.451 92.7552 332.512 92.4496L334.941 78.7913H331.55V78.5163L335.446 76.7746L339.387 71.7329H339.662L338.791 76.7746H344.521V78.7913H338.425L336.362 90.433C336.301 90.8302 336.255 91.1969 336.225 91.533C336.194 91.8385 336.179 92.1135 336.179 92.358C336.179 93.0913 336.301 93.6108 336.546 93.9163C336.79 94.2219 337.111 94.3747 337.508 94.3747C338.211 94.3747 338.96 93.9774 339.754 93.183C340.579 92.3885 341.328 91.2427 342 89.7455L342.596 90.0205C341.587 92.9233 340.457 94.9552 339.204 96.1163C337.982 97.2774 336.714 97.858 335.4 97.858ZM346.227 97.3997L349.389 79.5704L345.814 77.9663V77.6913L352.277 76.3163H352.414V81.9538H352.597C353.575 80.151 354.4 78.8677 355.072 78.1038C355.775 77.3093 356.386 76.8204 356.906 76.6371C357.456 76.4232 357.945 76.3163 358.372 76.3163C358.922 76.3163 359.427 76.4996 359.885 76.8663C360.343 77.2024 360.572 77.5996 360.572 78.0579C360.572 78.2107 360.527 78.3788 360.435 78.5621L359.289 80.8996H359.014L358.51 80.5329C358.265 80.3496 357.99 80.2274 357.685 80.1663C357.41 80.0746 357.135 80.0288 356.86 80.0288C356.31 80.0288 355.806 80.151 355.347 80.3954C354.92 80.6093 354.431 81.0829 353.881 81.8163C353.361 82.5191 352.689 83.5885 351.864 85.0246L349.71 97.3997H346.227ZM368.281 97.858C365.929 97.858 364.202 97.2163 363.102 95.933C362.002 94.6191 361.452 92.8469 361.452 90.6163C361.452 88.8135 361.742 87.0719 362.323 85.3913C362.934 83.6802 363.759 82.1524 364.798 80.8079C365.867 79.4329 367.09 78.3482 368.465 77.5538C369.87 76.7288 371.383 76.3163 373.002 76.3163C374.53 76.3163 375.676 76.6677 376.44 77.3704C377.234 78.0732 377.631 78.8982 377.631 79.8454C377.631 80.8843 377.265 81.8468 376.531 82.733C375.798 83.5885 374.515 84.383 372.681 85.1163C370.879 85.8191 368.327 86.4455 365.027 86.9955C364.966 87.6066 364.936 88.2482 364.936 88.9205C364.936 90.7844 365.333 92.2663 366.127 93.3663C366.922 94.4663 368.174 95.0163 369.886 95.0163C370.894 95.0163 371.887 94.7413 372.865 94.1913C373.842 93.6413 374.851 92.7399 375.89 91.4871H375.981L376.44 91.8538C375.401 93.6566 374.148 95.108 372.681 96.208C371.245 97.308 369.779 97.858 368.281 97.858ZM371.765 77.9204C370.115 77.9204 368.709 78.6079 367.548 79.9829C366.417 81.3274 365.654 83.1149 365.256 85.3455C367.548 84.9482 369.336 84.5205 370.619 84.0621C371.902 83.6038 372.804 83.0691 373.323 82.458C373.842 81.8163 374.102 81.0218 374.102 80.0746C374.102 79.4635 373.904 78.9593 373.506 78.5621C373.109 78.1343 372.529 77.9204 371.765 77.9204ZM384.981 97.6197C384.248 97.6197 383.617 97.3557 383.089 96.8277C382.561 96.2997 382.297 95.669 382.297 94.9357C382.297 94.2023 382.561 93.5716 383.089 93.0436C383.617 92.5156 384.248 92.2516 384.981 92.2516C385.715 92.2516 386.345 92.5156 386.873 93.0436C387.401 93.5716 387.665 94.2023 387.665 94.9357C387.665 95.669 387.401 96.2997 386.873 96.8277C386.345 97.3557 385.715 97.6197 384.981 97.6197Z" fill="#161616"/>
</svg>
