<?xml version="1.0" encoding="UTF-8"?>
<svg width="69px" height="20px" viewBox="0 0 69 20" version="1.1" xmlns="http://www.w3.org/2000/svg" xmlns:xlink="http://www.w3.org/1999/xlink">
    <g id=".data.gouv.fr" stroke="none" stroke-width="1" fill="none" fill-rule="evenodd">
        <g id="pointdatagouvfr" fill="#373C42" fill-rule="nonzero">
            <path d="M1.456,13.385 L1.444,13.385 C0.920445652,13.3871046 0.494703605,13.8075138 0.486,14.331 C0.486,14.813 0.927,15.228 1.439,15.228 C1.985,15.228 2.444,14.829 2.444,14.331 C2.444,13.817 1.985,13.385 1.456,13.385 Z M13.046,5.842 L15.285,5.842 L15.285,13.302 C15.285,14.216 15.201,14.974 15.031,15.577 C14.8787311,16.1479817 14.5971344,16.676275 14.208,17.121 C13.279,18.187 11.948,18.719 10.221,18.719 C9.026,18.719 7.99,18.462 7.111,17.949 C6.25378545,17.4598487 5.58176213,16.7017136 5.199,15.792 L7.86,15.792 C8.205,16.148 8.563,16.401 8.937,16.55 C9.31,16.698 9.769,16.772 10.315,16.772 C11.187,16.772 11.851,16.529 12.305,16.043 C12.759,15.556 13.005,14.819 13.046,13.829 C12.586,14.338 12.108,14.704 11.612,14.928 C11.115,15.152 10.522,15.264 9.832,15.264 C8.914,15.264 8.088,15.056 7.356,14.64 C6.63329065,14.2333493 6.0404406,13.6304451 5.646,12.901 C5.238,12.157 5.035,11.319 5.035,10.383 C5.035,9.022 5.492,7.889 6.405,6.986 C7.318,6.084 8.466,5.632 9.85,5.632 C11.251,5.632 12.316,6.092 13.046,7.01 L13.046,5.842 L13.046,5.842 Z M10.083,7.659 C9.278,7.659 8.631,7.917 8.14,8.434 C7.649,8.949 7.404,9.632 7.404,10.48 C7.404,11.319 7.652,11.988 8.149,12.488 C8.645,12.988 9.313,13.237 10.151,13.237 C11.001,13.237 11.679,12.985 12.184,12.479 C12.69,11.974 12.942,11.297 12.942,10.448 C12.942,9.616 12.679,8.943 12.154,8.429 C11.629,7.916 10.938,7.659 10.083,7.659 L10.083,7.659 Z M22.852,5.63196012 C23.782,5.63196012 24.644,5.849 25.437,6.28 C26.2072646,6.69257415 26.8550599,7.30104637 27.315,8.044 C27.768,8.77 28.007,9.609 28.0030494,10.465 C28.0030494,11.329 27.772,12.13 27.309,12.869 C26.8446423,13.6092953 26.1925439,14.2134352 25.419,14.62 C24.6198598,15.0497408 23.7253313,15.2712234 22.818,15.264 C21.9064472,15.2719473 21.0075377,15.0504868 20.204,14.62 C19.4275365,14.2138131 18.7721068,13.609783 18.304,12.869 C17.8453171,12.1513169 17.6029963,11.3167336 17.6059724,10.465 C17.6059724,9.805 17.743,9.177 18.015,8.579 C18.2779111,7.99586589 18.6561784,7.47200656 19.127,7.039 C19.6165275,6.59562053 20.1846152,6.24764558 20.802,6.013 C21.4554031,5.75859828 22.1508233,5.6293519 22.852,5.63196012 L22.852,5.63196012 Z M22.757,7.659 C22,7.659 21.346,7.934 20.798,8.482 C20.2641797,8.99572427 19.9663491,9.70718838 19.975,10.448 C19.975,11.216 20.251,11.873 20.802,12.418 C21.3247481,12.952649 22.0443532,13.2488081 22.792,13.237 C23.573,13.237 24.242,12.966 24.799,12.422 C25.356,11.88 25.634,11.227 25.634,10.465 C25.634,9.675 25.356,9.01 24.799,8.47 C24.242,7.929 23.561,7.659 22.757,7.659 L22.757,7.659 Z M38.981,5.842 L38.981,15.046 L36.811,15.046 L36.811,14.162 C36.363,14.567 35.93,14.852 35.514,15.018 C35.098,15.182 34.597,15.264 34.011,15.264 C33.35,15.264 32.759,15.139 32.236,14.887 C31.7268556,14.6470873 31.2901226,14.2769338 30.97,13.814 C30.7172723,13.4395648 30.5362083,13.0214899 30.436,12.581 C30.332,12.132 30.281,11.532 30.281,10.78 L30.281,5.842 L32.633,5.842 L32.633,10.343 C32.633,10.98 32.67,11.479 32.745,11.838 C32.819,12.199 32.945,12.48 33.123,12.686 C33.462,13.054 33.916,13.237 34.485,13.237 C34.861,13.244 35.233,13.165 35.574,13.006 C35.877,12.867 36.13,12.639 36.303,12.354 C36.429,12.148 36.516,11.882 36.565,11.555 C36.614,11.228 36.638,10.77 36.638,10.181 L36.638,5.842 L38.981,5.842 L38.981,5.842 Z M44.799,15.046 L40.863,5.842 L43.473,5.842 L45.73,11.94 L47.952,5.842 L50.606,5.842 L46.669,15.046 L44.799,15.046 L44.799,15.046 Z M51.841,13.386 C51.343,13.386 50.929,13.8 50.929,14.332 C50.929,14.814 51.343,15.228 51.824,15.228 C52.339,15.228 52.771,14.83 52.771,14.332 C52.7647835,13.8183199 52.3544993,13.4009771 51.841,13.386 L51.841,13.386 Z" id="Shape"></path>
            <path d="M54.956,6.537 L56.884,6.537 L54.934,15.56 C54.426,17.89 53.727,19.055 52.816,19.055 C52.562,19.055 52.393,18.907 52.393,18.695 C52.393,18.631 52.414,18.589 52.478,18.483 C52.5483291,18.3762539 52.5849148,18.2508172 52.583,18.123 C52.5780889,17.6669149 52.2081064,17.2991585 51.752,17.297 L51.736,17.297 C51.291,17.297 50.953,17.7 50.953,18.208 C50.953,18.928 51.694,19.5 52.626,19.5 C54.553,19.5 56.057,17.382 56.989,13.421 L58.578,6.537 L60.929,6.537 L61.056,5.858 L58.747,5.858 C59.383,2.47 60.209,0.966 61.395,0.966 C61.691,0.966 61.861,1.071 61.861,1.241 C61.861,1.284 61.839,1.347 61.776,1.453 C61.6858519,1.58331679 61.6412118,1.73973286 61.649,1.898 C61.649,2.406 61.967,2.745 62.433,2.745 C62.92,2.745 63.344,2.343 63.344,1.877 C63.344,1.093 62.56,0.5 61.501,0.5 C60.462,0.5 59.616,0.966 58.832,1.962 C58.196,2.809 57.752,3.783 57.095,5.858 L55.104,5.858 L54.956,6.537 L54.956,6.537 Z M62.433,15.052 C63.598,11.345 63.957,10.477 64.933,8.845 C65.674,7.638 66.267,6.982 66.626,6.982 C66.775,6.982 66.881,7.067 66.987,7.278 C67.156,7.638 67.326,7.744 67.75,7.744 C68.385,7.744 68.744,7.363 68.744,6.685 C68.744,6.008 68.343,5.583 67.75,5.583 C67.262,5.583 66.669,5.901 66.118,6.494 C65.229,7.384 64.339,8.676 64,9.503 L63.682,10.286 L64.868,5.626 L64.805,5.583 C63.259,5.858 63.026,5.901 61.48,6.156 L61.48,6.516 C61.946,6.431 62.031,6.409 62.2,6.409 C62.665,6.409 62.941,6.621 62.941,7.002 C62.941,7.278 62.772,8.146 62.602,8.782 L60.802,15.052 L62.433,15.052 L62.433,15.052 Z" id="Shape"></path>
        </g>
    </g>
</svg>