<svg xmlns="http://www.w3.org/2000/svg" viewBox="0 0 143.5 143.5"><title>icon_download</title><g id="Calque_2" data-name="Calque 2"><g id="Calque_1-2" data-name="Calque 1"><path d="M71.75,0A71.75,71.75,0,1,0,143.5,71.75,71.75,71.75,0,0,0,71.75,0Zm0,139A67.25,67.25,0,1,1,139,71.75,67.25,67.25,0,0,1,71.75,139Z"/><path d="M68.36,95.1V93.6q0-26.06,0-52.11a13.27,13.27,0,0,1,.07-1.78A3.27,3.27,0,0,1,71.8,36.8a3.37,3.37,0,0,1,3.32,3,13,13,0,0,1,0,1.55q0,26.18,0,52.35v1.76c.62-.55,1.05-.91,1.46-1.29,3.85-3.63,7.68-7.27,11.55-10.87A5.74,5.74,0,0,1,90.24,82a3.11,3.11,0,0,1,3.69,1.46A4,4,0,0,1,93,88Q89,91.74,85.09,95.46c-3.41,3.21-6.84,6.42-10.25,9.64-2.26,2.14-3.9,2.14-6.18,0q-8.93-8.43-17.88-16.83l-.35-.32C49,86.5,48.78,84.14,50,82.86A3.63,3.63,0,0,1,55,83c2.6,2.4,5.16,4.84,7.73,7.27l5.28,5Z"/></g></g></svg>