<svg xmlns="http://www.w3.org/2000/svg" viewBox="0 0 184 134"><title>email</title><g id="email" fill-rule="nonzero" fill="#ffffff"><g id="email-1" transform="translate(0.890026, 0.961737)"><path d="M2.67510635,0.00574903443 C62.6572101,0.00136714843 122.639305,0.00136714843 182.621909,0.00574903443 C175.901357,6.55780789 169.335443,13.2556609 162.584508,19.7779317 C154.358726,27.7445948 146.340348,35.9077592 138.122033,43.8812142 C133.446868,48.5269161 128.629878,53.037279 124.071498,57.792712 C115.901156,65.8220887 107.668434,73.7960783 99.5562133,81.8787562 C95.4318595,85.4427281 88.3418014,85.3089492 84.6146831,81.2401752 C57.2648788,54.1963492 30.0195824,27.0542812 2.67510635,0.00574903443 L2.67510635,0.00574903443 Z"></path><path d="M0.634505857,125.836864 C0.653698517,86.550653 0.65475017,47.2644509 0.633971266,7.97876589 C20.379179,27.4295635 37.5250958,45.4471338 57.2079055,64.9575075 C38.1560173,85.5785578 19.381222,105.565874 0.634505857,125.836864 L0.634505857,125.836864 Z"></path><path d="M183.585555,126.300827 C183.566363,87.0146158 183.565311,47.7284137 183.58609,8.44272874 C163.840882,27.8935263 146.694965,45.9110966 127.012156,65.4214703 C146.064044,86.0425207 164.838839,106.029836 183.585555,126.300827 L183.585555,126.300827 Z"></path><path d="M3.37222936,132.070885 L62.0041339,69.6046816 C66.1978091,73.6091733 74.3518241,80.9624425 78.6014823,84.9125988 C88.5783356,93.7969077 98.1811775,93.6652233 107.907948,84.4793793 C111.780098,80.6818265 118.773658,73.7847643 122.650602,69.9919001 L179.645872,132.07036 C120.061573,132.075618 62.9565543,132.074741 3.37222936,132.070885 L3.37222936,132.070885 Z"></path></g></g></svg>
