<svg xmlns="http://www.w3.org/2000/svg" viewBox="0 0 143.5 143.5"><title>icon_search</title><g id="Calque_2" data-name="Calque 2"><g id="Calque_1-2" data-name="Calque 1"><path d="M71.75,0A71.75,71.75,0,1,0,143.5,71.75,71.75,71.75,0,0,0,71.75,0Zm0,139A67.25,67.25,0,1,1,139,71.75,67.25,67.25,0,0,1,71.75,139Z"/><path d="M89.55,94c-8.18,6.51-17.34,9.1-27.54,7.52A33.43,33.43,0,0,1,40.75,89.38a34.55,34.55,0,1,1,58.7-35A34.53,34.53,0,0,1,94,89.6a5.75,5.75,0,0,1,.74.53l14.68,14.68c1.32,1.33,1.61,2.7.89,4.09a3.21,3.21,0,0,1-4.85,1.06,8.3,8.3,0,0,1-.74-.69L90.11,94.7C89.92,94.51,89.77,94.29,89.55,94Zm-22.11,1.5A28.1,28.1,0,1,0,39.33,67.32,28.12,28.12,0,0,0,67.44,95.53Z"/></g></g></svg>