<svg xmlns="http://www.w3.org/2000/svg" viewBox="0 0 143.5 143.5"><title>icon_map</title><g id="Calque_2" data-name="Calque 2"><g id="Calque_1-2" data-name="Calque 1"><path d="M71.72,29.75a19.73,19.73,0,0,0-20,19.75,26.86,26.86,0,0,0,1.56,8.56q8.28,17.26,16.63,34.53a2,2,0,0,0,3.63,0c5.48-11.54,11.19-23,16.63-34.53a26.71,26.71,0,0,0,1.56-8.56A19.78,19.78,0,0,0,71.72,29.75Zm0,4c8.91,0,16,6.7,16,15.75a25.85,25.85,0,0,1-1.31,7.06c-4.85,10.19-9.78,20.38-14.69,30.56C67,76.87,61.68,66.85,57.06,56.56a26,26,0,0,1-1.31-7.06A15.58,15.58,0,0,1,71.72,33.75Zm0,5a11,11,0,1,0,11,11A11,11,0,0,0,71.75,38.75Zm0,4a7,7,0,1,1-7,7A7,7,0,0,1,71.75,42.75Zm-37,27a2.12,2.12,0,0,0-2,2v40a2.08,2.08,0,0,0,2,2h74a2.08,2.08,0,0,0,2-2v-40a2.08,2.08,0,0,0-2-2h-22l-1.94,4h21.91v8H81.31l-.19-.25-1.94,4,19.41,24.25H68.72L56.28,94.19,65,86.84l-1.78-3.69-9.41,7.94L39.91,73.75H58.66l-1.94-4Zm2,6.44,26.84,33.56H36.75ZM84.5,85.75h22.25v10H92.5Zm11.22,14h11v10h-3Z"/><path d="M71.75,0A71.75,71.75,0,1,0,143.5,71.75,71.75,71.75,0,0,0,71.75,0Zm0,139A67.25,67.25,0,1,1,139,71.75,67.25,67.25,0,0,1,71.75,139Z"/></g></g></svg>